<?xml version="1.0" encoding="utf-8" standalone="no"?>
<!DOCTYPE svg PUBLIC "-//W3C//DTD SVG 1.1//EN"
  "http://www.w3.org/Graphics/SVG/1.1/DTD/svg11.dtd">
<svg xmlns:xlink="http://www.w3.org/1999/xlink" width="288pt" height="288pt" viewBox="0 0 288 288" xmlns="http://www.w3.org/2000/svg" version="1.1">
 <metadata>
  <rdf:RDF xmlns:dc="http://purl.org/dc/elements/1.1/" xmlns:cc="http://creativecommons.org/ns#" xmlns:rdf="http://www.w3.org/1999/02/22-rdf-syntax-ns#">
   <cc:Work>
    <dc:type rdf:resource="http://purl.org/dc/dcmitype/StillImage"/>
    <dc:date>2022-03-04T09:48:12.222449</dc:date>
    <dc:format>image/svg+xml</dc:format>
    <dc:creator>
     <cc:Agent>
      <dc:title>Matplotlib v3.5.1, https://matplotlib.org/</dc:title>
     </cc:Agent>
    </dc:creator>
   </cc:Work>
  </rdf:RDF>
 </metadata>
 <defs>
  <style type="text/css">*{stroke-linejoin: round; stroke-linecap: butt}</style>
 </defs>
 <g id="figure_1">
  <g id="patch_1">
   <path d="M 0 288 
L 288 288 
L 288 0 
L 0 0 
z
" style="fill: #ffffff"/>
  </g>
  <g id="axes_1">
   <g id="patch_2">
    <path d="M 51.05 246.04 
L 276.892398 246.04 
L 276.892398 10.8 
L 51.05 10.8 
z
" style="fill: #ffffff"/>
   </g>
   <g id="matplotlib.axis_1">
    <g id="xtick_1">
     <g id="line2d_1">
      <defs>
       <path id="m9a58412dd4" d="M 0 0 
L 0 3.5 
" style="stroke: #000000; stroke-width: 0.8"/>
      </defs>
      <g>
       <use xlink:href="#m9a58412dd4" x="61.315564" y="246.04" style="stroke: #000000; stroke-width: 0.8"/>
      </g>
     </g>
     <g id="text_1">
      <!-- 0 -->
      <g transform="translate(58.134314 260.638438)scale(0.1 -0.1)">
       <defs>
        <path id="DejaVuSans-30" d="M 2034 4250 
Q 1547 4250 1301 3770 
Q 1056 3291 1056 2328 
Q 1056 1369 1301 889 
Q 1547 409 2034 409 
Q 2525 409 2770 889 
Q 3016 1369 3016 2328 
Q 3016 3291 2770 3770 
Q 2525 4250 2034 4250 
z
M 2034 4750 
Q 2819 4750 3233 4129 
Q 3647 3509 3647 2328 
Q 3647 1150 3233 529 
Q 2819 -91 2034 -91 
Q 1250 -91 836 529 
Q 422 1150 422 2328 
Q 422 3509 836 4129 
Q 1250 4750 2034 4750 
z
" transform="scale(0.015625)"/>
       </defs>
       <use xlink:href="#DejaVuSans-30"/>
      </g>
     </g>
    </g>
    <g id="xtick_2">
     <g id="line2d_2">
      <g>
       <use xlink:href="#m9a58412dd4" x="113.676862" y="246.04" style="stroke: #000000; stroke-width: 0.8"/>
      </g>
     </g>
     <g id="text_2">
      <!-- 20 -->
      <g transform="translate(107.314362 260.638438)scale(0.1 -0.1)">
       <defs>
        <path id="DejaVuSans-32" d="M 1228 531 
L 3431 531 
L 3431 0 
L 469 0 
L 469 531 
Q 828 903 1448 1529 
Q 2069 2156 2228 2338 
Q 2531 2678 2651 2914 
Q 2772 3150 2772 3378 
Q 2772 3750 2511 3984 
Q 2250 4219 1831 4219 
Q 1534 4219 1204 4116 
Q 875 4013 500 3803 
L 500 4441 
Q 881 4594 1212 4672 
Q 1544 4750 1819 4750 
Q 2544 4750 2975 4387 
Q 3406 4025 3406 3419 
Q 3406 3131 3298 2873 
Q 3191 2616 2906 2266 
Q 2828 2175 2409 1742 
Q 1991 1309 1228 531 
z
" transform="scale(0.015625)"/>
       </defs>
       <use xlink:href="#DejaVuSans-32"/>
       <use xlink:href="#DejaVuSans-30" x="63.623047"/>
      </g>
     </g>
    </g>
    <g id="xtick_3">
     <g id="line2d_3">
      <g>
       <use xlink:href="#m9a58412dd4" x="166.038161" y="246.04" style="stroke: #000000; stroke-width: 0.8"/>
      </g>
     </g>
     <g id="text_3">
      <!-- 40 -->
      <g transform="translate(159.675661 260.638438)scale(0.1 -0.1)">
       <defs>
        <path id="DejaVuSans-34" d="M 2419 4116 
L 825 1625 
L 2419 1625 
L 2419 4116 
z
M 2253 4666 
L 3047 4666 
L 3047 1625 
L 3713 1625 
L 3713 1100 
L 3047 1100 
L 3047 0 
L 2419 0 
L 2419 1100 
L 313 1100 
L 313 1709 
L 2253 4666 
z
" transform="scale(0.015625)"/>
       </defs>
       <use xlink:href="#DejaVuSans-34"/>
       <use xlink:href="#DejaVuSans-30" x="63.623047"/>
      </g>
     </g>
    </g>
    <g id="xtick_4">
     <g id="line2d_4">
      <g>
       <use xlink:href="#m9a58412dd4" x="218.39946" y="246.04" style="stroke: #000000; stroke-width: 0.8"/>
      </g>
     </g>
     <g id="text_4">
      <!-- 60 -->
      <g transform="translate(212.03696 260.638438)scale(0.1 -0.1)">
       <defs>
        <path id="DejaVuSans-36" d="M 2113 2584 
Q 1688 2584 1439 2293 
Q 1191 2003 1191 1497 
Q 1191 994 1439 701 
Q 1688 409 2113 409 
Q 2538 409 2786 701 
Q 3034 994 3034 1497 
Q 3034 2003 2786 2293 
Q 2538 2584 2113 2584 
z
M 3366 4563 
L 3366 3988 
Q 3128 4100 2886 4159 
Q 2644 4219 2406 4219 
Q 1781 4219 1451 3797 
Q 1122 3375 1075 2522 
Q 1259 2794 1537 2939 
Q 1816 3084 2150 3084 
Q 2853 3084 3261 2657 
Q 3669 2231 3669 1497 
Q 3669 778 3244 343 
Q 2819 -91 2113 -91 
Q 1303 -91 875 529 
Q 447 1150 447 2328 
Q 447 3434 972 4092 
Q 1497 4750 2381 4750 
Q 2619 4750 2861 4703 
Q 3103 4656 3366 4563 
z
" transform="scale(0.015625)"/>
       </defs>
       <use xlink:href="#DejaVuSans-36"/>
       <use xlink:href="#DejaVuSans-30" x="63.623047"/>
      </g>
     </g>
    </g>
    <g id="xtick_5">
     <g id="line2d_5">
      <g>
       <use xlink:href="#m9a58412dd4" x="270.760759" y="246.04" style="stroke: #000000; stroke-width: 0.8"/>
      </g>
     </g>
     <g id="text_5">
      <!-- 80 -->
      <g transform="translate(264.398259 260.638438)scale(0.1 -0.1)">
       <defs>
        <path id="DejaVuSans-38" d="M 2034 2216 
Q 1584 2216 1326 1975 
Q 1069 1734 1069 1313 
Q 1069 891 1326 650 
Q 1584 409 2034 409 
Q 2484 409 2743 651 
Q 3003 894 3003 1313 
Q 3003 1734 2745 1975 
Q 2488 2216 2034 2216 
z
M 1403 2484 
Q 997 2584 770 2862 
Q 544 3141 544 3541 
Q 544 4100 942 4425 
Q 1341 4750 2034 4750 
Q 2731 4750 3128 4425 
Q 3525 4100 3525 3541 
Q 3525 3141 3298 2862 
Q 3072 2584 2669 2484 
Q 3125 2378 3379 2068 
Q 3634 1759 3634 1313 
Q 3634 634 3220 271 
Q 2806 -91 2034 -91 
Q 1263 -91 848 271 
Q 434 634 434 1313 
Q 434 1759 690 2068 
Q 947 2378 1403 2484 
z
M 1172 3481 
Q 1172 3119 1398 2916 
Q 1625 2713 2034 2713 
Q 2441 2713 2670 2916 
Q 2900 3119 2900 3481 
Q 2900 3844 2670 4047 
Q 2441 4250 2034 4250 
Q 1625 4250 1398 4047 
Q 1172 3844 1172 3481 
z
" transform="scale(0.015625)"/>
       </defs>
       <use xlink:href="#DejaVuSans-38"/>
       <use xlink:href="#DejaVuSans-30" x="63.623047"/>
      </g>
     </g>
    </g>
    <g id="text_6">
     <!-- time -->
     <g transform="translate(152.675105 274.316562)scale(0.1 -0.1)">
      <defs>
       <path id="DejaVuSans-74" d="M 1172 4494 
L 1172 3500 
L 2356 3500 
L 2356 3053 
L 1172 3053 
L 1172 1153 
Q 1172 725 1289 603 
Q 1406 481 1766 481 
L 2356 481 
L 2356 0 
L 1766 0 
Q 1100 0 847 248 
Q 594 497 594 1153 
L 594 3053 
L 172 3053 
L 172 3500 
L 594 3500 
L 594 4494 
L 1172 4494 
z
" transform="scale(0.015625)"/>
       <path id="DejaVuSans-69" d="M 603 3500 
L 1178 3500 
L 1178 0 
L 603 0 
L 603 3500 
z
M 603 4863 
L 1178 4863 
L 1178 4134 
L 603 4134 
L 603 4863 
z
" transform="scale(0.015625)"/>
       <path id="DejaVuSans-6d" d="M 3328 2828 
Q 3544 3216 3844 3400 
Q 4144 3584 4550 3584 
Q 5097 3584 5394 3201 
Q 5691 2819 5691 2113 
L 5691 0 
L 5113 0 
L 5113 2094 
Q 5113 2597 4934 2840 
Q 4756 3084 4391 3084 
Q 3944 3084 3684 2787 
Q 3425 2491 3425 1978 
L 3425 0 
L 2847 0 
L 2847 2094 
Q 2847 2600 2669 2842 
Q 2491 3084 2119 3084 
Q 1678 3084 1418 2786 
Q 1159 2488 1159 1978 
L 1159 0 
L 581 0 
L 581 3500 
L 1159 3500 
L 1159 2956 
Q 1356 3278 1631 3431 
Q 1906 3584 2284 3584 
Q 2666 3584 2933 3390 
Q 3200 3197 3328 2828 
z
" transform="scale(0.015625)"/>
       <path id="DejaVuSans-65" d="M 3597 1894 
L 3597 1613 
L 953 1613 
Q 991 1019 1311 708 
Q 1631 397 2203 397 
Q 2534 397 2845 478 
Q 3156 559 3463 722 
L 3463 178 
Q 3153 47 2828 -22 
Q 2503 -91 2169 -91 
Q 1331 -91 842 396 
Q 353 884 353 1716 
Q 353 2575 817 3079 
Q 1281 3584 2069 3584 
Q 2775 3584 3186 3129 
Q 3597 2675 3597 1894 
z
M 3022 2063 
Q 3016 2534 2758 2815 
Q 2500 3097 2075 3097 
Q 1594 3097 1305 2825 
Q 1016 2553 972 2059 
L 3022 2063 
z
" transform="scale(0.015625)"/>
      </defs>
      <use xlink:href="#DejaVuSans-74"/>
      <use xlink:href="#DejaVuSans-69" x="39.208984"/>
      <use xlink:href="#DejaVuSans-6d" x="66.992188"/>
      <use xlink:href="#DejaVuSans-65" x="164.404297"/>
     </g>
    </g>
   </g>
   <g id="matplotlib.axis_2">
    <g id="ytick_1">
     <g id="line2d_6">
      <defs>
       <path id="m08ad1e5d2b" d="M 0 0 
L -3.5 0 
" style="stroke: #000000; stroke-width: 0.8"/>
      </defs>
      <g>
       <use xlink:href="#m08ad1e5d2b" x="51.05" y="235.347273" style="stroke: #000000; stroke-width: 0.8"/>
      </g>
     </g>
     <g id="text_7">
      <!-- 0 -->
      <g transform="translate(37.6875 239.146491)scale(0.1 -0.1)">
       <use xlink:href="#DejaVuSans-30"/>
      </g>
     </g>
    </g>
    <g id="ytick_2">
     <g id="line2d_7">
      <g>
       <use xlink:href="#m08ad1e5d2b" x="51.05" y="201.980465" style="stroke: #000000; stroke-width: 0.8"/>
      </g>
     </g>
     <g id="text_8">
      <!-- 100 -->
      <g transform="translate(24.9625 205.779684)scale(0.1 -0.1)">
       <defs>
        <path id="DejaVuSans-31" d="M 794 531 
L 1825 531 
L 1825 4091 
L 703 3866 
L 703 4441 
L 1819 4666 
L 2450 4666 
L 2450 531 
L 3481 531 
L 3481 0 
L 794 0 
L 794 531 
z
" transform="scale(0.015625)"/>
       </defs>
       <use xlink:href="#DejaVuSans-31"/>
       <use xlink:href="#DejaVuSans-30" x="63.623047"/>
       <use xlink:href="#DejaVuSans-30" x="127.246094"/>
      </g>
     </g>
    </g>
    <g id="ytick_3">
     <g id="line2d_8">
      <g>
       <use xlink:href="#m08ad1e5d2b" x="51.05" y="168.613657" style="stroke: #000000; stroke-width: 0.8"/>
      </g>
     </g>
     <g id="text_9">
      <!-- 200 -->
      <g transform="translate(24.9625 172.412876)scale(0.1 -0.1)">
       <use xlink:href="#DejaVuSans-32"/>
       <use xlink:href="#DejaVuSans-30" x="63.623047"/>
       <use xlink:href="#DejaVuSans-30" x="127.246094"/>
      </g>
     </g>
    </g>
    <g id="ytick_4">
     <g id="line2d_9">
      <g>
       <use xlink:href="#m08ad1e5d2b" x="51.05" y="135.246849" style="stroke: #000000; stroke-width: 0.8"/>
      </g>
     </g>
     <g id="text_10">
      <!-- 300 -->
      <g transform="translate(24.9625 139.046068)scale(0.1 -0.1)">
       <defs>
        <path id="DejaVuSans-33" d="M 2597 2516 
Q 3050 2419 3304 2112 
Q 3559 1806 3559 1356 
Q 3559 666 3084 287 
Q 2609 -91 1734 -91 
Q 1441 -91 1130 -33 
Q 819 25 488 141 
L 488 750 
Q 750 597 1062 519 
Q 1375 441 1716 441 
Q 2309 441 2620 675 
Q 2931 909 2931 1356 
Q 2931 1769 2642 2001 
Q 2353 2234 1838 2234 
L 1294 2234 
L 1294 2753 
L 1863 2753 
Q 2328 2753 2575 2939 
Q 2822 3125 2822 3475 
Q 2822 3834 2567 4026 
Q 2313 4219 1838 4219 
Q 1578 4219 1281 4162 
Q 984 4106 628 3988 
L 628 4550 
Q 988 4650 1302 4700 
Q 1616 4750 1894 4750 
Q 2613 4750 3031 4423 
Q 3450 4097 3450 3541 
Q 3450 3153 3228 2886 
Q 3006 2619 2597 2516 
z
" transform="scale(0.015625)"/>
       </defs>
       <use xlink:href="#DejaVuSans-33"/>
       <use xlink:href="#DejaVuSans-30" x="63.623047"/>
       <use xlink:href="#DejaVuSans-30" x="127.246094"/>
      </g>
     </g>
    </g>
    <g id="ytick_5">
     <g id="line2d_10">
      <g>
       <use xlink:href="#m08ad1e5d2b" x="51.05" y="101.880041" style="stroke: #000000; stroke-width: 0.8"/>
      </g>
     </g>
     <g id="text_11">
      <!-- 400 -->
      <g transform="translate(24.9625 105.67926)scale(0.1 -0.1)">
       <use xlink:href="#DejaVuSans-34"/>
       <use xlink:href="#DejaVuSans-30" x="63.623047"/>
       <use xlink:href="#DejaVuSans-30" x="127.246094"/>
      </g>
     </g>
    </g>
    <g id="ytick_6">
     <g id="line2d_11">
      <g>
       <use xlink:href="#m08ad1e5d2b" x="51.05" y="68.513233" style="stroke: #000000; stroke-width: 0.8"/>
      </g>
     </g>
     <g id="text_12">
      <!-- 500 -->
      <g transform="translate(24.9625 72.312452)scale(0.1 -0.1)">
       <defs>
        <path id="DejaVuSans-35" d="M 691 4666 
L 3169 4666 
L 3169 4134 
L 1269 4134 
L 1269 2991 
Q 1406 3038 1543 3061 
Q 1681 3084 1819 3084 
Q 2600 3084 3056 2656 
Q 3513 2228 3513 1497 
Q 3513 744 3044 326 
Q 2575 -91 1722 -91 
Q 1428 -91 1123 -41 
Q 819 9 494 109 
L 494 744 
Q 775 591 1075 516 
Q 1375 441 1709 441 
Q 2250 441 2565 725 
Q 2881 1009 2881 1497 
Q 2881 1984 2565 2268 
Q 2250 2553 1709 2553 
Q 1456 2553 1204 2497 
Q 953 2441 691 2322 
L 691 4666 
z
" transform="scale(0.015625)"/>
       </defs>
       <use xlink:href="#DejaVuSans-35"/>
       <use xlink:href="#DejaVuSans-30" x="63.623047"/>
       <use xlink:href="#DejaVuSans-30" x="127.246094"/>
      </g>
     </g>
    </g>
    <g id="ytick_7">
     <g id="line2d_12">
      <g>
       <use xlink:href="#m08ad1e5d2b" x="51.05" y="35.146425" style="stroke: #000000; stroke-width: 0.8"/>
      </g>
     </g>
     <g id="text_13">
      <!-- 600 -->
      <g transform="translate(24.9625 38.945644)scale(0.1 -0.1)">
       <use xlink:href="#DejaVuSans-36"/>
       <use xlink:href="#DejaVuSans-30" x="63.623047"/>
       <use xlink:href="#DejaVuSans-30" x="127.246094"/>
      </g>
     </g>
    </g>
    <g id="text_14">
     <!-- number of Ase1 norm -->
     <g transform="translate(18.882812 182.87)rotate(-90)scale(0.1 -0.1)">
      <defs>
       <path id="DejaVuSans-6e" d="M 3513 2113 
L 3513 0 
L 2938 0 
L 2938 2094 
Q 2938 2591 2744 2837 
Q 2550 3084 2163 3084 
Q 1697 3084 1428 2787 
Q 1159 2491 1159 1978 
L 1159 0 
L 581 0 
L 581 3500 
L 1159 3500 
L 1159 2956 
Q 1366 3272 1645 3428 
Q 1925 3584 2291 3584 
Q 2894 3584 3203 3211 
Q 3513 2838 3513 2113 
z
" transform="scale(0.015625)"/>
       <path id="DejaVuSans-75" d="M 544 1381 
L 544 3500 
L 1119 3500 
L 1119 1403 
Q 1119 906 1312 657 
Q 1506 409 1894 409 
Q 2359 409 2629 706 
Q 2900 1003 2900 1516 
L 2900 3500 
L 3475 3500 
L 3475 0 
L 2900 0 
L 2900 538 
Q 2691 219 2414 64 
Q 2138 -91 1772 -91 
Q 1169 -91 856 284 
Q 544 659 544 1381 
z
M 1991 3584 
L 1991 3584 
z
" transform="scale(0.015625)"/>
       <path id="DejaVuSans-62" d="M 3116 1747 
Q 3116 2381 2855 2742 
Q 2594 3103 2138 3103 
Q 1681 3103 1420 2742 
Q 1159 2381 1159 1747 
Q 1159 1113 1420 752 
Q 1681 391 2138 391 
Q 2594 391 2855 752 
Q 3116 1113 3116 1747 
z
M 1159 2969 
Q 1341 3281 1617 3432 
Q 1894 3584 2278 3584 
Q 2916 3584 3314 3078 
Q 3713 2572 3713 1747 
Q 3713 922 3314 415 
Q 2916 -91 2278 -91 
Q 1894 -91 1617 61 
Q 1341 213 1159 525 
L 1159 0 
L 581 0 
L 581 4863 
L 1159 4863 
L 1159 2969 
z
" transform="scale(0.015625)"/>
       <path id="DejaVuSans-72" d="M 2631 2963 
Q 2534 3019 2420 3045 
Q 2306 3072 2169 3072 
Q 1681 3072 1420 2755 
Q 1159 2438 1159 1844 
L 1159 0 
L 581 0 
L 581 3500 
L 1159 3500 
L 1159 2956 
Q 1341 3275 1631 3429 
Q 1922 3584 2338 3584 
Q 2397 3584 2469 3576 
Q 2541 3569 2628 3553 
L 2631 2963 
z
" transform="scale(0.015625)"/>
       <path id="DejaVuSans-20" transform="scale(0.015625)"/>
       <path id="DejaVuSans-6f" d="M 1959 3097 
Q 1497 3097 1228 2736 
Q 959 2375 959 1747 
Q 959 1119 1226 758 
Q 1494 397 1959 397 
Q 2419 397 2687 759 
Q 2956 1122 2956 1747 
Q 2956 2369 2687 2733 
Q 2419 3097 1959 3097 
z
M 1959 3584 
Q 2709 3584 3137 3096 
Q 3566 2609 3566 1747 
Q 3566 888 3137 398 
Q 2709 -91 1959 -91 
Q 1206 -91 779 398 
Q 353 888 353 1747 
Q 353 2609 779 3096 
Q 1206 3584 1959 3584 
z
" transform="scale(0.015625)"/>
       <path id="DejaVuSans-66" d="M 2375 4863 
L 2375 4384 
L 1825 4384 
Q 1516 4384 1395 4259 
Q 1275 4134 1275 3809 
L 1275 3500 
L 2222 3500 
L 2222 3053 
L 1275 3053 
L 1275 0 
L 697 0 
L 697 3053 
L 147 3053 
L 147 3500 
L 697 3500 
L 697 3744 
Q 697 4328 969 4595 
Q 1241 4863 1831 4863 
L 2375 4863 
z
" transform="scale(0.015625)"/>
       <path id="DejaVuSans-41" d="M 2188 4044 
L 1331 1722 
L 3047 1722 
L 2188 4044 
z
M 1831 4666 
L 2547 4666 
L 4325 0 
L 3669 0 
L 3244 1197 
L 1141 1197 
L 716 0 
L 50 0 
L 1831 4666 
z
" transform="scale(0.015625)"/>
       <path id="DejaVuSans-73" d="M 2834 3397 
L 2834 2853 
Q 2591 2978 2328 3040 
Q 2066 3103 1784 3103 
Q 1356 3103 1142 2972 
Q 928 2841 928 2578 
Q 928 2378 1081 2264 
Q 1234 2150 1697 2047 
L 1894 2003 
Q 2506 1872 2764 1633 
Q 3022 1394 3022 966 
Q 3022 478 2636 193 
Q 2250 -91 1575 -91 
Q 1294 -91 989 -36 
Q 684 19 347 128 
L 347 722 
Q 666 556 975 473 
Q 1284 391 1588 391 
Q 1994 391 2212 530 
Q 2431 669 2431 922 
Q 2431 1156 2273 1281 
Q 2116 1406 1581 1522 
L 1381 1569 
Q 847 1681 609 1914 
Q 372 2147 372 2553 
Q 372 3047 722 3315 
Q 1072 3584 1716 3584 
Q 2034 3584 2315 3537 
Q 2597 3491 2834 3397 
z
" transform="scale(0.015625)"/>
      </defs>
      <use xlink:href="#DejaVuSans-6e"/>
      <use xlink:href="#DejaVuSans-75" x="63.378906"/>
      <use xlink:href="#DejaVuSans-6d" x="126.757812"/>
      <use xlink:href="#DejaVuSans-62" x="224.169922"/>
      <use xlink:href="#DejaVuSans-65" x="287.646484"/>
      <use xlink:href="#DejaVuSans-72" x="349.169922"/>
      <use xlink:href="#DejaVuSans-20" x="390.283203"/>
      <use xlink:href="#DejaVuSans-6f" x="422.070312"/>
      <use xlink:href="#DejaVuSans-66" x="483.251953"/>
      <use xlink:href="#DejaVuSans-20" x="518.457031"/>
      <use xlink:href="#DejaVuSans-41" x="550.244141"/>
      <use xlink:href="#DejaVuSans-73" x="618.652344"/>
      <use xlink:href="#DejaVuSans-65" x="670.751953"/>
      <use xlink:href="#DejaVuSans-31" x="732.275391"/>
      <use xlink:href="#DejaVuSans-20" x="795.898438"/>
      <use xlink:href="#DejaVuSans-6e" x="827.685547"/>
      <use xlink:href="#DejaVuSans-6f" x="891.064453"/>
      <use xlink:href="#DejaVuSans-72" x="952.246094"/>
      <use xlink:href="#DejaVuSans-6d" x="991.609375"/>
     </g>
    </g>
   </g>
   <g id="line2d_13">
    <path d="M 61.315564 170.205254 
M 87.045906 157.325666 
L 93.499436 123.66523 
" clip-path="url(#p4d0ede598e)" style="fill: none; stroke: #03051a; stroke-width: 1.5; stroke-linecap: square"/>
   </g>
   <g id="line2d_14">
    <path d="M 67.808365 206.249414 
L 83.655512 174.112507 
L 90.190202 201.676827 
L 96.601843 184.065826 
L 103.055373 172.851241 
L 109.427743 140.895849 
L 115.878655 166.468171 
" clip-path="url(#p4d0ede598e)" style="fill: none; stroke: #03051a; stroke-width: 1.5; stroke-linecap: square"/>
   </g>
   <g id="line2d_15">
    <path d="M 69.156668 192.377497 
L 75.610198 192.761216 
L 81.982568 228.553791 
M 94.80585 172.364086 
L 101.377193 195.193656 
L 107.752181 174.89329 
" clip-path="url(#p4d0ede598e)" style="fill: none; stroke: #160e27; stroke-width: 1.5; stroke-linecap: square"/>
   </g>
   <g id="line2d_16">
    <path d="M 67.604156 173.291683 
L 75.767282 174.396125 
L 83.490574 159.454468 
L 88.27116 164.663027 
L 94.682801 180.33208 
L 101.136331 185.764196 
" clip-path="url(#p4d0ede598e)" style="fill: none; stroke: #160e27; stroke-width: 1.5; stroke-linecap: square"/>
   </g>
   <g id="line2d_17">
    <path d="M 74.096957 181.783536 
L 80.469327 157.365706 
L 89.535686 184.716478 
L 95.989216 182.377465 
L 102.238537 167.912954 
L 108.650178 165.427127 
L 115.022548 128.293206 
L 121.434189 155.050049 
L 127.887719 163.184877 
L 134.2182 178.573649 
M 140.629841 175.373772 
L 156.681197 223.215435 
L 163.011678 204.041533 
L 169.504479 214.769295 
L 176.039169 155.577245 
L 182.411539 172.48087 
L 190.401873 175.036767 
L 195.153661 121.963523 
L 201.565302 133.865463 
L 208.018832 160.922608 
L 214.391202 165.133499 
" clip-path="url(#p4d0ede598e)" style="fill: none; stroke: #2a1636; stroke-width: 1.5; stroke-linecap: square"/>
   </g>
   <g id="line2d_18">
    <path d="M 61.315564 186.851954 
L 68.358158 189.568012 
L 74.180735 224.090313 
L 80.592376 146.50481 
L 87.004017 153.58191 
L 93.337116 171.780167 
L 99.748757 161.40309 
L 106.037349 138.169781 
L 114.200475 98.686837 
L 121.923767 127.63588 
" clip-path="url(#p4d0ede598e)" style="fill: none; stroke: #2a1636; stroke-width: 1.5; stroke-linecap: square"/>
   </g>
   <g id="line2d_19">
    <path d="M 61.315564 221.651533 
L 67.727205 225.095321 
L 74.099575 188.196636 
L 80.511216 154.863195 
L 86.880968 164.572936 
L 93.800513 216.834033 
L 99.746139 129.070653 
L 106.160398 153.241568 
L 112.53015 140.542161 
L 120.536192 78.306391 
M 133.359475 100.622112 
L 139.689956 116.050924 
" clip-path="url(#p4d0ede598e)" style="fill: none; stroke: #2a1636; stroke-width: 1.5; stroke-linecap: square"/>
   </g>
   <g id="line2d_20">
    <path d="M 74.057686 206.490323 
L 80.469327 159.214227 
L 86.922857 168.873918 
L 94.928899 213.091278 
L 101.34054 189.060837 
L 107.710292 124.486053 
L 114.124551 113.394926 
L 120.494303 121.883442 
L 126.905944 118.223103 
L 133.320204 144.90654 
L 139.731845 144.09239 
L 147.397539 133.802066 
L 152.515856 142.040331 
L 160.2758 57.575593 
L 166.768601 52.463798 
L 173.222131 104.05222 
L 179.633772 154.939939 
" clip-path="url(#p4d0ede598e)" style="fill: none; stroke: #3f1b43; stroke-width: 1.5; stroke-linecap: square"/>
   </g>
   <g id="line2d_21">
    <path d="M 66.996764 197.889694 
L 73.411024 149.474456 
L 79.822665 121.576468 
L 86.315466 87.011791 
L 92.727107 65.55026 
L 100.52894 112.520716 
" clip-path="url(#p4d0ede598e)" style="fill: none; stroke: #3f1b43; stroke-width: 1.5; stroke-linecap: square"/>
   </g>
   <g id="line2d_22">
    <path d="M 74.138846 191.012795 
L 84.961926 214.824684 
L 93.572742 159.494508 
L 97.745937 187.746185 
L 104.115689 234.932323 
L 110.611108 187.876315 
L 116.941589 160.73909 
L 123.35323 148.593572 
" clip-path="url(#p4d0ede598e)" style="fill: none; stroke: #541e4e; stroke-width: 1.5; stroke-linecap: square"/>
   </g>
   <g id="line2d_23">
    <path d="M 67.808365 207.740243 
L 74.220006 204.563723 
L 80.634265 183.475233 
L 87.045906 219.789999 
L 94.88701 198.240046 
L 102.942796 136.224496 
L 107.833341 150.368686 
L 114.244982 159.901583 
L 120.659242 147.732708 
L 127.070883 139.511127 
L 133.524413 103.555055 
L 139.894165 103.171336 
M 146.305806 105.063234 
L 162.357162 97.986134 
L 168.852581 167.349055 
L 175.264222 65.223266 
L 181.675863 38.856814 
L 188.087504 59.917943 
L 194.499145 81.155917 
M 213.736686 146.287926 
L 220.067167 197.956428 
L 227.869001 213.852709 
L 234.238753 185.317081 
L 240.773443 129.747999 
L 247.185084 135.687291 
L 253.680503 86.291068 
L 260.173304 46.267582 
L 266.626834 73.768505 
" clip-path="url(#p4d0ede598e)" style="fill: none; stroke: #541e4e; stroke-width: 1.5; stroke-linecap: square"/>
   </g>
   <g id="line2d_24">
    <path d="M 87.127066 219.691566 
L 94.845121 202.15197 
L 101.256762 181.439858 
M 114.082662 201.940425 
L 120.575463 233.810464 
L 126.987104 235.347273 
L 133.359475 235.347273 
L 139.689956 222.340891 
L 146.062326 192.127246 
L 152.473967 182.514269 
L 160.43812 171.997051 
L 166.89165 124.415983 
L 175.282548 145.443745 
L 179.591883 185.400498 
L 186.006142 144.079043 
L 192.375894 206.949783 
L 198.748264 93.301435 
" clip-path="url(#p4d0ede598e)" style="fill: none; stroke: #6d1f56; stroke-width: 1.5; stroke-linecap: square"/>
   </g>
   <g id="line2d_25">
    <path d="M 67.727205 225.283176 
L 74.180735 178.423498 
L 82.06111 170.95267 
L 88.51464 187.789561 
L 95.010059 206.00617 
L 101.379811 204.141299 
" clip-path="url(#p4d0ede598e)" style="fill: none; stroke: #6d1f56; stroke-width: 1.5; stroke-linecap: square"/>
   </g>
   <g id="line2d_26">
    <path d="M 77.283142 183.742168 
L 83.817832 175.57731 
L 90.271362 145.00664 
L 96.643732 145.176811 
L 103.055373 98.917068 
L 109.425125 171.780167 
L 115.920544 172.717774 
L 122.332185 153.795457 
L 128.743826 165.420453 
" clip-path="url(#p4d0ede598e)" style="fill: none; stroke: #6d1f56; stroke-width: 1.5; stroke-linecap: square"/>
   </g>
   <g id="line2d_27">
    <path d="M 67.766476 182.781203 
L 74.220006 122.827723 
L 80.592376 87.992775 
L 87.045906 117.155366 
L 93.538707 187.57935 
L 99.992237 121.713272 
L 106.403878 133.678609 
L 112.734359 123.408305 
L 120.983882 167.88626 
L 129.88792 158.056399 
L 136.380721 167.409115 
L 142.794981 125.924163 
L 149.329671 131.746671 
" clip-path="url(#p4d0ede598e)" style="fill: none; stroke: #841e5a; stroke-width: 1.5; stroke-linecap: square"/>
   </g>
   <g id="line2d_28">
    <path d="M 68.952459 200.589069 
L 75.405989 211.115296 
L 82.671119 180.355437 
L 88.148111 184.853282 
L 94.640912 164.386082 
L 101.013282 172.110498 
L 107.506083 205.28211 
L 113.920342 191.666784 
M 120.290094 190.442223 
L 136.26029 196.892027 
L 142.630042 216.646178 
L 149.044302 187.402506 
L 155.455943 176.848585 
L 161.867584 172.881272 
L 170.559559 196.451585 
L 174.732755 184.059152 
L 181.398348 190.135248 
L 187.639815 205.452281 
L 194.009567 206.210709 
L 201.8114 211.743926 
L 208.264931 215.538066 
" clip-path="url(#p4d0ede598e)" style="fill: none; stroke: #9c1b5b; stroke-width: 1.5; stroke-linecap: square"/>
   </g>
   <g id="line2d_29">
    <path d="M 75.222724 214.568093 
L 80.592376 212.086937 
L 87.087795 197.419222 
L 93.538707 220.896776 
L 102.523906 192.040493 
L 108.977436 184.629725 
L 115.389077 196.811946 
L 121.803336 184.663091 
L 128.214977 168.790501 
L 134.626618 212.485337 
L 140.998988 235.347273 
L 148.188194 193.595386 
M 160.2758 186.65509 
L 168.075016 210.66084 
" clip-path="url(#p4d0ede598e)" style="fill: none; stroke: #9c1b5b; stroke-width: 1.5; stroke-linecap: square"/>
   </g>
   <g id="line2d_30">
    <path d="M 67.729823 192.681135 
L 74.099575 206.977144 
L 80.511216 181.423174 
L 86.964746 134.145744 
L 94.928899 183.46856 
L 101.25938 169.371083 
L 107.671021 127.766011 
L 114.08528 106.828339 
L 121.562474 140.482101 
L 126.950452 195.253716 
L 133.401364 167.392432 
" clip-path="url(#p4d0ede598e)" style="fill: none; stroke: #b41658; stroke-width: 1.5; stroke-linecap: square"/>
   </g>
   <g id="line2d_31">
    <path d="M 67.646045 189.254364 
L 74.057686 203.671828 
L 80.469327 183.46856 
L 86.883586 155.053386 
L 93.418276 210.35887 
L 101.298651 196.441575 
L 107.671021 153.231558 
L 114.082662 168.770481 
L 121.413244 217.795331 
L 126.908563 153.248242 
L 133.443253 122.260487 
L 139.936054 134.382649 
L 146.347695 171.466519 
L 152.759336 190.288735 
L 159.131706 170.295344 
L 166.933539 152.060383 
L 173.303291 147.832809 
L 179.71755 202.83599 
" clip-path="url(#p4d0ede598e)" style="fill: none; stroke: #b41658; stroke-width: 1.5; stroke-linecap: square"/>
   </g>
   <g id="line2d_32">
    <path d="M 61.315564 189.120897 
L 67.727205 159.637986 
L 74.180735 178.526935 
L 82.312444 180.622371 
L 90.454626 221.071284 
L 94.845121 185.05682 
L 101.298651 191.693478 
L 107.710292 108.132981 
L 114.121933 155.17017 
L 120.494303 135.290226 
L 126.866673 136.374647 
L 133.278315 181.212964 
M 139.648067 166.715085 
L 157.005837 195.630761 
" clip-path="url(#p4d0ede598e)" style="fill: none; stroke: #cb1b4f; stroke-width: 1.5; stroke-linecap: square"/>
   </g>
   <g id="line2d_33">
    <path d="M 68.619965 195.660791 
L 74.610097 219.546754 
L 81.061009 212.156674 
L 87.514539 158.32667 
L 94.009958 202.030849 
" clip-path="url(#p4d0ede598e)" style="fill: none; stroke: #cb1b4f; stroke-width: 1.5; stroke-linecap: square"/>
   </g>
   <g id="line2d_34">
    <path d="M 96.614933 184.469564 
L 102.932324 187.045482 
L 109.343965 219.155362 
L 115.758224 152.87787 
L 122.169865 193.255045 
L 128.581506 181.873626 
L 135.035036 182.924681 
L 141.488566 179.748161 
L 147.858318 208.483989 
L 155.699423 174.296024 
L 163.061421 201.476626 
L 168.483434 177.589328 
L 174.895075 159.547895 
" clip-path="url(#p4d0ede598e)" style="fill: none; stroke: #cb1b4f; stroke-width: 1.5; stroke-linecap: square"/>
   </g>
   <g id="line2d_35">
    <path d="M 80.469327 235.347273 
M 86.880968 134.75302 
L 104.403676 218.022892 
L 111.823272 169.44449 
L 117.350007 160.498849 
L 123.803538 190.318765 
L 130.215179 135.720658 
L 136.54566 131.252842 
L 142.957301 185.003433 
L 149.368942 193.278401 
L 155.783201 189.574686 
L 162.317891 172.784508 
L 170.198266 144.85649 
L 176.570636 121.2428 
L 182.982277 178.106514 
L 190.312859 174.239301 
L 195.808178 177.983057 
L 202.342868 162.500858 
L 208.835669 168.720431 
L 215.24731 173.885613 
L 221.658951 181.97039 
L 228.031321 157.118792 
" clip-path="url(#p4d0ede598e)" style="fill: none; stroke: #dd2c45; stroke-width: 1.5; stroke-linecap: square"/>
   </g>
   <g id="line2d_36">
    <path d="M 61.315564 191.683468 
L 69.606975 195.554018 
L 74.138846 157.142148 
L 80.553105 148.006316 
L 86.964746 129.13405 
M 101.013282 145.707343 
L 107.466812 148.306618 
" clip-path="url(#p4d0ede598e)" style="fill: none; stroke: #ea443e; stroke-width: 1.5; stroke-linecap: square"/>
   </g>
   <g id="line2d_37">
    <path d="M 74.261895 188.904013 
L 80.757314 175.72746 
L 87.168955 176.181249 
L 93.580596 205.701198 
L 99.952966 200.388868 
L 106.364607 181.1162 
L 114.205711 138.516796 
L 120.701131 155.754089 
L 128.927091 183.341766 
L 133.566302 160.855874 
L 139.896783 162.080436 
L 146.347695 170.635685 
L 152.720065 157.375716 
L 159.131706 127.709287 
L 165.585236 169.768148 
L 171.996877 170.16855 
L 181.681099 185.423855 
L 185.883093 187.142245 
L 192.519888 182.107194 
L 198.748264 199.454597 
L 205.159906 205.12195 
L 211.574165 155.92426 
L 217.943917 159.09077 
L 224.397447 162.544234 
M 245.26866 185.387151 
L 251.680301 189.387831 
" clip-path="url(#p4d0ede598e)" style="fill: none; stroke: #f06043; stroke-width: 1.5; stroke-linecap: square"/>
   </g>
   <g id="line2d_38">
    <path d="M 67.934032 226.316546 
L 74.549882 200.09524 
L 81.084572 213.291145 
L 87.658533 218.760632 
L 94.193223 215.595457 
L 100.769802 204.399225 
L 107.346381 205.761258 
L 115.268646 171.036087 
L 121.845225 150.438757 
L 128.419186 178.917327 
L 134.995765 171.613333 
L 141.611615 148.840486 
L 148.146305 124.412646 
L 154.762155 109.380899 
L 161.338735 121.473031 
M 167.831536 159.981664 
L 186.330782 149.77142 
L 190.74484 181.009426 
L 197.36069 198.853995 
L 203.937269 170.809193 
L 210.51123 204.63079 
L 217.04592 178.169911 
L 223.541339 123.835401 
L 230.115301 129.581165 
L 236.69188 123.832064 
L 243.349619 130.865787 
L 251.232612 142.417376 
" clip-path="url(#p4d0ede598e)" style="fill: none; stroke: #f47a54; stroke-width: 1.5; stroke-linecap: square"/>
   </g>
   <g id="line2d_39">
    <path d="M 79.937859 206.753253 
L 88.483223 196.17464 
L 92.559551 156.351355 
L 98.890032 163.501862 
L 105.220513 101.272765 
L 111.550994 78.406492 
L 117.920746 24.135378 
L 124.211956 89.751206 
L 130.66025 38.566523 
L 136.872918 64.682723 
L 144.672133 166.905276 
L 151.002614 144.833133 
L 157.374984 55.957303 
L 163.705465 67.0184 
L 170.075217 53.58826 
L 176.447587 164.179208 
L 182.778068 128.396643 
L 189.108549 94.058861 
L 195.52019 138.870484 
" clip-path="url(#p4d0ede598e)" style="fill: none; stroke: #f5946b; stroke-width: 1.5; stroke-linecap: square"/>
   </g>
   <g id="line2d_40">
    <path d="M 67.646045 156.077747 
L 74.018415 203.26175 
L 80.430056 169.180893 
L 88.292105 155.236904 
L 93.091018 201.536686 
L 99.421499 182.147234 
L 105.83314 186.294728 
L 112.166239 80.592017 
L 121.151438 181.433184 
L 127.563079 139.451067 
M 140.34709 135.737341 
" clip-path="url(#p4d0ede598e)" style="fill: none; stroke: #f6ab83; stroke-width: 1.5; stroke-linecap: square"/>
   </g>
   <g id="line2d_41">
    <path d="M 61.315564 117.242119 
L 67.646045 95.35683 
L 74.057686 71.192588 
L 80.388167 139.791408 
L 87.614026 96.264407 
L 93.130289 136.374647 
L 99.544548 168.48019 
L 105.875029 181.359777 
L 112.244781 150.145129 
L 118.656422 88.620071 
L 126.416366 38.903528 
L 132.788736 88.256373 
L 140.786925 46.417733 
L 145.572747 59.277301 
L 151.942499 91.045838 
L 158.31487 103.638472 
L 164.68724 158.313323 
L 171.017721 187.799571 
" clip-path="url(#p4d0ede598e)" style="fill: none; stroke: #f6ab83; stroke-width: 1.5; stroke-linecap: square"/>
   </g>
   <g id="line2d_42">
    <path d="M 61.315564 191.823608 
L 67.685316 186.408176 
M 86.757919 95.683825 
L 93.0884 21.492727 
L 99.46077 78.479899 
L 107.178825 133.795393 
L 113.593084 151.046032 
L 120.004725 144.539505 
L 126.335206 188.406847 
" clip-path="url(#p4d0ede598e)" style="fill: none; stroke: #f6c19f; stroke-width: 1.5; stroke-linecap: square"/>
   </g>
   <g id="line2d_43">
    <path d="M 61.315564 162.270627 
L 67.687934 174.636366 
L 74.018415 151.710032 
L 80.430056 155.373707 
L 86.802426 119.164047 
L 93.132907 81.953383 
L 101.788229 119.033917 
L 105.875029 82.153584 
L 112.20551 148.900547 
L 120.004725 111.556415 
L 126.335206 42.480449 
L 132.665687 124.552787 
L 139.038057 118.560108 
L 145.449698 53.925265 
L 153.311747 86.210988 
L 158.11066 122.720949 
L 164.441141 137.559169 
L 170.852783 148.536849 
L 177.185882 159.801483 
L 186.17108 190.355469 
" clip-path="url(#p4d0ede598e)" style="fill: none; stroke: #f6c19f; stroke-width: 1.5; stroke-linecap: square"/>
   </g>
   <g id="line2d_44">
    <path d="M 78.298951 158.593604 
L 83.655512 138.837117 
L 90.109042 133.681946 
L 96.520683 150.909229 
L 102.893053 163.682043 
L 109.223534 112.063591 
L 115.554015 85.650426 
L 122.007545 152.140464 
L 128.338026 134.896497 
L 134.668507 153.558553 
" clip-path="url(#p4d0ede598e)" style="fill: none; stroke: #f8d6be; stroke-width: 1.5; stroke-linecap: square"/>
   </g>
   <g id="line2d_45">
    <path d="M 73.976526 204.593086 
L 80.388167 194.409536 
L 86.799808 154.439437 
L 95.025768 115.096634 
L 99.583819 128.133045 
L 105.956189 149.117431 
M 118.779471 129.404321 
L 126.743624 139.200816 
L 133.155265 155.970973 
" clip-path="url(#p4d0ede598e)" style="fill: none; stroke: #f8d6be; stroke-width: 1.5; stroke-linecap: square"/>
   </g>
   <g id="line2d_46">
    <path d="M 61.315564 157.659334 
L 68.070171 116.895105 
L 73.976526 63.558262 
L 80.348896 147.956266 
L 86.718648 108.213061 
L 93.130289 206.371203 
L 103.136533 198.420226 
L 109.467014 93.521656 
L 115.797495 62.013379 
L 122.127976 140.021639 
L 128.542235 83.217985 
L 134.953876 63.561599 
L 141.365517 47.001652 
L 147.695998 52.006673 
L 155.12083 98.166315 
M 168.239954 96.424568 
" clip-path="url(#p4d0ede598e)" style="fill: none; stroke: #f8d6be; stroke-width: 1.5; stroke-linecap: square"/>
   </g>
   <g id="line2d_47">
    <path d="M 61.315564 153.875538 
L 67.646045 109.050568 
L 74.057686 98.693511 
L 81.81763 137.629239 
L 88.19 113.121319 
L 94.520481 104.148984 
L 100.890233 109.083935 
L 107.87523 89.551005 
L 113.716133 153.451779 
L 120.127774 148.440085 
L 126.539415 163.535229 
L 132.911785 151.846836 
L 139.281537 167.69607 
L 147.002211 137.575852 
L 153.413852 101.836664 
" clip-path="url(#p4d0ede598e)" style="fill: none; stroke: #faebdd; stroke-width: 1.5; stroke-linecap: square"/>
   </g>
   <g id="line2d_48">
    <path d="M 67.687934 217.364565 
L 74.057686 193.962421 
L 81.89879 208.985159 
L 88.229271 202.821308 
L 94.960316 195.106902 
L 100.890233 195.697495 
L 107.220714 159.237584 
L 113.593084 128.666914 
L 119.965454 132.624218 
L 126.377095 138.823771 
M 132.707576 145.927564 
L 148.717043 142.56419 
L 155.128685 176.144545 
L 161.582215 174.699763 
L 169.967877 150.181832 
L 174.366226 165.490524 
L 180.696707 161.997019 
L 187.108348 184.869966 
L 193.399558 150.321973 
" clip-path="url(#p4d0ede598e)" style="fill: none; stroke: #faebdd; stroke-width: 1.5; stroke-linecap: square"/>
   </g>
   <g id="line2d_49">
    <path d="M 67.646045 206.853353 
L 73.976526 196.1346 
M 86.721266 204.653146 
L 93.132907 156.581586 
L 99.544548 166.458161 
L 105.875029 174.729793 
L 113.299861 198.109915 
L 118.65904 183.972399 
" clip-path="url(#p4d0ede598e)" style="fill: none; stroke: #faebdd; stroke-width: 1.5; stroke-linecap: square"/>
   </g>
   <g id="line2d_50">
    <path d="M 61.315564 235.347273 
L 63.987058 218.558092 
L 66.658553 205.133234 
L 69.330048 194.398535 
L 72.001543 185.814922 
L 74.673038 178.951348 
L 77.344533 173.463141 
L 80.016027 169.074696 
L 82.687522 165.565635 
L 85.359017 162.759742 
L 88.030512 160.516111 
L 90.702007 158.722074 
L 93.373502 157.287537 
L 96.044996 156.140461 
L 98.716491 155.223244 
L 101.387986 154.489825 
L 104.059481 153.903373 
L 106.730976 153.434438 
L 109.402471 153.059471 
L 112.073965 152.759642 
L 114.74546 152.519895 
L 117.416955 152.32819 
L 120.08845 152.1749 
L 122.759945 152.052327 
L 125.43144 151.954317 
L 128.102934 151.875946 
L 130.774429 151.813279 
L 133.445924 151.76317 
L 136.117419 151.723103 
L 138.788914 151.691064 
L 141.460409 151.665445 
L 144.131903 151.64496 
L 146.803398 151.62858 
L 149.474893 151.615483 
L 152.146388 151.60501 
L 154.817883 151.596635 
L 157.489378 151.589939 
L 160.160872 151.584584 
L 162.832367 151.580303 
L 165.503862 151.576879 
L 168.175357 151.574142 
L 170.846852 151.571953 
L 173.518347 151.570202 
L 176.189841 151.568803 
L 178.861336 151.567684 
L 181.532831 151.566789 
L 184.204326 151.566073 
L 186.875821 151.565501 
L 189.547316 151.565044 
L 192.218811 151.564678 
" clip-path="url(#p4d0ede598e)" style="fill: none; stroke: #000000; stroke-width: 3; stroke-linecap: square"/>
   </g>
   <g id="patch_3">
    <path d="M 51.05 246.04 
L 51.05 10.8 
" style="fill: none; stroke: #000000; stroke-width: 0.8; stroke-linejoin: miter; stroke-linecap: square"/>
   </g>
   <g id="patch_4">
    <path d="M 276.892398 246.04 
L 276.892398 10.8 
" style="fill: none; stroke: #000000; stroke-width: 0.8; stroke-linejoin: miter; stroke-linecap: square"/>
   </g>
   <g id="patch_5">
    <path d="M 51.05 246.04 
L 276.892398 246.04 
" style="fill: none; stroke: #000000; stroke-width: 0.8; stroke-linejoin: miter; stroke-linecap: square"/>
   </g>
   <g id="patch_6">
    <path d="M 51.05 10.8 
L 276.892398 10.8 
" style="fill: none; stroke: #000000; stroke-width: 0.8; stroke-linejoin: miter; stroke-linecap: square"/>
   </g>
   <g id="legend_1">
    <g id="patch_7">
     <path d="M 203.589273 48.15625 
L 269.892398 48.15625 
Q 271.892398 48.15625 271.892398 46.15625 
L 271.892398 17.8 
Q 271.892398 15.8 269.892398 15.8 
L 203.589273 15.8 
Q 201.589273 15.8 201.589273 17.8 
L 201.589273 46.15625 
Q 201.589273 48.15625 203.589273 48.15625 
z
" style="fill: #ffffff; opacity: 0.8; stroke: #cccccc; stroke-linejoin: miter"/>
    </g>
    <g id="PathCollection_1">
     <defs>
      <path id="m207e6f669d" d="M 0 3 
C 0.795609 3 1.55874 2.683901 2.12132 2.12132 
C 2.683901 1.55874 3 0.795609 3 0 
C 3 -0.795609 2.683901 -1.55874 2.12132 -2.12132 
C 1.55874 -2.683901 0.795609 -3 0 -3 
C -0.795609 -3 -1.55874 -2.683901 -2.12132 -2.12132 
C -2.683901 -1.55874 -3 -0.795609 -3 0 
C -3 0.795609 -2.683901 1.55874 -2.12132 2.12132 
C -1.55874 2.683901 -0.795609 3 0 3 
z
" style="stroke: #000000"/>
     </defs>
     <g>
      <use xlink:href="#m207e6f669d" x="215.589273" y="24.773438" style="stroke: #000000"/>
     </g>
    </g>
    <g id="text_15">
     <!-- binned -->
     <g transform="translate(233.589273 27.398438)scale(0.1 -0.1)">
      <defs>
       <path id="DejaVuSans-64" d="M 2906 2969 
L 2906 4863 
L 3481 4863 
L 3481 0 
L 2906 0 
L 2906 525 
Q 2725 213 2448 61 
Q 2172 -91 1784 -91 
Q 1150 -91 751 415 
Q 353 922 353 1747 
Q 353 2572 751 3078 
Q 1150 3584 1784 3584 
Q 2172 3584 2448 3432 
Q 2725 3281 2906 2969 
z
M 947 1747 
Q 947 1113 1208 752 
Q 1469 391 1925 391 
Q 2381 391 2643 752 
Q 2906 1113 2906 1747 
Q 2906 2381 2643 2742 
Q 2381 3103 1925 3103 
Q 1469 3103 1208 2742 
Q 947 2381 947 1747 
z
" transform="scale(0.015625)"/>
      </defs>
      <use xlink:href="#DejaVuSans-62"/>
      <use xlink:href="#DejaVuSans-69" x="63.476562"/>
      <use xlink:href="#DejaVuSans-6e" x="91.259766"/>
      <use xlink:href="#DejaVuSans-6e" x="154.638672"/>
      <use xlink:href="#DejaVuSans-65" x="218.017578"/>
      <use xlink:href="#DejaVuSans-64" x="279.541016"/>
     </g>
    </g>
    <g id="line2d_51">
     <path d="M 205.589273 38.576562 
L 215.589273 38.576562 
L 225.589273 38.576562 
" style="fill: none; stroke: #000000; stroke-width: 3; stroke-linecap: square"/>
    </g>
    <g id="text_16">
     <!-- fit -->
     <g transform="translate(233.589273 42.076562)scale(0.1 -0.1)">
      <use xlink:href="#DejaVuSans-66"/>
      <use xlink:href="#DejaVuSans-69" x="35.205078"/>
      <use xlink:href="#DejaVuSans-74" x="62.988281"/>
     </g>
    </g>
   </g>
   <g id="PathCollection_2">
    <g clip-path="url(#p4d0ede598e)">
     <use xlink:href="#m207e6f669d" x="67.860726" y="177.324795" style="stroke: #000000"/>
     <use xlink:href="#m207e6f669d" x="80.951051" y="169.61918" style="stroke: #000000"/>
     <use xlink:href="#m207e6f669d" x="94.041375" y="165.658143" style="stroke: #000000"/>
     <use xlink:href="#m207e6f669d" x="107.1317" y="158.371034" style="stroke: #000000"/>
     <use xlink:href="#m207e6f669d" x="120.222025" y="144.224255" style="stroke: #000000"/>
     <use xlink:href="#m207e6f669d" x="133.312349" y="150.010902" style="stroke: #000000"/>
     <use xlink:href="#m207e6f669d" x="146.402674" y="145.223376" style="stroke: #000000"/>
     <use xlink:href="#m207e6f669d" x="159.492999" y="145.029514" style="stroke: #000000"/>
     <use xlink:href="#m207e6f669d" x="172.583323" y="147.398089" style="stroke: #000000"/>
     <use xlink:href="#m207e6f669d" x="185.673648" y="159.262196" style="stroke: #000000"/>
     <use xlink:href="#m207e6f669d" x="198.763973" y="165.075878" style="stroke: #000000"/>
    </g>
   </g>
  </g>
 </g>
 <defs>
  <clipPath id="p4d0ede598e">
   <rect x="51.05" y="10.8" width="225.842398" height="235.24"/>
  </clipPath>
 </defs>
</svg>
