<?xml version="1.0" encoding="utf-8" standalone="no"?>
<!DOCTYPE svg PUBLIC "-//W3C//DTD SVG 1.1//EN"
  "http://www.w3.org/Graphics/SVG/1.1/DTD/svg11.dtd">
<svg xmlns:xlink="http://www.w3.org/1999/xlink" width="288pt" height="288pt" viewBox="0 0 288 288" xmlns="http://www.w3.org/2000/svg" version="1.1">
 <metadata>
  <rdf:RDF xmlns:dc="http://purl.org/dc/elements/1.1/" xmlns:cc="http://creativecommons.org/ns#" xmlns:rdf="http://www.w3.org/1999/02/22-rdf-syntax-ns#">
   <cc:Work>
    <dc:type rdf:resource="http://purl.org/dc/dcmitype/StillImage"/>
    <dc:date>2023-02-04T14:55:58.912342</dc:date>
    <dc:format>image/svg+xml</dc:format>
    <dc:creator>
     <cc:Agent>
      <dc:title>Matplotlib v3.6.3, https://matplotlib.org/</dc:title>
     </cc:Agent>
    </dc:creator>
   </cc:Work>
  </rdf:RDF>
 </metadata>
 <defs>
  <style type="text/css">*{stroke-linejoin: round; stroke-linecap: butt}</style>
 </defs>
 <g id="figure_1">
  <g id="patch_1">
   <path d="M 0 288 
L 288 288 
L 288 0 
L 0 0 
z
" style="fill: #ffffff"/>
  </g>
  <g id="axes_1">
   <g id="patch_2">
    <path d="M 50.87 246.04 
L 276.914898 246.04 
L 276.914898 10.8 
L 50.87 10.8 
z
" style="fill: #ffffff"/>
   </g>
   <g id="matplotlib.axis_1">
    <g id="xtick_1">
     <g id="line2d_1">
      <defs>
       <path id="m517256aa11" d="M 0 0 
L 0 3.5 
" style="stroke: #000000; stroke-width: 0.8"/>
      </defs>
      <g>
       <use xlink:href="#m517256aa11" x="61.144768" y="246.04" style="stroke: #000000; stroke-width: 0.8"/>
      </g>
     </g>
     <g id="text_1">
      <!-- 0 -->
      <g transform="translate(57.963518 260.638438) scale(0.1 -0.1)">
       <defs>
        <path id="DejaVuSans-30" d="M 2034 4250 
Q 1547 4250 1301 3770 
Q 1056 3291 1056 2328 
Q 1056 1369 1301 889 
Q 1547 409 2034 409 
Q 2525 409 2770 889 
Q 3016 1369 3016 2328 
Q 3016 3291 2770 3770 
Q 2525 4250 2034 4250 
z
M 2034 4750 
Q 2819 4750 3233 4129 
Q 3647 3509 3647 2328 
Q 3647 1150 3233 529 
Q 2819 -91 2034 -91 
Q 1250 -91 836 529 
Q 422 1150 422 2328 
Q 422 3509 836 4129 
Q 1250 4750 2034 4750 
z
" transform="scale(0.015625)"/>
       </defs>
       <use xlink:href="#DejaVuSans-30"/>
      </g>
     </g>
    </g>
    <g id="xtick_2">
     <g id="line2d_2">
      <g>
       <use xlink:href="#m517256aa11" x="113.553016" y="246.04" style="stroke: #000000; stroke-width: 0.8"/>
      </g>
     </g>
     <g id="text_2">
      <!-- 20 -->
      <g transform="translate(107.190516 260.638438) scale(0.1 -0.1)">
       <defs>
        <path id="DejaVuSans-32" d="M 1228 531 
L 3431 531 
L 3431 0 
L 469 0 
L 469 531 
Q 828 903 1448 1529 
Q 2069 2156 2228 2338 
Q 2531 2678 2651 2914 
Q 2772 3150 2772 3378 
Q 2772 3750 2511 3984 
Q 2250 4219 1831 4219 
Q 1534 4219 1204 4116 
Q 875 4013 500 3803 
L 500 4441 
Q 881 4594 1212 4672 
Q 1544 4750 1819 4750 
Q 2544 4750 2975 4387 
Q 3406 4025 3406 3419 
Q 3406 3131 3298 2873 
Q 3191 2616 2906 2266 
Q 2828 2175 2409 1742 
Q 1991 1309 1228 531 
z
" transform="scale(0.015625)"/>
       </defs>
       <use xlink:href="#DejaVuSans-32"/>
       <use xlink:href="#DejaVuSans-30" x="63.623047"/>
      </g>
     </g>
    </g>
    <g id="xtick_3">
     <g id="line2d_3">
      <g>
       <use xlink:href="#m517256aa11" x="165.961264" y="246.04" style="stroke: #000000; stroke-width: 0.8"/>
      </g>
     </g>
     <g id="text_3">
      <!-- 40 -->
      <g transform="translate(159.598764 260.638438) scale(0.1 -0.1)">
       <defs>
        <path id="DejaVuSans-34" d="M 2419 4116 
L 825 1625 
L 2419 1625 
L 2419 4116 
z
M 2253 4666 
L 3047 4666 
L 3047 1625 
L 3713 1625 
L 3713 1100 
L 3047 1100 
L 3047 0 
L 2419 0 
L 2419 1100 
L 313 1100 
L 313 1709 
L 2253 4666 
z
" transform="scale(0.015625)"/>
       </defs>
       <use xlink:href="#DejaVuSans-34"/>
       <use xlink:href="#DejaVuSans-30" x="63.623047"/>
      </g>
     </g>
    </g>
    <g id="xtick_4">
     <g id="line2d_4">
      <g>
       <use xlink:href="#m517256aa11" x="218.369513" y="246.04" style="stroke: #000000; stroke-width: 0.8"/>
      </g>
     </g>
     <g id="text_4">
      <!-- 60 -->
      <g transform="translate(212.007013 260.638438) scale(0.1 -0.1)">
       <defs>
        <path id="DejaVuSans-36" d="M 2113 2584 
Q 1688 2584 1439 2293 
Q 1191 2003 1191 1497 
Q 1191 994 1439 701 
Q 1688 409 2113 409 
Q 2538 409 2786 701 
Q 3034 994 3034 1497 
Q 3034 2003 2786 2293 
Q 2538 2584 2113 2584 
z
M 3366 4563 
L 3366 3988 
Q 3128 4100 2886 4159 
Q 2644 4219 2406 4219 
Q 1781 4219 1451 3797 
Q 1122 3375 1075 2522 
Q 1259 2794 1537 2939 
Q 1816 3084 2150 3084 
Q 2853 3084 3261 2657 
Q 3669 2231 3669 1497 
Q 3669 778 3244 343 
Q 2819 -91 2113 -91 
Q 1303 -91 875 529 
Q 447 1150 447 2328 
Q 447 3434 972 4092 
Q 1497 4750 2381 4750 
Q 2619 4750 2861 4703 
Q 3103 4656 3366 4563 
z
" transform="scale(0.015625)"/>
       </defs>
       <use xlink:href="#DejaVuSans-36"/>
       <use xlink:href="#DejaVuSans-30" x="63.623047"/>
      </g>
     </g>
    </g>
    <g id="xtick_5">
     <g id="line2d_5">
      <g>
       <use xlink:href="#m517256aa11" x="270.777761" y="246.04" style="stroke: #000000; stroke-width: 0.8"/>
      </g>
     </g>
     <g id="text_5">
      <!-- 80 -->
      <g transform="translate(264.415261 260.638438) scale(0.1 -0.1)">
       <defs>
        <path id="DejaVuSans-38" d="M 2034 2216 
Q 1584 2216 1326 1975 
Q 1069 1734 1069 1313 
Q 1069 891 1326 650 
Q 1584 409 2034 409 
Q 2484 409 2743 651 
Q 3003 894 3003 1313 
Q 3003 1734 2745 1975 
Q 2488 2216 2034 2216 
z
M 1403 2484 
Q 997 2584 770 2862 
Q 544 3141 544 3541 
Q 544 4100 942 4425 
Q 1341 4750 2034 4750 
Q 2731 4750 3128 4425 
Q 3525 4100 3525 3541 
Q 3525 3141 3298 2862 
Q 3072 2584 2669 2484 
Q 3125 2378 3379 2068 
Q 3634 1759 3634 1313 
Q 3634 634 3220 271 
Q 2806 -91 2034 -91 
Q 1263 -91 848 271 
Q 434 634 434 1313 
Q 434 1759 690 2068 
Q 947 2378 1403 2484 
z
M 1172 3481 
Q 1172 3119 1398 2916 
Q 1625 2713 2034 2713 
Q 2441 2713 2670 2916 
Q 2900 3119 2900 3481 
Q 2900 3844 2670 4047 
Q 2441 4250 2034 4250 
Q 1625 4250 1398 4047 
Q 1172 3844 1172 3481 
z
" transform="scale(0.015625)"/>
       </defs>
       <use xlink:href="#DejaVuSans-38"/>
       <use xlink:href="#DejaVuSans-30" x="63.623047"/>
      </g>
     </g>
    </g>
    <g id="text_6">
     <!-- time -->
     <g transform="translate(152.596355 274.316562) scale(0.1 -0.1)">
      <defs>
       <path id="DejaVuSans-74" d="M 1172 4494 
L 1172 3500 
L 2356 3500 
L 2356 3053 
L 1172 3053 
L 1172 1153 
Q 1172 725 1289 603 
Q 1406 481 1766 481 
L 2356 481 
L 2356 0 
L 1766 0 
Q 1100 0 847 248 
Q 594 497 594 1153 
L 594 3053 
L 172 3053 
L 172 3500 
L 594 3500 
L 594 4494 
L 1172 4494 
z
" transform="scale(0.015625)"/>
       <path id="DejaVuSans-69" d="M 603 3500 
L 1178 3500 
L 1178 0 
L 603 0 
L 603 3500 
z
M 603 4863 
L 1178 4863 
L 1178 4134 
L 603 4134 
L 603 4863 
z
" transform="scale(0.015625)"/>
       <path id="DejaVuSans-6d" d="M 3328 2828 
Q 3544 3216 3844 3400 
Q 4144 3584 4550 3584 
Q 5097 3584 5394 3201 
Q 5691 2819 5691 2113 
L 5691 0 
L 5113 0 
L 5113 2094 
Q 5113 2597 4934 2840 
Q 4756 3084 4391 3084 
Q 3944 3084 3684 2787 
Q 3425 2491 3425 1978 
L 3425 0 
L 2847 0 
L 2847 2094 
Q 2847 2600 2669 2842 
Q 2491 3084 2119 3084 
Q 1678 3084 1418 2786 
Q 1159 2488 1159 1978 
L 1159 0 
L 581 0 
L 581 3500 
L 1159 3500 
L 1159 2956 
Q 1356 3278 1631 3431 
Q 1906 3584 2284 3584 
Q 2666 3584 2933 3390 
Q 3200 3197 3328 2828 
z
" transform="scale(0.015625)"/>
       <path id="DejaVuSans-65" d="M 3597 1894 
L 3597 1613 
L 953 1613 
Q 991 1019 1311 708 
Q 1631 397 2203 397 
Q 2534 397 2845 478 
Q 3156 559 3463 722 
L 3463 178 
Q 3153 47 2828 -22 
Q 2503 -91 2169 -91 
Q 1331 -91 842 396 
Q 353 884 353 1716 
Q 353 2575 817 3079 
Q 1281 3584 2069 3584 
Q 2775 3584 3186 3129 
Q 3597 2675 3597 1894 
z
M 3022 2063 
Q 3016 2534 2758 2815 
Q 2500 3097 2075 3097 
Q 1594 3097 1305 2825 
Q 1016 2553 972 2059 
L 3022 2063 
z
" transform="scale(0.015625)"/>
      </defs>
      <use xlink:href="#DejaVuSans-74"/>
      <use xlink:href="#DejaVuSans-69" x="39.208984"/>
      <use xlink:href="#DejaVuSans-6d" x="66.992188"/>
      <use xlink:href="#DejaVuSans-65" x="164.404297"/>
     </g>
    </g>
   </g>
   <g id="matplotlib.axis_2">
    <g id="ytick_1">
     <g id="line2d_6">
      <defs>
       <path id="m238ef9b78f" d="M 0 0 
L -3.5 0 
" style="stroke: #000000; stroke-width: 0.8"/>
      </defs>
      <g>
       <use xlink:href="#m238ef9b78f" x="50.87" y="235.347273" style="stroke: #000000; stroke-width: 0.8"/>
      </g>
     </g>
     <g id="text_7">
      <!-- 0 -->
      <g transform="translate(37.5075 239.146491) scale(0.1 -0.1)">
       <use xlink:href="#DejaVuSans-30"/>
      </g>
     </g>
    </g>
    <g id="ytick_2">
     <g id="line2d_7">
      <g>
       <use xlink:href="#m238ef9b78f" x="50.87" y="201.980465" style="stroke: #000000; stroke-width: 0.8"/>
      </g>
     </g>
     <g id="text_8">
      <!-- 100 -->
      <g transform="translate(24.7825 205.779684) scale(0.1 -0.1)">
       <defs>
        <path id="DejaVuSans-31" d="M 794 531 
L 1825 531 
L 1825 4091 
L 703 3866 
L 703 4441 
L 1819 4666 
L 2450 4666 
L 2450 531 
L 3481 531 
L 3481 0 
L 794 0 
L 794 531 
z
" transform="scale(0.015625)"/>
       </defs>
       <use xlink:href="#DejaVuSans-31"/>
       <use xlink:href="#DejaVuSans-30" x="63.623047"/>
       <use xlink:href="#DejaVuSans-30" x="127.246094"/>
      </g>
     </g>
    </g>
    <g id="ytick_3">
     <g id="line2d_8">
      <g>
       <use xlink:href="#m238ef9b78f" x="50.87" y="168.613657" style="stroke: #000000; stroke-width: 0.8"/>
      </g>
     </g>
     <g id="text_9">
      <!-- 200 -->
      <g transform="translate(24.7825 172.412876) scale(0.1 -0.1)">
       <use xlink:href="#DejaVuSans-32"/>
       <use xlink:href="#DejaVuSans-30" x="63.623047"/>
       <use xlink:href="#DejaVuSans-30" x="127.246094"/>
      </g>
     </g>
    </g>
    <g id="ytick_4">
     <g id="line2d_9">
      <g>
       <use xlink:href="#m238ef9b78f" x="50.87" y="135.246849" style="stroke: #000000; stroke-width: 0.8"/>
      </g>
     </g>
     <g id="text_10">
      <!-- 300 -->
      <g transform="translate(24.7825 139.046068) scale(0.1 -0.1)">
       <defs>
        <path id="DejaVuSans-33" d="M 2597 2516 
Q 3050 2419 3304 2112 
Q 3559 1806 3559 1356 
Q 3559 666 3084 287 
Q 2609 -91 1734 -91 
Q 1441 -91 1130 -33 
Q 819 25 488 141 
L 488 750 
Q 750 597 1062 519 
Q 1375 441 1716 441 
Q 2309 441 2620 675 
Q 2931 909 2931 1356 
Q 2931 1769 2642 2001 
Q 2353 2234 1838 2234 
L 1294 2234 
L 1294 2753 
L 1863 2753 
Q 2328 2753 2575 2939 
Q 2822 3125 2822 3475 
Q 2822 3834 2567 4026 
Q 2313 4219 1838 4219 
Q 1578 4219 1281 4162 
Q 984 4106 628 3988 
L 628 4550 
Q 988 4650 1302 4700 
Q 1616 4750 1894 4750 
Q 2613 4750 3031 4423 
Q 3450 4097 3450 3541 
Q 3450 3153 3228 2886 
Q 3006 2619 2597 2516 
z
" transform="scale(0.015625)"/>
       </defs>
       <use xlink:href="#DejaVuSans-33"/>
       <use xlink:href="#DejaVuSans-30" x="63.623047"/>
       <use xlink:href="#DejaVuSans-30" x="127.246094"/>
      </g>
     </g>
    </g>
    <g id="ytick_5">
     <g id="line2d_10">
      <g>
       <use xlink:href="#m238ef9b78f" x="50.87" y="101.880041" style="stroke: #000000; stroke-width: 0.8"/>
      </g>
     </g>
     <g id="text_11">
      <!-- 400 -->
      <g transform="translate(24.7825 105.67926) scale(0.1 -0.1)">
       <use xlink:href="#DejaVuSans-34"/>
       <use xlink:href="#DejaVuSans-30" x="63.623047"/>
       <use xlink:href="#DejaVuSans-30" x="127.246094"/>
      </g>
     </g>
    </g>
    <g id="ytick_6">
     <g id="line2d_11">
      <g>
       <use xlink:href="#m238ef9b78f" x="50.87" y="68.513233" style="stroke: #000000; stroke-width: 0.8"/>
      </g>
     </g>
     <g id="text_12">
      <!-- 500 -->
      <g transform="translate(24.7825 72.312452) scale(0.1 -0.1)">
       <defs>
        <path id="DejaVuSans-35" d="M 691 4666 
L 3169 4666 
L 3169 4134 
L 1269 4134 
L 1269 2991 
Q 1406 3038 1543 3061 
Q 1681 3084 1819 3084 
Q 2600 3084 3056 2656 
Q 3513 2228 3513 1497 
Q 3513 744 3044 326 
Q 2575 -91 1722 -91 
Q 1428 -91 1123 -41 
Q 819 9 494 109 
L 494 744 
Q 775 591 1075 516 
Q 1375 441 1709 441 
Q 2250 441 2565 725 
Q 2881 1009 2881 1497 
Q 2881 1984 2565 2268 
Q 2250 2553 1709 2553 
Q 1456 2553 1204 2497 
Q 953 2441 691 2322 
L 691 4666 
z
" transform="scale(0.015625)"/>
       </defs>
       <use xlink:href="#DejaVuSans-35"/>
       <use xlink:href="#DejaVuSans-30" x="63.623047"/>
       <use xlink:href="#DejaVuSans-30" x="127.246094"/>
      </g>
     </g>
    </g>
    <g id="ytick_7">
     <g id="line2d_12">
      <g>
       <use xlink:href="#m238ef9b78f" x="50.87" y="35.146425" style="stroke: #000000; stroke-width: 0.8"/>
      </g>
     </g>
     <g id="text_13">
      <!-- 600 -->
      <g transform="translate(24.7825 38.945644) scale(0.1 -0.1)">
       <use xlink:href="#DejaVuSans-36"/>
       <use xlink:href="#DejaVuSans-30" x="63.623047"/>
       <use xlink:href="#DejaVuSans-30" x="127.246094"/>
      </g>
     </g>
    </g>
    <g id="text_14">
     <!-- number of Ase1 norm -->
     <g transform="translate(18.702813 182.87) rotate(-90) scale(0.1 -0.1)">
      <defs>
       <path id="DejaVuSans-6e" d="M 3513 2113 
L 3513 0 
L 2938 0 
L 2938 2094 
Q 2938 2591 2744 2837 
Q 2550 3084 2163 3084 
Q 1697 3084 1428 2787 
Q 1159 2491 1159 1978 
L 1159 0 
L 581 0 
L 581 3500 
L 1159 3500 
L 1159 2956 
Q 1366 3272 1645 3428 
Q 1925 3584 2291 3584 
Q 2894 3584 3203 3211 
Q 3513 2838 3513 2113 
z
" transform="scale(0.015625)"/>
       <path id="DejaVuSans-75" d="M 544 1381 
L 544 3500 
L 1119 3500 
L 1119 1403 
Q 1119 906 1312 657 
Q 1506 409 1894 409 
Q 2359 409 2629 706 
Q 2900 1003 2900 1516 
L 2900 3500 
L 3475 3500 
L 3475 0 
L 2900 0 
L 2900 538 
Q 2691 219 2414 64 
Q 2138 -91 1772 -91 
Q 1169 -91 856 284 
Q 544 659 544 1381 
z
M 1991 3584 
L 1991 3584 
z
" transform="scale(0.015625)"/>
       <path id="DejaVuSans-62" d="M 3116 1747 
Q 3116 2381 2855 2742 
Q 2594 3103 2138 3103 
Q 1681 3103 1420 2742 
Q 1159 2381 1159 1747 
Q 1159 1113 1420 752 
Q 1681 391 2138 391 
Q 2594 391 2855 752 
Q 3116 1113 3116 1747 
z
M 1159 2969 
Q 1341 3281 1617 3432 
Q 1894 3584 2278 3584 
Q 2916 3584 3314 3078 
Q 3713 2572 3713 1747 
Q 3713 922 3314 415 
Q 2916 -91 2278 -91 
Q 1894 -91 1617 61 
Q 1341 213 1159 525 
L 1159 0 
L 581 0 
L 581 4863 
L 1159 4863 
L 1159 2969 
z
" transform="scale(0.015625)"/>
       <path id="DejaVuSans-72" d="M 2631 2963 
Q 2534 3019 2420 3045 
Q 2306 3072 2169 3072 
Q 1681 3072 1420 2755 
Q 1159 2438 1159 1844 
L 1159 0 
L 581 0 
L 581 3500 
L 1159 3500 
L 1159 2956 
Q 1341 3275 1631 3429 
Q 1922 3584 2338 3584 
Q 2397 3584 2469 3576 
Q 2541 3569 2628 3553 
L 2631 2963 
z
" transform="scale(0.015625)"/>
       <path id="DejaVuSans-20" transform="scale(0.015625)"/>
       <path id="DejaVuSans-6f" d="M 1959 3097 
Q 1497 3097 1228 2736 
Q 959 2375 959 1747 
Q 959 1119 1226 758 
Q 1494 397 1959 397 
Q 2419 397 2687 759 
Q 2956 1122 2956 1747 
Q 2956 2369 2687 2733 
Q 2419 3097 1959 3097 
z
M 1959 3584 
Q 2709 3584 3137 3096 
Q 3566 2609 3566 1747 
Q 3566 888 3137 398 
Q 2709 -91 1959 -91 
Q 1206 -91 779 398 
Q 353 888 353 1747 
Q 353 2609 779 3096 
Q 1206 3584 1959 3584 
z
" transform="scale(0.015625)"/>
       <path id="DejaVuSans-66" d="M 2375 4863 
L 2375 4384 
L 1825 4384 
Q 1516 4384 1395 4259 
Q 1275 4134 1275 3809 
L 1275 3500 
L 2222 3500 
L 2222 3053 
L 1275 3053 
L 1275 0 
L 697 0 
L 697 3053 
L 147 3053 
L 147 3500 
L 697 3500 
L 697 3744 
Q 697 4328 969 4595 
Q 1241 4863 1831 4863 
L 2375 4863 
z
" transform="scale(0.015625)"/>
       <path id="DejaVuSans-41" d="M 2188 4044 
L 1331 1722 
L 3047 1722 
L 2188 4044 
z
M 1831 4666 
L 2547 4666 
L 4325 0 
L 3669 0 
L 3244 1197 
L 1141 1197 
L 716 0 
L 50 0 
L 1831 4666 
z
" transform="scale(0.015625)"/>
       <path id="DejaVuSans-73" d="M 2834 3397 
L 2834 2853 
Q 2591 2978 2328 3040 
Q 2066 3103 1784 3103 
Q 1356 3103 1142 2972 
Q 928 2841 928 2578 
Q 928 2378 1081 2264 
Q 1234 2150 1697 2047 
L 1894 2003 
Q 2506 1872 2764 1633 
Q 3022 1394 3022 966 
Q 3022 478 2636 193 
Q 2250 -91 1575 -91 
Q 1294 -91 989 -36 
Q 684 19 347 128 
L 347 722 
Q 666 556 975 473 
Q 1284 391 1588 391 
Q 1994 391 2212 530 
Q 2431 669 2431 922 
Q 2431 1156 2273 1281 
Q 2116 1406 1581 1522 
L 1381 1569 
Q 847 1681 609 1914 
Q 372 2147 372 2553 
Q 372 3047 722 3315 
Q 1072 3584 1716 3584 
Q 2034 3584 2315 3537 
Q 2597 3491 2834 3397 
z
" transform="scale(0.015625)"/>
      </defs>
      <use xlink:href="#DejaVuSans-6e"/>
      <use xlink:href="#DejaVuSans-75" x="63.378906"/>
      <use xlink:href="#DejaVuSans-6d" x="126.757812"/>
      <use xlink:href="#DejaVuSans-62" x="224.169922"/>
      <use xlink:href="#DejaVuSans-65" x="287.646484"/>
      <use xlink:href="#DejaVuSans-72" x="349.169922"/>
      <use xlink:href="#DejaVuSans-20" x="390.283203"/>
      <use xlink:href="#DejaVuSans-6f" x="422.070312"/>
      <use xlink:href="#DejaVuSans-66" x="483.251953"/>
      <use xlink:href="#DejaVuSans-20" x="518.457031"/>
      <use xlink:href="#DejaVuSans-41" x="550.244141"/>
      <use xlink:href="#DejaVuSans-73" x="618.652344"/>
      <use xlink:href="#DejaVuSans-65" x="670.751953"/>
      <use xlink:href="#DejaVuSans-31" x="732.275391"/>
      <use xlink:href="#DejaVuSans-20" x="795.898438"/>
      <use xlink:href="#DejaVuSans-6e" x="827.685547"/>
      <use xlink:href="#DejaVuSans-6f" x="891.064453"/>
      <use xlink:href="#DejaVuSans-72" x="952.246094"/>
      <use xlink:href="#DejaVuSans-6d" x="991.609375"/>
     </g>
    </g>
   </g>
   <g id="line2d_13">
    <path d="M 61.144768 170.205254 
M 86.898181 157.325666 
L 93.357498 123.66523 
" clip-path="url(#pe557d2e48a)" style="fill: none; stroke: #03051a; stroke-width: 1.5; stroke-linecap: square"/>
   </g>
   <g id="line2d_14">
    <path d="M 67.643391 206.249414 
L 83.504747 174.112507 
L 90.045297 201.676827 
L 96.462687 184.065826 
L 102.922003 172.851241 
L 109.300087 140.895849 
L 115.756783 166.468171 
" clip-path="url(#pe557d2e48a)" style="fill: none; stroke: #03051a; stroke-width: 1.5; stroke-linecap: square"/>
   </g>
   <g id="line2d_15">
    <path d="M 68.992903 192.377497 
L 75.45222 192.761216 
L 81.830304 228.553791 
M 94.665084 172.364086 
L 101.242319 195.193656 
L 107.623023 174.89329 
" clip-path="url(#pe557d2e48a)" style="fill: none; stroke: #160e27; stroke-width: 1.5; stroke-linecap: square"/>
   </g>
   <g id="line2d_16">
    <path d="M 67.438999 173.291683 
L 75.609445 174.396125 
L 83.339661 159.454468 
L 88.124534 164.663027 
L 94.541924 180.33208 
L 101.001241 185.764196 
" clip-path="url(#pe557d2e48a)" style="fill: none; stroke: #160e27; stroke-width: 1.5; stroke-linecap: square"/>
   </g>
   <g id="line2d_17">
    <path d="M 73.937621 181.783536 
L 80.315705 157.365706 
L 89.390193 184.716478 
L 95.84951 182.377465 
L 102.104434 167.912954 
L 108.521824 165.427127 
L 114.899908 128.293206 
L 121.317298 155.050049 
L 127.776615 163.184877 
L 134.112772 178.573649 
M 140.530162 175.373772 
L 156.59591 223.215435 
L 162.932068 204.041533 
L 169.43069 214.769295 
L 175.97124 155.577245 
L 182.349324 172.48087 
L 190.346822 175.036767 
L 195.102871 121.963523 
L 201.520261 133.865463 
L 207.979577 160.922608 
L 214.357661 165.133499 
" clip-path="url(#pe557d2e48a)" style="fill: none; stroke: #2a1636; stroke-width: 1.5; stroke-linecap: square"/>
   </g>
   <g id="line2d_18">
    <path d="M 61.144768 186.851954 
L 68.193677 189.568012 
L 74.021475 224.090313 
L 80.438865 146.50481 
L 86.856255 153.58191 
L 93.195032 171.780167 
L 99.612422 161.40309 
L 105.906653 138.169781 
L 114.077099 98.686837 
L 121.807315 127.63588 
" clip-path="url(#pe557d2e48a)" style="fill: none; stroke: #2a1636; stroke-width: 1.5; stroke-linecap: square"/>
   </g>
   <g id="line2d_19">
    <path d="M 61.144768 221.651533 
L 67.562158 225.095321 
L 73.940242 188.196636 
L 80.357632 154.863195 
L 86.733095 164.572936 
L 93.658845 216.834033 
L 99.609802 129.070653 
L 106.029812 153.241568 
L 112.405276 140.542161 
L 120.418497 78.306391 
M 133.253277 100.622112 
L 139.589434 116.050924 
" clip-path="url(#pe557d2e48a)" style="fill: none; stroke: #2a1636; stroke-width: 1.5; stroke-linecap: square"/>
   </g>
   <g id="line2d_20">
    <path d="M 73.898315 206.490323 
L 80.315705 159.214227 
L 86.775022 168.873918 
L 94.788243 213.091278 
L 101.205633 189.060837 
L 107.581096 124.486053 
L 114.001107 113.394926 
L 120.37657 121.883442 
L 126.79396 118.223103 
L 133.213971 144.90654 
L 139.631361 144.09239 
L 147.303928 133.802066 
L 152.426834 142.040331 
L 160.193737 57.575593 
L 166.69236 52.463798 
L 173.151676 104.05222 
L 179.569066 154.939939 
" clip-path="url(#pe557d2e48a)" style="fill: none; stroke: #3f1b43; stroke-width: 1.5; stroke-linecap: square"/>
   </g>
   <g id="line2d_21">
    <path d="M 66.831063 197.889694 
L 73.251073 149.474456 
L 79.668463 121.576468 
L 86.167086 87.011791 
L 92.584476 65.55026 
L 100.393305 112.520716 
" clip-path="url(#pe557d2e48a)" style="fill: none; stroke: #3f1b43; stroke-width: 1.5; stroke-linecap: square"/>
   </g>
   <g id="line2d_22">
    <path d="M 73.979548 191.012795 
L 84.812333 214.824684 
L 93.430869 159.494508 
L 97.607807 187.746185 
L 103.98327 234.932323 
L 110.484513 187.876315 
L 116.820671 160.73909 
L 123.238061 148.593572 
" clip-path="url(#pe557d2e48a)" style="fill: none; stroke: #541e4e; stroke-width: 1.5; stroke-linecap: square"/>
   </g>
   <g id="line2d_23">
    <path d="M 67.643391 207.740243 
L 74.060781 204.563723 
L 80.480791 183.475233 
L 86.898181 219.789999 
L 94.746316 198.240046 
L 102.809325 136.224496 
L 107.704256 150.368686 
L 114.121646 159.901583 
L 120.541656 147.732708 
L 126.959046 139.511127 
L 133.418363 103.555055 
L 139.793826 103.171336 
M 146.211216 105.063234 
L 162.276965 97.986134 
L 168.778208 167.349055 
L 175.195598 65.223266 
L 181.612988 38.856814 
L 188.030378 59.917943 
L 194.447768 81.155917 
M 213.702558 146.287926 
L 220.038715 197.956428 
L 227.847544 213.852709 
L 234.223008 185.317081 
L 240.763557 129.747999 
L 247.180947 135.687291 
L 253.68219 86.291068 
L 260.180813 46.267582 
L 266.64013 73.768505 
" clip-path="url(#pe557d2e48a)" style="fill: none; stroke: #541e4e; stroke-width: 1.5; stroke-linecap: square"/>
   </g>
   <g id="line2d_24">
    <path d="M 86.979414 219.691566 
L 94.70439 202.15197 
L 101.12178 181.439858 
M 113.95918 201.940425 
L 120.457803 233.810464 
L 126.875193 235.347273 
L 133.253277 235.347273 
L 139.589434 222.340891 
L 145.967518 192.127246 
L 152.384908 182.514269 
L 160.356202 171.997051 
L 166.815519 124.415983 
L 175.213941 145.443745 
L 179.527139 185.400498 
L 185.94715 144.079043 
L 192.322613 206.949783 
L 198.700697 93.301435 
" clip-path="url(#pe557d2e48a)" style="fill: none; stroke: #6d1f56; stroke-width: 1.5; stroke-linecap: square"/>
   </g>
   <g id="line2d_25">
    <path d="M 67.562158 225.283176 
L 74.021475 178.423498 
L 81.908916 170.95267 
L 88.368233 187.789561 
L 94.869476 206.00617 
L 101.244939 204.141299 
" clip-path="url(#pe557d2e48a)" style="fill: none; stroke: #6d1f56; stroke-width: 1.5; stroke-linecap: square"/>
   </g>
   <g id="line2d_26">
    <path d="M 77.126663 183.742168 
L 83.667213 175.57731 
L 90.126529 145.00664 
L 96.504613 145.176811 
L 102.922003 98.917068 
L 109.297467 171.780167 
L 115.79871 172.717774 
L 122.2161 153.795457 
L 128.63349 165.420453 
" clip-path="url(#pe557d2e48a)" style="fill: none; stroke: #6d1f56; stroke-width: 1.5; stroke-linecap: square"/>
   </g>
   <g id="line2d_27">
    <path d="M 67.601464 182.781203 
L 74.060781 122.827723 
L 80.438865 87.992775 
L 86.898181 117.155366 
L 93.396804 187.57935 
L 99.856121 121.713272 
L 106.273511 133.678609 
L 112.609668 123.408305 
L 120.866587 167.88626 
L 129.77861 158.056399 
L 136.277233 167.409115 
L 142.697243 125.924163 
L 149.237792 131.746671 
" clip-path="url(#pe557d2e48a)" style="fill: none; stroke: #841e5a; stroke-width: 1.5; stroke-linecap: square"/>
   </g>
   <g id="line2d_28">
    <path d="M 68.788511 200.589069 
L 75.247828 211.115296 
L 82.519472 180.355437 
L 88.001375 184.853282 
L 94.499998 164.386082 
L 100.878081 172.110498 
L 107.376704 205.28211 
L 113.796715 191.666784 
M 120.172178 190.442223 
L 136.156694 196.892027 
L 142.532157 216.646178 
L 148.952167 187.402506 
L 155.369557 176.848585 
L 161.786947 172.881272 
L 170.486717 196.451585 
L 174.663654 184.059152 
L 181.335224 190.135248 
L 187.582287 205.452281 
L 193.957751 206.210709 
L 201.76658 211.743926 
L 208.225896 215.538066 
" clip-path="url(#pe557d2e48a)" style="fill: none; stroke: #9c1b5b; stroke-width: 1.5; stroke-linecap: square"/>
   </g>
   <g id="line2d_29">
    <path d="M 75.064399 214.568093 
L 80.438865 212.086937 
L 86.940108 197.419222 
L 93.396804 220.896776 
L 102.390059 192.040493 
L 108.849376 184.629725 
L 115.266766 196.811946 
L 121.686776 184.663091 
L 128.104166 168.790501 
L 134.521556 212.485337 
L 140.89964 235.347273 
L 148.095293 193.595386 
M 160.193737 186.65509 
L 167.999945 210.66084 
" clip-path="url(#pe557d2e48a)" style="fill: none; stroke: #9c1b5b; stroke-width: 1.5; stroke-linecap: square"/>
   </g>
   <g id="line2d_30">
    <path d="M 67.564778 192.681135 
L 73.940242 206.977144 
L 80.357632 181.423174 
L 86.816948 134.145744 
L 94.788243 183.46856 
L 101.1244 169.371083 
L 107.54179 127.766011 
L 113.961801 106.828339 
L 121.445698 140.482101 
L 126.838507 195.253716 
L 133.295203 167.392432 
" clip-path="url(#pe557d2e48a)" style="fill: none; stroke: #b41658; stroke-width: 1.5; stroke-linecap: square"/>
   </g>
   <g id="line2d_31">
    <path d="M 67.480925 189.254364 
L 73.898315 203.671828 
L 80.315705 183.46856 
L 86.735716 155.053386 
L 93.276265 210.35887 
L 101.163706 196.441575 
L 107.54179 153.231558 
L 113.95918 168.770481 
L 121.296335 217.795331 
L 126.796581 153.248242 
L 133.33713 122.260487 
L 139.835753 134.382649 
L 146.253143 171.466519 
L 152.670533 190.288735 
L 159.048617 170.295344 
L 166.857445 152.060383 
L 173.232909 147.832809 
L 179.652919 202.83599 
" clip-path="url(#pe557d2e48a)" style="fill: none; stroke: #b41658; stroke-width: 1.5; stroke-linecap: square"/>
   </g>
   <g id="line2d_32">
    <path d="M 61.144768 189.120897 
L 67.562158 159.637986 
L 74.021475 178.526935 
L 82.160476 180.622371 
L 90.309958 221.071284 
L 94.70439 185.05682 
L 101.163706 191.693478 
L 107.581096 108.132981 
L 113.998486 155.17017 
L 120.37657 135.290226 
L 126.754654 136.374647 
L 133.172044 181.212964 
M 139.547507 166.715085 
L 156.920842 195.630761 
" clip-path="url(#pe557d2e48a)" style="fill: none; stroke: #cb1b4f; stroke-width: 1.5; stroke-linecap: square"/>
   </g>
   <g id="line2d_33">
    <path d="M 68.455719 195.660791 
L 74.451222 219.546754 
L 80.907918 212.156674 
L 87.367235 158.32667 
L 93.868478 202.030849 
" clip-path="url(#pe557d2e48a)" style="fill: none; stroke: #cb1b4f; stroke-width: 1.5; stroke-linecap: square"/>
   </g>
   <g id="line2d_34">
    <path d="M 96.475789 184.469564 
L 102.798844 187.045482 
L 109.216234 219.155362 
L 115.636244 152.87787 
L 122.053634 193.255045 
L 128.471024 181.873626 
L 134.930341 182.924681 
L 141.389657 179.748161 
L 147.765121 208.483989 
L 155.613256 174.296024 
L 162.981856 201.476626 
L 168.40873 177.589328 
L 174.82612 159.547895 
" clip-path="url(#pe557d2e48a)" style="fill: none; stroke: #cb1b4f; stroke-width: 1.5; stroke-linecap: square"/>
   </g>
   <g id="line2d_35">
    <path d="M 80.315705 235.347273 
M 86.733095 134.75302 
L 104.271516 218.022892 
L 111.697764 169.44449 
L 117.229455 160.498849 
L 123.688771 190.318765 
L 130.106161 135.720658 
L 136.442319 131.252842 
L 142.859709 185.003433 
L 149.277099 193.278401 
L 155.697109 189.574686 
L 162.237658 172.784508 
L 170.1251 144.85649 
L 176.503184 121.2428 
L 182.920574 178.106514 
L 190.257728 174.239301 
L 195.757974 177.983057 
L 202.298523 162.500858 
L 208.797146 168.720431 
L 215.214536 173.885613 
L 221.631926 181.97039 
L 228.01001 157.118792 
" clip-path="url(#pe557d2e48a)" style="fill: none; stroke: #dd2c45; stroke-width: 1.5; stroke-linecap: square"/>
   </g>
   <g id="line2d_36">
    <path d="M 61.144768 191.683468 
L 69.443614 195.554018 
L 73.979548 157.142148 
L 80.399558 148.006316 
L 86.816948 129.13405 
M 100.878081 145.707343 
L 107.337398 148.306618 
" clip-path="url(#pe557d2e48a)" style="fill: none; stroke: #ea443e; stroke-width: 1.5; stroke-linecap: square"/>
   </g>
   <g id="line2d_37">
    <path d="M 74.102707 188.904013 
L 80.603951 175.72746 
L 87.021341 176.181249 
L 93.438731 205.701198 
L 99.816814 200.388868 
L 106.234204 181.1162 
L 114.08234 138.516796 
L 120.583583 155.754089 
L 128.816919 183.341766 
L 133.460289 160.855874 
L 139.796447 162.080436 
L 146.253143 170.635685 
L 152.631227 157.375716 
L 159.048617 127.709287 
L 165.507933 169.768148 
L 171.925323 170.16855 
L 181.618229 185.423855 
L 185.823991 187.142245 
L 192.466736 182.107194 
L 198.700697 199.454597 
L 205.118087 205.12195 
L 211.538097 155.92426 
L 217.913561 159.09077 
L 224.372877 162.544234 
M 245.262805 185.387151 
L 251.680195 189.387831 
" clip-path="url(#pe557d2e48a)" style="fill: none; stroke: #f06043; stroke-width: 1.5; stroke-linecap: square"/>
   </g>
   <g id="line2d_38">
    <path d="M 67.769171 226.316546 
L 74.390953 200.09524 
L 80.931502 213.291145 
L 87.511358 218.760632 
L 94.051907 215.595457 
L 100.634383 204.399225 
L 107.216859 205.761258 
L 115.146227 171.036087 
L 121.728703 150.438757 
L 128.308559 178.917327 
L 134.891035 171.613333 
L 141.512817 148.840486 
L 148.053366 124.412646 
L 154.675148 109.380899 
L 161.257624 121.473031 
M 167.756247 159.981664 
L 186.272081 149.77142 
L 190.690096 181.009426 
L 197.311879 198.853995 
L 203.894354 170.809193 
L 210.47421 204.63079 
L 217.014759 178.169911 
L 223.516003 123.835401 
L 230.095858 129.581165 
L 236.678334 123.832064 
L 243.342043 130.865787 
L 251.232105 142.417376 
" clip-path="url(#pe557d2e48a)" style="fill: none; stroke: #f47a54; stroke-width: 1.5; stroke-linecap: square"/>
   </g>
   <g id="line2d_39">
    <path d="M 79.783762 206.753253 
L 88.336788 196.17464 
L 92.41677 156.351355 
L 98.752927 163.501862 
L 105.089084 101.272765 
L 111.425241 78.406492 
L 117.800705 24.135378 
L 124.097556 89.751206 
L 130.551632 38.566523 
L 136.76987 64.682723 
L 144.576079 166.905276 
L 150.912236 144.833133 
L 157.29032 55.957303 
L 163.626477 67.0184 
L 170.00194 53.58826 
L 176.380024 164.179208 
L 182.716181 128.396643 
L 189.052339 94.058861 
L 195.469729 138.870484 
" clip-path="url(#pe557d2e48a)" style="fill: none; stroke: #f5946b; stroke-width: 1.5; stroke-linecap: square"/>
   </g>
   <g id="line2d_40">
    <path d="M 67.480925 156.077747 
L 73.859009 203.26175 
L 80.276399 169.180893 
L 88.145498 155.236904 
L 92.948713 201.536686 
L 99.284871 182.147234 
L 105.702261 186.294728 
L 112.041038 80.592017 
L 121.034294 181.433184 
L 127.451684 139.451067 
M 140.247157 135.737341 
" clip-path="url(#pe557d2e48a)" style="fill: none; stroke: #f6ab83; stroke-width: 1.5; stroke-linecap: square"/>
   </g>
   <g id="line2d_41">
    <path d="M 61.144768 117.242119 
L 67.480925 95.35683 
L 73.898315 71.192588 
L 80.234472 139.791408 
L 87.466811 96.264407 
L 92.98802 136.374647 
L 99.40803 168.48019 
L 105.744187 181.359777 
L 112.119651 150.145129 
L 118.537041 88.620071 
L 126.303943 38.903528 
L 132.682027 88.256373 
L 140.687387 46.417733 
L 145.477501 59.277301 
L 151.852964 91.045838 
L 158.231048 103.638472 
L 164.609132 158.313323 
L 170.945289 187.799571 
" clip-path="url(#pe557d2e48a)" style="fill: none; stroke: #f6ab83; stroke-width: 1.5; stroke-linecap: square"/>
   </g>
   <g id="line2d_42">
    <path d="M 61.144768 191.823608 
L 67.520231 186.408176 
M 86.609936 95.683825 
L 92.946093 21.492727 
L 99.324177 78.479899 
L 107.049153 133.795393 
L 113.469163 151.046032 
L 119.886553 144.539505 
L 126.22271 188.406847 
" clip-path="url(#pe557d2e48a)" style="fill: none; stroke: #f6c19f; stroke-width: 1.5; stroke-linecap: square"/>
   </g>
   <g id="line2d_43">
    <path d="M 61.144768 162.270627 
L 67.522852 174.636366 
L 73.859009 151.710032 
L 80.276399 155.373707 
L 86.654483 119.164047 
L 92.99064 81.953383 
L 101.653724 119.033917 
L 105.744187 82.153584 
L 112.080344 148.900547 
L 119.886553 111.556415 
L 126.22271 42.480449 
L 132.558867 124.552787 
L 138.936951 118.560108 
L 145.354341 53.925265 
L 153.22344 86.210988 
L 158.026656 122.720949 
L 164.362813 137.559169 
L 170.780203 148.536849 
L 177.11898 159.801483 
L 186.112236 190.355469 
" clip-path="url(#pe557d2e48a)" style="fill: none; stroke: #f6c19f; stroke-width: 1.5; stroke-linecap: square"/>
   </g>
   <g id="line2d_44">
    <path d="M 78.143383 158.593604 
L 83.504747 138.837117 
L 89.964064 133.681946 
L 96.381454 150.909229 
L 102.759538 163.682043 
L 109.095695 112.063591 
L 115.431852 85.650426 
L 121.891169 152.140464 
L 128.227326 134.896497 
L 134.563483 153.558553 
" clip-path="url(#pe557d2e48a)" style="fill: none; stroke: #f8d6be; stroke-width: 1.5; stroke-linecap: square"/>
   </g>
   <g id="line2d_45">
    <path d="M 73.817082 204.593086 
L 80.234472 194.409536 
L 86.651862 154.439437 
L 94.885198 115.096634 
L 99.447336 128.133045 
L 105.82542 149.117431 
M 118.6602 129.404321 
L 126.631495 139.200816 
L 133.048885 155.970973 
" clip-path="url(#pe557d2e48a)" style="fill: none; stroke: #f8d6be; stroke-width: 1.5; stroke-linecap: square"/>
   </g>
   <g id="line2d_46">
    <path d="M 61.144768 157.659334 
L 67.905432 116.895105 
L 73.817082 63.558262 
L 80.195166 147.956266 
L 86.57063 108.213061 
L 92.98802 206.371203 
L 103.003236 198.420226 
L 109.339393 93.521656 
L 115.67555 62.013379 
L 122.011708 140.021639 
L 128.431718 83.217985 
L 134.849108 63.561599 
L 141.266498 47.001652 
L 147.602655 52.006673 
L 155.034145 98.166315 
M 168.165031 96.424568 
" clip-path="url(#pe557d2e48a)" style="fill: none; stroke: #f8d6be; stroke-width: 1.5; stroke-linecap: square"/>
   </g>
   <g id="line2d_47">
    <path d="M 61.144768 153.875538 
L 67.480925 109.050568 
L 73.898315 98.693511 
L 81.665218 137.629239 
L 88.043301 113.121319 
L 94.379459 104.148984 
L 100.754922 109.083935 
L 107.746182 89.551005 
L 113.592322 153.451779 
L 120.009712 148.440085 
L 126.427102 163.535229 
L 132.805186 151.846836 
L 139.18065 167.69607 
L 146.908246 137.575852 
L 153.325636 101.836664 
" clip-path="url(#pe557d2e48a)" style="fill: none; stroke: #faebdd; stroke-width: 1.5; stroke-linecap: square"/>
   </g>
   <g id="line2d_48">
    <path d="M 67.522852 217.364565 
L 73.898315 193.962421 
L 81.74645 208.985159 
L 88.082608 202.821308 
L 94.819688 195.106902 
L 100.754922 195.697495 
L 107.091079 159.237584 
L 113.469163 128.666914 
L 119.847247 132.624218 
L 126.264637 138.823771 
M 132.600794 145.927564 
L 148.624616 142.56419 
L 155.042006 176.144545 
L 161.501323 174.699763 
L 169.894503 150.181832 
L 174.296796 165.490524 
L 180.632954 161.997019 
L 187.050344 184.869966 
L 193.347195 150.321973 
" clip-path="url(#pe557d2e48a)" style="fill: none; stroke: #faebdd; stroke-width: 1.5; stroke-linecap: square"/>
   </g>
   <g id="line2d_49">
    <path d="M 67.480925 206.853353 
L 73.817082 196.1346 
M 86.57325 204.653146 
L 92.99064 156.581586 
L 99.40803 166.458161 
L 105.744187 174.729793 
L 113.175677 198.109915 
L 118.539661 183.972399 
" clip-path="url(#pe557d2e48a)" style="fill: none; stroke: #faebdd; stroke-width: 1.5; stroke-linecap: square"/>
   </g>
   <g id="line2d_50">
    <path d="M 61.144768 235.347273 
L 63.818658 218.558092 
L 66.492549 205.133234 
L 69.166439 194.398535 
L 71.840329 185.814922 
L 74.514219 178.951348 
L 77.188109 173.463141 
L 79.862 169.074696 
L 82.53589 165.565635 
L 85.20978 162.759742 
L 87.88367 160.516111 
L 90.55756 158.722074 
L 93.231451 157.287537 
L 95.905341 156.140461 
L 98.579231 155.223244 
L 101.253121 154.489825 
L 103.927011 153.903373 
L 106.600902 153.434438 
L 109.274792 153.059471 
L 111.948682 152.759642 
L 114.622572 152.519895 
L 117.296463 152.32819 
L 119.970353 152.1749 
L 122.644243 152.052327 
L 125.318133 151.954317 
L 127.992023 151.875946 
L 130.665914 151.813279 
L 133.339804 151.76317 
L 136.013694 151.723103 
L 138.687584 151.691064 
L 141.361474 151.665445 
L 144.035365 151.64496 
L 146.709255 151.62858 
L 149.383145 151.615483 
L 152.057035 151.60501 
L 154.730926 151.596635 
L 157.404816 151.589939 
L 160.078706 151.584584 
L 162.752596 151.580303 
L 165.426486 151.576879 
L 168.100377 151.574142 
L 170.774267 151.571953 
L 173.448157 151.570202 
L 176.122047 151.568803 
L 178.795937 151.567684 
L 181.469828 151.566789 
L 184.143718 151.566073 
L 186.817608 151.565501 
L 189.491498 151.565044 
L 192.165389 151.564678 
" clip-path="url(#pe557d2e48a)" style="fill: none; stroke: #000000; stroke-width: 3; stroke-linecap: square"/>
   </g>
   <g id="patch_3">
    <path d="M 50.87 246.04 
L 50.87 10.8 
" style="fill: none; stroke: #000000; stroke-width: 0.8; stroke-linejoin: miter; stroke-linecap: square"/>
   </g>
   <g id="patch_4">
    <path d="M 276.914898 246.04 
L 276.914898 10.8 
" style="fill: none; stroke: #000000; stroke-width: 0.8; stroke-linejoin: miter; stroke-linecap: square"/>
   </g>
   <g id="patch_5">
    <path d="M 50.87 246.04 
L 276.914898 246.04 
" style="fill: none; stroke: #000000; stroke-width: 0.8; stroke-linejoin: miter; stroke-linecap: square"/>
   </g>
   <g id="patch_6">
    <path d="M 50.87 10.8 
L 276.914898 10.8 
" style="fill: none; stroke: #000000; stroke-width: 0.8; stroke-linejoin: miter; stroke-linecap: square"/>
   </g>
   <g id="legend_1">
    <g id="patch_7">
     <path d="M 203.611773 48.15625 
L 269.914898 48.15625 
Q 271.914898 48.15625 271.914898 46.15625 
L 271.914898 17.8 
Q 271.914898 15.8 269.914898 15.8 
L 203.611773 15.8 
Q 201.611773 15.8 201.611773 17.8 
L 201.611773 46.15625 
Q 201.611773 48.15625 203.611773 48.15625 
z
" style="fill: #ffffff; opacity: 0.8; stroke: #cccccc; stroke-linejoin: miter"/>
    </g>
    <g id="PathCollection_1">
     <defs>
      <path id="m2b9930c522" d="M 0 3 
C 0.795609 3 1.55874 2.683901 2.12132 2.12132 
C 2.683901 1.55874 3 0.795609 3 0 
C 3 -0.795609 2.683901 -1.55874 2.12132 -2.12132 
C 1.55874 -2.683901 0.795609 -3 0 -3 
C -0.795609 -3 -1.55874 -2.683901 -2.12132 -2.12132 
C -2.683901 -1.55874 -3 -0.795609 -3 0 
C -3 0.795609 -2.683901 1.55874 -2.12132 2.12132 
C -1.55874 2.683901 -0.795609 3 0 3 
z
" style="stroke: #000000"/>
     </defs>
     <g>
      <use xlink:href="#m2b9930c522" x="215.611773" y="24.773438" style="stroke: #000000"/>
     </g>
    </g>
    <g id="text_15">
     <!-- binned -->
     <g transform="translate(233.611773 27.398438) scale(0.1 -0.1)">
      <defs>
       <path id="DejaVuSans-64" d="M 2906 2969 
L 2906 4863 
L 3481 4863 
L 3481 0 
L 2906 0 
L 2906 525 
Q 2725 213 2448 61 
Q 2172 -91 1784 -91 
Q 1150 -91 751 415 
Q 353 922 353 1747 
Q 353 2572 751 3078 
Q 1150 3584 1784 3584 
Q 2172 3584 2448 3432 
Q 2725 3281 2906 2969 
z
M 947 1747 
Q 947 1113 1208 752 
Q 1469 391 1925 391 
Q 2381 391 2643 752 
Q 2906 1113 2906 1747 
Q 2906 2381 2643 2742 
Q 2381 3103 1925 3103 
Q 1469 3103 1208 2742 
Q 947 2381 947 1747 
z
" transform="scale(0.015625)"/>
      </defs>
      <use xlink:href="#DejaVuSans-62"/>
      <use xlink:href="#DejaVuSans-69" x="63.476562"/>
      <use xlink:href="#DejaVuSans-6e" x="91.259766"/>
      <use xlink:href="#DejaVuSans-6e" x="154.638672"/>
      <use xlink:href="#DejaVuSans-65" x="218.017578"/>
      <use xlink:href="#DejaVuSans-64" x="279.541016"/>
     </g>
    </g>
    <g id="line2d_51">
     <path d="M 205.611773 38.576562 
L 215.611773 38.576562 
L 225.611773 38.576562 
" style="fill: none; stroke: #000000; stroke-width: 3; stroke-linecap: square"/>
    </g>
    <g id="text_16">
     <!-- fit -->
     <g transform="translate(233.611773 42.076562) scale(0.1 -0.1)">
      <use xlink:href="#DejaVuSans-66"/>
      <use xlink:href="#DejaVuSans-69" x="35.205078"/>
      <use xlink:href="#DejaVuSans-74" x="62.988281"/>
     </g>
    </g>
   </g>
   <g id="PathCollection_2">
    <g clip-path="url(#pe557d2e48a)">
     <use xlink:href="#m2b9930c522" x="67.695799" y="177.324795" style="stroke: #000000"/>
     <use xlink:href="#m2b9930c522" x="80.797861" y="169.61918" style="stroke: #000000"/>
     <use xlink:href="#m2b9930c522" x="93.899923" y="165.658143" style="stroke: #000000"/>
     <use xlink:href="#m2b9930c522" x="107.001985" y="158.371034" style="stroke: #000000"/>
     <use xlink:href="#m2b9930c522" x="120.104047" y="144.224255" style="stroke: #000000"/>
     <use xlink:href="#m2b9930c522" x="133.206109" y="150.010902" style="stroke: #000000"/>
     <use xlink:href="#m2b9930c522" x="146.308171" y="145.223376" style="stroke: #000000"/>
     <use xlink:href="#m2b9930c522" x="159.410233" y="145.029514" style="stroke: #000000"/>
     <use xlink:href="#m2b9930c522" x="172.512295" y="147.398089" style="stroke: #000000"/>
     <use xlink:href="#m2b9930c522" x="185.614358" y="159.262196" style="stroke: #000000"/>
     <use xlink:href="#m2b9930c522" x="198.71642" y="165.075878" style="stroke: #000000"/>
    </g>
   </g>
  </g>
 </g>
 <defs>
  <clipPath id="pe557d2e48a">
   <rect x="50.87" y="10.8" width="226.044898" height="235.24"/>
  </clipPath>
 </defs>
</svg>
