<?xml version="1.0" encoding="utf-8" standalone="no"?>
<!DOCTYPE svg PUBLIC "-//W3C//DTD SVG 1.1//EN"
  "http://www.w3.org/Graphics/SVG/1.1/DTD/svg11.dtd">
<svg xmlns:xlink="http://www.w3.org/1999/xlink" width="288pt" height="288pt" viewBox="0 0 288 288" xmlns="http://www.w3.org/2000/svg" version="1.1">
 <metadata>
  <rdf:RDF xmlns:dc="http://purl.org/dc/elements/1.1/" xmlns:cc="http://creativecommons.org/ns#" xmlns:rdf="http://www.w3.org/1999/02/22-rdf-syntax-ns#">
   <cc:Work>
    <dc:type rdf:resource="http://purl.org/dc/dcmitype/StillImage"/>
    <dc:date>2023-02-04T14:55:59.156758</dc:date>
    <dc:format>image/svg+xml</dc:format>
    <dc:creator>
     <cc:Agent>
      <dc:title>Matplotlib v3.6.3, https://matplotlib.org/</dc:title>
     </cc:Agent>
    </dc:creator>
   </cc:Work>
  </rdf:RDF>
 </metadata>
 <defs>
  <style type="text/css">*{stroke-linejoin: round; stroke-linecap: butt}</style>
 </defs>
 <g id="figure_1">
  <g id="patch_1">
   <path d="M 0 288 
L 288 288 
L 288 0 
L 0 0 
z
" style="fill: #ffffff"/>
  </g>
  <g id="axes_1">
   <g id="patch_2">
    <path d="M 44.57 246.04 
L 276.914898 246.04 
L 276.914898 10.8 
L 44.57 10.8 
z
" style="fill: #ffffff"/>
   </g>
   <g id="matplotlib.axis_1">
    <g id="xtick_1">
     <g id="line2d_1">
      <defs>
       <path id="m11b261a478" d="M 0 0 
L 0 3.5 
" style="stroke: #000000; stroke-width: 0.8"/>
      </defs>
      <g>
       <use xlink:href="#m11b261a478" x="55.131132" y="246.04" style="stroke: #000000; stroke-width: 0.8"/>
      </g>
     </g>
     <g id="text_1">
      <!-- 0 -->
      <g transform="translate(51.949882 260.638438) scale(0.1 -0.1)">
       <defs>
        <path id="DejaVuSans-30" d="M 2034 4250 
Q 1547 4250 1301 3770 
Q 1056 3291 1056 2328 
Q 1056 1369 1301 889 
Q 1547 409 2034 409 
Q 2525 409 2770 889 
Q 3016 1369 3016 2328 
Q 3016 3291 2770 3770 
Q 2525 4250 2034 4250 
z
M 2034 4750 
Q 2819 4750 3233 4129 
Q 3647 3509 3647 2328 
Q 3647 1150 3233 529 
Q 2819 -91 2034 -91 
Q 1250 -91 836 529 
Q 422 1150 422 2328 
Q 422 3509 836 4129 
Q 1250 4750 2034 4750 
z
" transform="scale(0.015625)"/>
       </defs>
       <use xlink:href="#DejaVuSans-30"/>
      </g>
     </g>
    </g>
    <g id="xtick_2">
     <g id="line2d_2">
      <g>
       <use xlink:href="#m11b261a478" x="109.000028" y="246.04" style="stroke: #000000; stroke-width: 0.8"/>
      </g>
     </g>
     <g id="text_2">
      <!-- 20 -->
      <g transform="translate(102.637528 260.638438) scale(0.1 -0.1)">
       <defs>
        <path id="DejaVuSans-32" d="M 1228 531 
L 3431 531 
L 3431 0 
L 469 0 
L 469 531 
Q 828 903 1448 1529 
Q 2069 2156 2228 2338 
Q 2531 2678 2651 2914 
Q 2772 3150 2772 3378 
Q 2772 3750 2511 3984 
Q 2250 4219 1831 4219 
Q 1534 4219 1204 4116 
Q 875 4013 500 3803 
L 500 4441 
Q 881 4594 1212 4672 
Q 1544 4750 1819 4750 
Q 2544 4750 2975 4387 
Q 3406 4025 3406 3419 
Q 3406 3131 3298 2873 
Q 3191 2616 2906 2266 
Q 2828 2175 2409 1742 
Q 1991 1309 1228 531 
z
" transform="scale(0.015625)"/>
       </defs>
       <use xlink:href="#DejaVuSans-32"/>
       <use xlink:href="#DejaVuSans-30" x="63.623047"/>
      </g>
     </g>
    </g>
    <g id="xtick_3">
     <g id="line2d_3">
      <g>
       <use xlink:href="#m11b261a478" x="162.868924" y="246.04" style="stroke: #000000; stroke-width: 0.8"/>
      </g>
     </g>
     <g id="text_3">
      <!-- 40 -->
      <g transform="translate(156.506424 260.638438) scale(0.1 -0.1)">
       <defs>
        <path id="DejaVuSans-34" d="M 2419 4116 
L 825 1625 
L 2419 1625 
L 2419 4116 
z
M 2253 4666 
L 3047 4666 
L 3047 1625 
L 3713 1625 
L 3713 1100 
L 3047 1100 
L 3047 0 
L 2419 0 
L 2419 1100 
L 313 1100 
L 313 1709 
L 2253 4666 
z
" transform="scale(0.015625)"/>
       </defs>
       <use xlink:href="#DejaVuSans-34"/>
       <use xlink:href="#DejaVuSans-30" x="63.623047"/>
      </g>
     </g>
    </g>
    <g id="xtick_4">
     <g id="line2d_4">
      <g>
       <use xlink:href="#m11b261a478" x="216.737819" y="246.04" style="stroke: #000000; stroke-width: 0.8"/>
      </g>
     </g>
     <g id="text_4">
      <!-- 60 -->
      <g transform="translate(210.375319 260.638438) scale(0.1 -0.1)">
       <defs>
        <path id="DejaVuSans-36" d="M 2113 2584 
Q 1688 2584 1439 2293 
Q 1191 2003 1191 1497 
Q 1191 994 1439 701 
Q 1688 409 2113 409 
Q 2538 409 2786 701 
Q 3034 994 3034 1497 
Q 3034 2003 2786 2293 
Q 2538 2584 2113 2584 
z
M 3366 4563 
L 3366 3988 
Q 3128 4100 2886 4159 
Q 2644 4219 2406 4219 
Q 1781 4219 1451 3797 
Q 1122 3375 1075 2522 
Q 1259 2794 1537 2939 
Q 1816 3084 2150 3084 
Q 2853 3084 3261 2657 
Q 3669 2231 3669 1497 
Q 3669 778 3244 343 
Q 2819 -91 2113 -91 
Q 1303 -91 875 529 
Q 447 1150 447 2328 
Q 447 3434 972 4092 
Q 1497 4750 2381 4750 
Q 2619 4750 2861 4703 
Q 3103 4656 3366 4563 
z
" transform="scale(0.015625)"/>
       </defs>
       <use xlink:href="#DejaVuSans-36"/>
       <use xlink:href="#DejaVuSans-30" x="63.623047"/>
      </g>
     </g>
    </g>
    <g id="xtick_5">
     <g id="line2d_5">
      <g>
       <use xlink:href="#m11b261a478" x="270.606715" y="246.04" style="stroke: #000000; stroke-width: 0.8"/>
      </g>
     </g>
     <g id="text_5">
      <!-- 80 -->
      <g transform="translate(264.244215 260.638438) scale(0.1 -0.1)">
       <defs>
        <path id="DejaVuSans-38" d="M 2034 2216 
Q 1584 2216 1326 1975 
Q 1069 1734 1069 1313 
Q 1069 891 1326 650 
Q 1584 409 2034 409 
Q 2484 409 2743 651 
Q 3003 894 3003 1313 
Q 3003 1734 2745 1975 
Q 2488 2216 2034 2216 
z
M 1403 2484 
Q 997 2584 770 2862 
Q 544 3141 544 3541 
Q 544 4100 942 4425 
Q 1341 4750 2034 4750 
Q 2731 4750 3128 4425 
Q 3525 4100 3525 3541 
Q 3525 3141 3298 2862 
Q 3072 2584 2669 2484 
Q 3125 2378 3379 2068 
Q 3634 1759 3634 1313 
Q 3634 634 3220 271 
Q 2806 -91 2034 -91 
Q 1263 -91 848 271 
Q 434 634 434 1313 
Q 434 1759 690 2068 
Q 947 2378 1403 2484 
z
M 1172 3481 
Q 1172 3119 1398 2916 
Q 1625 2713 2034 2713 
Q 2441 2713 2670 2916 
Q 2900 3119 2900 3481 
Q 2900 3844 2670 4047 
Q 2441 4250 2034 4250 
Q 1625 4250 1398 4047 
Q 1172 3844 1172 3481 
z
" transform="scale(0.015625)"/>
       </defs>
       <use xlink:href="#DejaVuSans-38"/>
       <use xlink:href="#DejaVuSans-30" x="63.623047"/>
      </g>
     </g>
    </g>
    <g id="text_6">
     <!-- Time (s) -->
     <g transform="translate(140.413543 274.316562) scale(0.1 -0.1)">
      <defs>
       <path id="DejaVuSans-54" d="M -19 4666 
L 3928 4666 
L 3928 4134 
L 2272 4134 
L 2272 0 
L 1638 0 
L 1638 4134 
L -19 4134 
L -19 4666 
z
" transform="scale(0.015625)"/>
       <path id="DejaVuSans-69" d="M 603 3500 
L 1178 3500 
L 1178 0 
L 603 0 
L 603 3500 
z
M 603 4863 
L 1178 4863 
L 1178 4134 
L 603 4134 
L 603 4863 
z
" transform="scale(0.015625)"/>
       <path id="DejaVuSans-6d" d="M 3328 2828 
Q 3544 3216 3844 3400 
Q 4144 3584 4550 3584 
Q 5097 3584 5394 3201 
Q 5691 2819 5691 2113 
L 5691 0 
L 5113 0 
L 5113 2094 
Q 5113 2597 4934 2840 
Q 4756 3084 4391 3084 
Q 3944 3084 3684 2787 
Q 3425 2491 3425 1978 
L 3425 0 
L 2847 0 
L 2847 2094 
Q 2847 2600 2669 2842 
Q 2491 3084 2119 3084 
Q 1678 3084 1418 2786 
Q 1159 2488 1159 1978 
L 1159 0 
L 581 0 
L 581 3500 
L 1159 3500 
L 1159 2956 
Q 1356 3278 1631 3431 
Q 1906 3584 2284 3584 
Q 2666 3584 2933 3390 
Q 3200 3197 3328 2828 
z
" transform="scale(0.015625)"/>
       <path id="DejaVuSans-65" d="M 3597 1894 
L 3597 1613 
L 953 1613 
Q 991 1019 1311 708 
Q 1631 397 2203 397 
Q 2534 397 2845 478 
Q 3156 559 3463 722 
L 3463 178 
Q 3153 47 2828 -22 
Q 2503 -91 2169 -91 
Q 1331 -91 842 396 
Q 353 884 353 1716 
Q 353 2575 817 3079 
Q 1281 3584 2069 3584 
Q 2775 3584 3186 3129 
Q 3597 2675 3597 1894 
z
M 3022 2063 
Q 3016 2534 2758 2815 
Q 2500 3097 2075 3097 
Q 1594 3097 1305 2825 
Q 1016 2553 972 2059 
L 3022 2063 
z
" transform="scale(0.015625)"/>
       <path id="DejaVuSans-20" transform="scale(0.015625)"/>
       <path id="DejaVuSans-28" d="M 1984 4856 
Q 1566 4138 1362 3434 
Q 1159 2731 1159 2009 
Q 1159 1288 1364 580 
Q 1569 -128 1984 -844 
L 1484 -844 
Q 1016 -109 783 600 
Q 550 1309 550 2009 
Q 550 2706 781 3412 
Q 1013 4119 1484 4856 
L 1984 4856 
z
" transform="scale(0.015625)"/>
       <path id="DejaVuSans-73" d="M 2834 3397 
L 2834 2853 
Q 2591 2978 2328 3040 
Q 2066 3103 1784 3103 
Q 1356 3103 1142 2972 
Q 928 2841 928 2578 
Q 928 2378 1081 2264 
Q 1234 2150 1697 2047 
L 1894 2003 
Q 2506 1872 2764 1633 
Q 3022 1394 3022 966 
Q 3022 478 2636 193 
Q 2250 -91 1575 -91 
Q 1294 -91 989 -36 
Q 684 19 347 128 
L 347 722 
Q 666 556 975 473 
Q 1284 391 1588 391 
Q 1994 391 2212 530 
Q 2431 669 2431 922 
Q 2431 1156 2273 1281 
Q 2116 1406 1581 1522 
L 1381 1569 
Q 847 1681 609 1914 
Q 372 2147 372 2553 
Q 372 3047 722 3315 
Q 1072 3584 1716 3584 
Q 2034 3584 2315 3537 
Q 2597 3491 2834 3397 
z
" transform="scale(0.015625)"/>
       <path id="DejaVuSans-29" d="M 513 4856 
L 1013 4856 
Q 1481 4119 1714 3412 
Q 1947 2706 1947 2009 
Q 1947 1309 1714 600 
Q 1481 -109 1013 -844 
L 513 -844 
Q 928 -128 1133 580 
Q 1338 1288 1338 2009 
Q 1338 2731 1133 3434 
Q 928 4138 513 4856 
z
" transform="scale(0.015625)"/>
      </defs>
      <use xlink:href="#DejaVuSans-54"/>
      <use xlink:href="#DejaVuSans-69" x="57.958984"/>
      <use xlink:href="#DejaVuSans-6d" x="85.742188"/>
      <use xlink:href="#DejaVuSans-65" x="183.154297"/>
      <use xlink:href="#DejaVuSans-20" x="244.677734"/>
      <use xlink:href="#DejaVuSans-28" x="276.464844"/>
      <use xlink:href="#DejaVuSans-73" x="315.478516"/>
      <use xlink:href="#DejaVuSans-29" x="367.578125"/>
     </g>
    </g>
   </g>
   <g id="matplotlib.axis_2">
    <g id="ytick_1">
     <g id="line2d_6">
      <defs>
       <path id="m0aeade133a" d="M 0 0 
L -3.5 0 
" style="stroke: #000000; stroke-width: 0.8"/>
      </defs>
      <g>
       <use xlink:href="#m0aeade133a" x="44.57" y="235.347273" style="stroke: #000000; stroke-width: 0.8"/>
      </g>
     </g>
     <g id="text_7">
      <!-- 0 -->
      <g transform="translate(31.2075 239.146491) scale(0.1 -0.1)">
       <use xlink:href="#DejaVuSans-30"/>
      </g>
     </g>
    </g>
    <g id="ytick_2">
     <g id="line2d_7">
      <g>
       <use xlink:href="#m0aeade133a" x="44.57" y="204.458613" style="stroke: #000000; stroke-width: 0.8"/>
      </g>
     </g>
     <g id="text_8">
      <!-- 10 -->
      <g transform="translate(24.845 208.257832) scale(0.1 -0.1)">
       <defs>
        <path id="DejaVuSans-31" d="M 794 531 
L 1825 531 
L 1825 4091 
L 703 3866 
L 703 4441 
L 1819 4666 
L 2450 4666 
L 2450 531 
L 3481 531 
L 3481 0 
L 794 0 
L 794 531 
z
" transform="scale(0.015625)"/>
       </defs>
       <use xlink:href="#DejaVuSans-31"/>
       <use xlink:href="#DejaVuSans-30" x="63.623047"/>
      </g>
     </g>
    </g>
    <g id="ytick_3">
     <g id="line2d_8">
      <g>
       <use xlink:href="#m0aeade133a" x="44.57" y="173.569954" style="stroke: #000000; stroke-width: 0.8"/>
      </g>
     </g>
     <g id="text_9">
      <!-- 20 -->
      <g transform="translate(24.845 177.369172) scale(0.1 -0.1)">
       <use xlink:href="#DejaVuSans-32"/>
       <use xlink:href="#DejaVuSans-30" x="63.623047"/>
      </g>
     </g>
    </g>
    <g id="ytick_4">
     <g id="line2d_9">
      <g>
       <use xlink:href="#m0aeade133a" x="44.57" y="142.681294" style="stroke: #000000; stroke-width: 0.8"/>
      </g>
     </g>
     <g id="text_10">
      <!-- 30 -->
      <g transform="translate(24.845 146.480513) scale(0.1 -0.1)">
       <defs>
        <path id="DejaVuSans-33" d="M 2597 2516 
Q 3050 2419 3304 2112 
Q 3559 1806 3559 1356 
Q 3559 666 3084 287 
Q 2609 -91 1734 -91 
Q 1441 -91 1130 -33 
Q 819 25 488 141 
L 488 750 
Q 750 597 1062 519 
Q 1375 441 1716 441 
Q 2309 441 2620 675 
Q 2931 909 2931 1356 
Q 2931 1769 2642 2001 
Q 2353 2234 1838 2234 
L 1294 2234 
L 1294 2753 
L 1863 2753 
Q 2328 2753 2575 2939 
Q 2822 3125 2822 3475 
Q 2822 3834 2567 4026 
Q 2313 4219 1838 4219 
Q 1578 4219 1281 4162 
Q 984 4106 628 3988 
L 628 4550 
Q 988 4650 1302 4700 
Q 1616 4750 1894 4750 
Q 2613 4750 3031 4423 
Q 3450 4097 3450 3541 
Q 3450 3153 3228 2886 
Q 3006 2619 2597 2516 
z
" transform="scale(0.015625)"/>
       </defs>
       <use xlink:href="#DejaVuSans-33"/>
       <use xlink:href="#DejaVuSans-30" x="63.623047"/>
      </g>
     </g>
    </g>
    <g id="ytick_5">
     <g id="line2d_10">
      <g>
       <use xlink:href="#m0aeade133a" x="44.57" y="111.792635" style="stroke: #000000; stroke-width: 0.8"/>
      </g>
     </g>
     <g id="text_11">
      <!-- 40 -->
      <g transform="translate(24.845 115.591853) scale(0.1 -0.1)">
       <use xlink:href="#DejaVuSans-34"/>
       <use xlink:href="#DejaVuSans-30" x="63.623047"/>
      </g>
     </g>
    </g>
    <g id="ytick_6">
     <g id="line2d_11">
      <g>
       <use xlink:href="#m0aeade133a" x="44.57" y="80.903975" style="stroke: #000000; stroke-width: 0.8"/>
      </g>
     </g>
     <g id="text_12">
      <!-- 50 -->
      <g transform="translate(24.845 84.703194) scale(0.1 -0.1)">
       <defs>
        <path id="DejaVuSans-35" d="M 691 4666 
L 3169 4666 
L 3169 4134 
L 1269 4134 
L 1269 2991 
Q 1406 3038 1543 3061 
Q 1681 3084 1819 3084 
Q 2600 3084 3056 2656 
Q 3513 2228 3513 1497 
Q 3513 744 3044 326 
Q 2575 -91 1722 -91 
Q 1428 -91 1123 -41 
Q 819 9 494 109 
L 494 744 
Q 775 591 1075 516 
Q 1375 441 1709 441 
Q 2250 441 2565 725 
Q 2881 1009 2881 1497 
Q 2881 1984 2565 2268 
Q 2250 2553 1709 2553 
Q 1456 2553 1204 2497 
Q 953 2441 691 2322 
L 691 4666 
z
" transform="scale(0.015625)"/>
       </defs>
       <use xlink:href="#DejaVuSans-35"/>
       <use xlink:href="#DejaVuSans-30" x="63.623047"/>
      </g>
     </g>
    </g>
    <g id="ytick_7">
     <g id="line2d_12">
      <g>
       <use xlink:href="#m0aeade133a" x="44.57" y="50.015315" style="stroke: #000000; stroke-width: 0.8"/>
      </g>
     </g>
     <g id="text_13">
      <!-- 60 -->
      <g transform="translate(24.845 53.814534) scale(0.1 -0.1)">
       <use xlink:href="#DejaVuSans-36"/>
       <use xlink:href="#DejaVuSans-30" x="63.623047"/>
      </g>
     </g>
    </g>
    <g id="ytick_8">
     <g id="line2d_13">
      <g>
       <use xlink:href="#m0aeade133a" x="44.57" y="19.126656" style="stroke: #000000; stroke-width: 0.8"/>
      </g>
     </g>
     <g id="text_14">
      <!-- 70 -->
      <g transform="translate(24.845 22.925875) scale(0.1 -0.1)">
       <defs>
        <path id="DejaVuSans-37" d="M 525 4666 
L 3525 4666 
L 3525 4397 
L 1831 0 
L 1172 0 
L 2766 4134 
L 525 4134 
L 525 4666 
z
" transform="scale(0.015625)"/>
       </defs>
       <use xlink:href="#DejaVuSans-37"/>
       <use xlink:href="#DejaVuSans-30" x="63.623047"/>
      </g>
     </g>
    </g>
    <g id="text_15">
     <!-- Ase1 accumulation -->
     <g transform="translate(18.765313 176.092656) rotate(-90) scale(0.1 -0.1)">
      <defs>
       <path id="DejaVuSans-41" d="M 2188 4044 
L 1331 1722 
L 3047 1722 
L 2188 4044 
z
M 1831 4666 
L 2547 4666 
L 4325 0 
L 3669 0 
L 3244 1197 
L 1141 1197 
L 716 0 
L 50 0 
L 1831 4666 
z
" transform="scale(0.015625)"/>
       <path id="DejaVuSans-61" d="M 2194 1759 
Q 1497 1759 1228 1600 
Q 959 1441 959 1056 
Q 959 750 1161 570 
Q 1363 391 1709 391 
Q 2188 391 2477 730 
Q 2766 1069 2766 1631 
L 2766 1759 
L 2194 1759 
z
M 3341 1997 
L 3341 0 
L 2766 0 
L 2766 531 
Q 2569 213 2275 61 
Q 1981 -91 1556 -91 
Q 1019 -91 701 211 
Q 384 513 384 1019 
Q 384 1609 779 1909 
Q 1175 2209 1959 2209 
L 2766 2209 
L 2766 2266 
Q 2766 2663 2505 2880 
Q 2244 3097 1772 3097 
Q 1472 3097 1187 3025 
Q 903 2953 641 2809 
L 641 3341 
Q 956 3463 1253 3523 
Q 1550 3584 1831 3584 
Q 2591 3584 2966 3190 
Q 3341 2797 3341 1997 
z
" transform="scale(0.015625)"/>
       <path id="DejaVuSans-63" d="M 3122 3366 
L 3122 2828 
Q 2878 2963 2633 3030 
Q 2388 3097 2138 3097 
Q 1578 3097 1268 2742 
Q 959 2388 959 1747 
Q 959 1106 1268 751 
Q 1578 397 2138 397 
Q 2388 397 2633 464 
Q 2878 531 3122 666 
L 3122 134 
Q 2881 22 2623 -34 
Q 2366 -91 2075 -91 
Q 1284 -91 818 406 
Q 353 903 353 1747 
Q 353 2603 823 3093 
Q 1294 3584 2113 3584 
Q 2378 3584 2631 3529 
Q 2884 3475 3122 3366 
z
" transform="scale(0.015625)"/>
       <path id="DejaVuSans-75" d="M 544 1381 
L 544 3500 
L 1119 3500 
L 1119 1403 
Q 1119 906 1312 657 
Q 1506 409 1894 409 
Q 2359 409 2629 706 
Q 2900 1003 2900 1516 
L 2900 3500 
L 3475 3500 
L 3475 0 
L 2900 0 
L 2900 538 
Q 2691 219 2414 64 
Q 2138 -91 1772 -91 
Q 1169 -91 856 284 
Q 544 659 544 1381 
z
M 1991 3584 
L 1991 3584 
z
" transform="scale(0.015625)"/>
       <path id="DejaVuSans-6c" d="M 603 4863 
L 1178 4863 
L 1178 0 
L 603 0 
L 603 4863 
z
" transform="scale(0.015625)"/>
       <path id="DejaVuSans-74" d="M 1172 4494 
L 1172 3500 
L 2356 3500 
L 2356 3053 
L 1172 3053 
L 1172 1153 
Q 1172 725 1289 603 
Q 1406 481 1766 481 
L 2356 481 
L 2356 0 
L 1766 0 
Q 1100 0 847 248 
Q 594 497 594 1153 
L 594 3053 
L 172 3053 
L 172 3500 
L 594 3500 
L 594 4494 
L 1172 4494 
z
" transform="scale(0.015625)"/>
       <path id="DejaVuSans-6f" d="M 1959 3097 
Q 1497 3097 1228 2736 
Q 959 2375 959 1747 
Q 959 1119 1226 758 
Q 1494 397 1959 397 
Q 2419 397 2687 759 
Q 2956 1122 2956 1747 
Q 2956 2369 2687 2733 
Q 2419 3097 1959 3097 
z
M 1959 3584 
Q 2709 3584 3137 3096 
Q 3566 2609 3566 1747 
Q 3566 888 3137 398 
Q 2709 -91 1959 -91 
Q 1206 -91 779 398 
Q 353 888 353 1747 
Q 353 2609 779 3096 
Q 1206 3584 1959 3584 
z
" transform="scale(0.015625)"/>
       <path id="DejaVuSans-6e" d="M 3513 2113 
L 3513 0 
L 2938 0 
L 2938 2094 
Q 2938 2591 2744 2837 
Q 2550 3084 2163 3084 
Q 1697 3084 1428 2787 
Q 1159 2491 1159 1978 
L 1159 0 
L 581 0 
L 581 3500 
L 1159 3500 
L 1159 2956 
Q 1366 3272 1645 3428 
Q 1925 3584 2291 3584 
Q 2894 3584 3203 3211 
Q 3513 2838 3513 2113 
z
" transform="scale(0.015625)"/>
      </defs>
      <use xlink:href="#DejaVuSans-41"/>
      <use xlink:href="#DejaVuSans-73" x="68.408203"/>
      <use xlink:href="#DejaVuSans-65" x="120.507812"/>
      <use xlink:href="#DejaVuSans-31" x="182.03125"/>
      <use xlink:href="#DejaVuSans-20" x="245.654297"/>
      <use xlink:href="#DejaVuSans-61" x="277.441406"/>
      <use xlink:href="#DejaVuSans-63" x="338.720703"/>
      <use xlink:href="#DejaVuSans-63" x="393.701172"/>
      <use xlink:href="#DejaVuSans-75" x="448.681641"/>
      <use xlink:href="#DejaVuSans-6d" x="512.060547"/>
      <use xlink:href="#DejaVuSans-75" x="609.472656"/>
      <use xlink:href="#DejaVuSans-6c" x="672.851562"/>
      <use xlink:href="#DejaVuSans-61" x="700.634766"/>
      <use xlink:href="#DejaVuSans-74" x="761.914062"/>
      <use xlink:href="#DejaVuSans-69" x="801.123047"/>
      <use xlink:href="#DejaVuSans-6f" x="828.90625"/>
      <use xlink:href="#DejaVuSans-6e" x="890.087891"/>
     </g>
    </g>
   </g>
   <g id="line2d_14">
    <path d="M 55.131132 212.039926 
M 81.602307 180.016417 
L 88.241649 133.844049 
" clip-path="url(#p2148d69433)" style="fill: none; stroke: #03051a; stroke-width: 1.5; stroke-linecap: square"/>
   </g>
   <g id="line2d_15">
    <path d="M 61.810875 222.986249 
L 78.114296 209.056081 
L 84.837134 217.916184 
L 91.433381 195.621368 
L 98.072722 186.469058 
L 104.628567 150.304615 
L 111.265215 166.097987 
" clip-path="url(#p2148d69433)" style="fill: none; stroke: #03051a; stroke-width: 1.5; stroke-linecap: square"/>
   </g>
   <g id="line2d_16">
    <path d="M 63.197999 207.286779 
L 69.83734 196.066164 
L 76.393185 228.812159 
M 89.585678 150.718523 
L 96.346224 180.337659 
L 102.904762 148.33083 
" clip-path="url(#p2148d69433)" style="fill: none; stroke: #160e27; stroke-width: 1.5; stroke-linecap: square"/>
   </g>
   <g id="line2d_17">
    <path d="M 61.600786 207.485702 
L 69.998947 194.728685 
L 77.944609 168.034706 
L 82.862839 152.624354 
L 89.459086 161.727242 
L 96.098427 163.667049 
" clip-path="url(#p2148d69433)" style="fill: none; stroke: #160e27; stroke-width: 1.5; stroke-linecap: square"/>
   </g>
   <g id="line2d_18">
    <path d="M 68.280529 188.390332 
L 74.836374 168.266371 
L 84.163773 193.415917 
L 90.803115 194.181956 
L 97.232367 178.56465 
L 103.828614 169.95598 
L 110.384458 140.13298 
L 116.980705 166.094898 
L 123.620046 176.581598 
L 130.132795 192.955676 
M 136.729042 196.291652 
L 153.242552 226.347244 
L 159.755301 212.062475 
L 166.435044 218.811029 
L 173.157883 166.181386 
L 179.713727 180.723767 
L 187.934121 182.255845 
L 192.822723 140.580865 
L 199.418969 148.392607 
L 206.058311 167.274845 
L 212.614155 166.060921 
" clip-path="url(#p2148d69433)" style="fill: none; stroke: #2a1636; stroke-width: 1.5; stroke-linecap: square"/>
   </g>
   <g id="line2d_19">
    <path d="M 55.131132 226.973048 
L 62.376498 218.032944 
L 68.366719 225.253785 
L 74.962966 152.355622 
L 81.559212 153.192705 
L 88.074655 168.389925 
L 94.670901 158.131802 
L 101.140556 134.687309 
L 109.538717 109.420386 
L 117.484379 129.059395 
" clip-path="url(#p2148d69433)" style="fill: none; stroke: #2a1636; stroke-width: 1.5; stroke-linecap: square"/>
   </g>
   <g id="line2d_20">
    <path d="M 55.131132 225.375796 
L 61.727378 227.701712 
L 68.283223 199.022209 
L 74.879469 165.063217 
L 81.43262 178.963114 
L 88.551395 217.915258 
L 94.668208 144.593302 
L 101.267148 173.359911 
L 107.820299 171.10195 
L 116.056853 135.14755 
M 129.249346 139.447251 
L 135.762095 142.387852 
" clip-path="url(#p2148d69433)" style="fill: none; stroke: #2a1636; stroke-width: 1.5; stroke-linecap: square"/>
   </g>
   <g id="line2d_21">
    <path d="M 68.240128 213.568297 
L 74.836374 168.819278 
L 81.475715 174.147572 
L 89.712269 216.059158 
L 96.308516 194.302422 
L 102.861667 131.830108 
L 109.460607 120.68548 
L 116.013758 135.50277 
L 122.610004 132.636302 
L 129.208944 140.472755 
L 135.80519 136.926737 
L 143.691597 115.106988 
L 148.957281 116.864552 
L 156.940652 21.492727 
L 163.620395 27.15153 
L 170.259736 111.656724 
L 176.855982 167.710375 
" clip-path="url(#p2148d69433)" style="fill: none; stroke: #3f1b43; stroke-width: 1.5; stroke-linecap: square"/>
   </g>
   <g id="line2d_22">
    <path d="M 60.975907 208.418848 
L 67.574847 187.105364 
L 74.171093 163.768982 
L 80.850836 111.063662 
L 87.447082 90.809968 
L 95.473548 137.912085 
" clip-path="url(#p2148d69433)" style="fill: none; stroke: #3f1b43; stroke-width: 1.5; stroke-linecap: square"/>
   </g>
   <g id="line2d_23">
    <path d="M 68.323624 209.337477 
L 79.458325 222.961538 
L 88.317065 197.907128 
L 92.610416 211.700768 
L 99.163567 235.08408 
L 105.846004 207.37234 
L 112.358753 186.725434 
L 118.955 179.488221 
" clip-path="url(#p2148d69433)" style="fill: none; stroke: #541e4e; stroke-width: 1.5; stroke-linecap: square"/>
   </g>
   <g id="line2d_24">
    <path d="M 61.810875 227.112356 
L 68.407121 223.310271 
L 75.006061 218.735969 
L 81.602307 229.970793 
L 89.669174 219.620621 
L 97.956904 198.561968 
L 102.988259 193.848359 
L 109.584505 199.91798 
L 116.183445 192.513969 
L 122.779691 183.970165 
L 129.419033 163.484806 
L 135.972184 157.115565 
M 142.56843 161.316422 
L 159.08194 152.451377 
L 165.764377 182.62342 
L 172.360623 96.576881 
L 178.956869 83.393601 
L 185.553116 126.965144 
L 192.149362 150.221216 
M 211.940794 168.074861 
L 218.453544 206.330157 
L 226.480009 218.00607 
L 233.03316 191.318577 
L 239.755999 155.750286 
L 246.352245 165.748945 
L 253.034681 136.284253 
L 259.714425 118.214387 
L 266.353766 138.656502 
" clip-path="url(#p2148d69433)" style="fill: none; stroke: #541e4e; stroke-width: 1.5; stroke-linecap: square"/>
   </g>
   <g id="line2d_25">
    <path d="M 81.685804 224.717558 
L 89.626079 213.262499 
L 96.222326 205.653387 
M 109.417512 214.040275 
L 116.097255 234.381662 
L 122.693501 235.347273 
L 129.249346 235.347273 
L 135.762095 227.238073 
L 142.31794 209.331917 
L 148.914186 203.819218 
L 157.107645 197.60442 
L 163.746987 158.990506 
L 172.379477 169.659449 
L 176.812887 198.552701 
L 183.411827 179.562354 
L 189.964978 217.990008 
L 196.520823 141.164661 
" clip-path="url(#p2148d69433)" style="fill: none; stroke: #6d1f56; stroke-width: 1.5; stroke-linecap: square"/>
   </g>
   <g id="line2d_26">
    <path d="M 61.727378 230.59567 
L 68.366719 209.537944 
L 76.473988 194.855329 
L 83.11333 208.306414 
L 89.795766 220.184956 
L 96.348917 210.670632 
" clip-path="url(#p2148d69433)" style="fill: none; stroke: #6d1f56; stroke-width: 1.5; stroke-linecap: square"/>
   </g>
   <g id="line2d_27">
    <path d="M 71.558452 215.397214 
L 78.28129 208.096988 
L 84.920631 192.662234 
L 91.476476 192.742545 
L 98.072722 167.494154 
L 104.625873 195.88701 
L 111.30831 199.868558 
L 117.904556 187.287607 
L 124.500802 187.803448 
" clip-path="url(#p2148d69433)" style="fill: none; stroke: #6d1f56; stroke-width: 1.5; stroke-linecap: square"/>
   </g>
   <g id="line2d_28">
    <path d="M 61.76778 204.790049 
L 68.407121 157.208231 
L 74.962966 126.702591 
L 81.602307 140.994773 
L 88.28205 194.864596 
L 94.921392 137.915174 
L 101.517638 145.918426 
L 108.030387 121.865426 
L 116.517432 175.395473 
L 125.677838 188.980306 
L 132.357581 191.229 
L 138.956521 164.093313 
L 145.679359 169.993047 
" clip-path="url(#p2148d69433)" style="fill: none; stroke: #841e5a; stroke-width: 1.5; stroke-linecap: square"/>
   </g>
   <g id="line2d_29">
    <path d="M 62.98791 220.927829 
L 69.627252 224.979803 
L 77.101561 212.118074 
L 82.736247 214.506385 
L 89.415991 201.258548 
L 95.971835 203.933506 
L 102.651578 219.56811 
L 109.250518 210.392942 
M 115.803669 206.606302 
L 132.233682 201.780566 
L 138.786834 217.280496 
L 145.385773 184.952425 
L 151.98202 172.729782 
L 158.578266 172.766849 
L 167.520503 199.340362 
L 171.813854 191.837507 
L 178.671364 196.140297 
L 185.092537 209.422421 
L 191.645688 209.294851 
L 199.672153 214.461288 
L 206.311495 217.465519 
" clip-path="url(#p2148d69433)" style="fill: none; stroke: #9c1b5b; stroke-width: 1.5; stroke-linecap: square"/>
   </g>
   <g id="line2d_30">
    <path d="M 69.43871 227.796231 
L 74.962966 226.894591 
L 81.645402 220.093217 
L 88.28205 229.279196 
L 97.525953 217.618109 
L 104.165294 213.083036 
L 110.761541 214.730328 
L 117.36048 209.172532 
L 123.956727 194.212845 
L 130.552973 222.338823 
L 137.108817 235.347273 
L 144.505017 198.93881 
M 156.940652 203.695663 
L 164.964424 217.10165 
" clip-path="url(#p2148d69433)" style="fill: none; stroke: #9c1b5b; stroke-width: 1.5; stroke-linecap: square"/>
   </g>
   <g id="line2d_31">
    <path d="M 61.730071 198.364281 
L 68.283223 205.98266 
L 74.879469 181.103698 
L 81.51881 157.615961 
L 89.712269 205.072062 
L 96.225019 190.484584 
L 102.821265 163.469362 
L 109.420205 156.182727 
L 117.112683 179.410999 
L 122.655793 207.166004 
L 129.292441 188.313111 
" clip-path="url(#p2148d69433)" style="fill: none; stroke: #b41658; stroke-width: 1.5; stroke-linecap: square"/>
   </g>
   <g id="line2d_32">
    <path d="M 61.643881 213.991471 
L 68.240128 220.671144 
L 74.836374 201.301792 
L 81.435314 172.711249 
L 88.158152 212.114367 
L 96.265421 193.860714 
L 102.821265 168.02235 
L 109.417512 188.183378 
L 116.959157 223.100228 
L 122.612698 175.37694 
L 129.335536 151.280697 
L 136.015279 152.534777 
L 142.611525 174.731367 
L 149.207772 192.529413 
L 155.763616 177.279682 
L 163.790082 165.047772 
L 170.343233 165.588324 
L 176.942173 209.024266 
" clip-path="url(#p2148d69433)" style="fill: none; stroke: #b41658; stroke-width: 1.5; stroke-linecap: square"/>
   </g>
   <g id="line2d_33">
    <path d="M 55.131132 211.97228 
L 61.727378 197.063868 
L 68.366719 204.710665 
L 76.732559 205.217239 
L 85.109172 225.742753 
L 89.626079 203.445465 
L 96.265421 204.836999 
L 102.861667 139.882782 
L 109.457913 174.335992 
L 116.013758 160.26003 
L 122.569602 157.952647 
L 129.165849 197.913306 
M 135.719 189.103861 
L 153.576539 205.408748 
" clip-path="url(#p2148d69433)" style="fill: none; stroke: #cb1b4f; stroke-width: 1.5; stroke-linecap: square"/>
   </g>
   <g id="line2d_34">
    <path d="M 62.645843 209.353539 
L 68.808444 224.974243 
L 75.445092 222.163684 
L 82.084434 191.491554 
L 88.76687 214.546849 
" clip-path="url(#p2148d69433)" style="fill: none; stroke: #cb1b4f; stroke-width: 1.5; stroke-linecap: square"/>
   </g>
   <g id="line2d_35">
    <path d="M 91.446848 213.070989 
L 97.94613 207.006928 
L 104.542376 225.871559 
L 111.141316 190.351762 
L 117.737563 211.244234 
L 124.333809 200.662397 
L 130.97315 195.992032 
L 137.612492 192.912432 
L 144.165643 214.947784 
L 152.23251 197.16889 
L 159.806477 212.608895 
L 165.384601 197.931839 
L 171.980847 188.896907 
" clip-path="url(#p2148d69433)" style="fill: none; stroke: #cb1b4f; stroke-width: 1.5; stroke-linecap: square"/>
   </g>
   <g id="line2d_36">
    <path d="M 74.836374 235.347273 
M 81.43262 223.653444 
L 99.459846 228.707446 
L 107.093069 205.904511 
L 112.778931 201.7991 
L 119.418272 215.92263 
L 126.014518 190.855248 
L 132.527268 184.251252 
L 139.123514 209.406668 
L 145.71976 212.314835 
L 152.3187 212.145874 
L 159.041538 203.877906 
L 167.148807 186.858255 
L 173.704652 161.548087 
L 180.300898 188.745552 
L 187.842544 185.557842 
L 193.496084 194.793552 
L 200.218922 192.523235 
L 206.898666 196.872358 
L 213.494912 200.115668 
L 220.091158 207.801693 
L 226.647003 199.164297 
" clip-path="url(#p2148d69433)" style="fill: none; stroke: #dd2c45; stroke-width: 1.5; stroke-linecap: square"/>
   </g>
   <g id="line2d_37">
    <path d="M 55.131132 229.470087 
L 63.661271 204.041616 
L 68.323624 173.820152 
L 74.922564 172.779204 
L 81.51881 156.630613 
M 95.971835 162.378992 
L 102.611177 148.920803 
" clip-path="url(#p2148d69433)" style="fill: none; stroke: #ea443e; stroke-width: 1.5; stroke-linecap: square"/>
   </g>
   <g id="line2d_38">
    <path d="M 68.450216 206.62607 
L 75.132653 199.028387 
L 81.728899 199.553494 
L 88.325145 215.534051 
L 94.88099 211.771194 
L 101.477236 188.603464 
L 109.544103 151.530895 
L 116.22654 166.545872 
L 124.689344 194.330222 
L 129.462128 177.505169 
L 135.974877 172.266452 
L 142.611525 171.172994 
L 149.16737 156.58428 
L 155.763616 120.762701 
L 162.402958 163.843115 
L 168.999204 164.093313 
L 178.962256 176.637198 
L 183.285235 179.071224 
L 190.113118 179.639575 
L 196.520823 202.574405 
L 203.117069 207.74702 
L 209.716009 171.97301 
L 216.26916 176.065757 
L 222.908501 181.032654 
M 244.380643 201.647745 
L 250.97689 207.080134 
" clip-path="url(#p2148d69433)" style="fill: none; stroke: #f06043; stroke-width: 1.5; stroke-linecap: square"/>
   </g>
   <g id="line2d_39">
    <path d="M 61.94016 229.134019 
L 68.746495 209.882353 
L 75.469333 217.480037 
L 82.232573 220.772459 
L 88.955411 216.646969 
L 95.721345 205.498325 
L 102.487278 207.091871 
L 110.637642 178.67276 
L 117.403575 162.996765 
L 124.166815 187.340118 
L 130.932749 182.391755 
L 137.739084 160.281652 
L 144.461922 141.146128 
L 151.268257 129.924278 
L 158.03419 143.567799 
M 164.713933 172.05332 
L 183.745814 160.893248 
L 188.286962 185.214978 
L 195.093297 201.521102 
L 201.85923 173.863396 
L 208.62247 206.163976 
L 215.345308 182.592531 
L 222.027745 137.634087 
L 228.790985 145.263586 
L 235.556918 137.340645 
L 242.406348 142.412563 
L 250.516311 149.714642 
" clip-path="url(#p2148d69433)" style="fill: none; stroke: #f47a54; stroke-width: 1.5; stroke-linecap: square"/>
   </g>
   <g id="line2d_40">
    <path d="M 74.289605 234.000373 
L 83.081008 218.218893 
L 87.274702 199.748093 
L 93.787451 191.85604 
L 100.300201 157.412096 
L 106.81295 143.175513 
L 113.366102 128.88333 
L 119.838449 158.209023 
L 126.472404 137.343734 
L 132.863948 147.283704 
L 140.887721 188.337822 
L 147.40047 173.291956 
L 153.956315 136.583873 
L 160.469064 139.073499 
L 167.022215 124.926493 
L 173.57806 176.946084 
L 180.09081 141.68359 
L 186.603559 111.820434 
L 193.199805 150.196505 
" clip-path="url(#p2148d69433)" style="fill: none; stroke: #f5946b; stroke-width: 1.5; stroke-linecap: square"/>
   </g>
   <g id="line2d_41">
    <path d="M 61.643881 219.030956 
L 68.199726 227.76874 
L 74.795972 218.740603 
L 82.884387 211.061064 
L 87.821471 225.649469 
L 94.334221 220.352064 
L 100.930467 217.101342 
L 107.44591 192.779611 
L 116.689812 216.730987 
L 123.286059 203.087157 
M 136.43815 205.401953 
" clip-path="url(#p2148d69433)" style="fill: none; stroke: #f6ab83; stroke-width: 1.5; stroke-linecap: square"/>
   </g>
   <g id="line2d_42">
    <path d="M 55.131132 217.957884 
L 61.643881 215.879077 
L 68.240128 210.26877 
L 74.752877 218.561448 
L 82.186785 192.686945 
L 87.861873 202.364362 
L 94.460813 211.574743 
L 100.973562 211.657833 
L 107.526713 199.124142 
L 114.12296 177.631812 
L 122.10633 159.160394 
L 128.662175 173.965328 
L 136.890648 155.3302 
L 141.814266 161.751953 
L 148.367417 174.647968 
L 154.923261 181.285941 
L 161.479106 199.695582 
L 167.991856 208.068262 
" clip-path="url(#p2148d69433)" style="fill: none; stroke: #f6ab83; stroke-width: 1.5; stroke-linecap: square"/>
   </g>
   <g id="line2d_43">
    <path d="M 55.131132 230.48478 
L 61.684283 225.476493 
M 81.306028 181.335363 
L 87.818778 140.797086 
L 94.374622 156.494703 
L 102.314898 176.056491 
L 108.913837 170.879551 
L 115.510084 162.814522 
L 122.022833 197.663108 
" clip-path="url(#p2148d69433)" style="fill: none; stroke: #f6c19f; stroke-width: 1.5; stroke-linecap: square"/>
   </g>
   <g id="line2d_44">
    <path d="M 55.131132 198.96661 
L 61.686976 199.905625 
L 68.199726 182.277467 
L 74.795972 179.84344 
L 81.351817 159.249971 
L 87.864566 144.760101 
L 96.769095 165.640835 
L 100.973562 143.468955 
L 107.486312 178.280474 
L 115.510084 151.623561 
L 122.022833 103.41563 
L 128.535583 156.269215 
L 135.091427 148.299941 
L 141.687674 100.370008 
L 149.776088 126.943522 
L 154.713173 156.507058 
L 161.225922 167.420022 
L 167.822168 177.495902 
L 174.337611 189.063705 
L 183.581514 208.113668 
" clip-path="url(#p2148d69433)" style="fill: none; stroke: #f6c19f; stroke-width: 1.5; stroke-linecap: square"/>
   </g>
   <g id="line2d_45">
    <path d="M 72.603508 198.182038 
L 78.114296 186.706901 
L 84.753638 188.365622 
L 91.349884 196.483161 
L 97.905729 201.070127 
L 104.418478 180.155416 
L 110.931228 170.042469 
L 117.570569 193.116297 
L 124.083318 179.182423 
L 130.596068 186.669834 
" clip-path="url(#p2148d69433)" style="fill: none; stroke: #f8d6be; stroke-width: 1.5; stroke-linecap: square"/>
   </g>
   <g id="line2d_46">
    <path d="M 68.156631 211.155275 
L 74.752877 203.022291 
L 81.349123 170.771441 
L 89.811927 147.370193 
L 94.501214 162.131883 
L 101.057059 175.914403 
M 114.249552 166.768271 
L 122.443011 179.621042 
L 129.039257 183.772478 
" clip-path="url(#p2148d69433)" style="fill: none; stroke: #f8d6be; stroke-width: 1.5; stroke-linecap: square"/>
   </g>
   <g id="line2d_47">
    <path d="M 55.131132 217.438646 
L 62.080219 209.774243 
L 68.156631 203.791418 
L 74.712475 209.713701 
L 81.265627 198.268526 
L 87.861873 226.061524 
L 98.156219 222.479984 
L 104.668968 192.325548 
L 111.181718 178.802493 
L 117.694467 198.212926 
L 124.293407 175.750693 
L 130.889653 168.488769 
L 137.4859 148.655161 
L 143.998649 143.382467 
L 151.637259 166.71576 
M 165.134111 161.251556 
" clip-path="url(#p2148d69433)" style="fill: none; stroke: #f8d6be; stroke-width: 1.5; stroke-linecap: square"/>
   </g>
   <g id="line2d_48">
    <path d="M 55.131132 195.920988 
L 61.643881 181.520695 
L 68.240128 174.286571 
L 76.223498 184.980224 
L 82.779343 163.021476 
L 89.292092 155.444488 
L 95.845243 160.624516 
L 103.031354 148.102254 
L 109.040429 184.600294 
L 115.636676 178.033365 
L 122.232922 183.451236 
L 128.788767 172.930558 
L 135.341918 184.618827 
L 143.284886 169.035498 
L 149.881133 154.239831 
" clip-path="url(#p2148d69433)" style="fill: none; stroke: #faebdd; stroke-width: 1.5; stroke-linecap: square"/>
   </g>
   <g id="line2d_49">
    <path d="M 61.686976 227.639008 
L 68.240128 215.745947 
L 76.306995 221.947772 
L 82.819744 217.179799 
L 89.744591 207.979611 
L 95.845243 209.779185 
L 102.357993 188.449021 
L 108.913837 171.058706 
L 115.469682 173.329022 
L 122.065928 176.201667 
M 128.578678 176.995506 
L 145.049093 167.046269 
L 151.645339 188.594198 
L 158.28468 185.3478 
L 166.911784 162.737301 
L 171.436771 173.177668 
L 177.949521 172.810093 
L 184.545767 188.473732 
L 191.018115 159.771989 
" clip-path="url(#p2148d69433)" style="fill: none; stroke: #faebdd; stroke-width: 1.5; stroke-linecap: square"/>
   </g>
   <g id="line2d_50">
    <path d="M 61.643881 226.580453 
L 68.156631 222.986558 
M 81.26832 221.248144 
L 87.864566 199.921069 
L 94.460813 202.395251 
L 100.973562 204.616145 
L 108.612172 210.108767 
L 114.125653 198.422969 
" clip-path="url(#p2148d69433)" style="fill: none; stroke: #faebdd; stroke-width: 1.5; stroke-linecap: square"/>
   </g>
   <g id="line2d_51">
    <path d="M 55.131132 235.347273 
L 57.879545 228.270708 
L 60.627958 222.005166 
L 63.376371 216.457699 
L 66.124784 211.546009 
L 68.873197 207.197233 
L 71.62161 203.346856 
L 74.370023 199.937759 
L 77.118436 196.919367 
L 79.866849 194.246904 
L 82.615262 191.880724 
L 85.363675 189.785724 
L 88.112088 187.930826 
L 90.860501 186.288511 
L 93.608914 184.834417 
L 96.357328 183.546973 
L 99.105741 182.407078 
L 101.854154 181.397823 
L 104.602567 180.504235 
L 107.35098 179.713059 
L 110.099393 179.012557 
L 112.847806 178.392337 
L 115.596219 177.843199 
L 118.344632 177.356996 
L 121.093045 176.926515 
L 123.841458 176.54537 
L 126.589871 176.207907 
L 129.338284 175.90912 
L 132.086697 175.644575 
L 134.83511 175.410349 
L 137.583523 175.202967 
L 140.331936 175.019353 
L 143.08035 174.856782 
L 145.828763 174.712843 
L 148.577176 174.5854 
L 151.325589 174.472563 
L 154.074002 174.372658 
L 156.822415 174.284202 
L 159.570828 174.205884 
L 162.319241 174.136542 
L 165.067654 174.075148 
L 167.816067 174.020789 
L 170.56448 173.97266 
L 173.312893 173.930047 
L 176.061306 173.892318 
L 178.809719 173.858913 
L 181.558132 173.829336 
L 184.306545 173.803149 
L 187.054958 173.779964 
L 189.803371 173.759435 
" clip-path="url(#p2148d69433)" style="fill: none; stroke: #000000; stroke-width: 3; stroke-linecap: square"/>
   </g>
   <g id="patch_3">
    <path d="M 44.57 246.04 
L 44.57 10.8 
" style="fill: none; stroke: #000000; stroke-width: 0.8; stroke-linejoin: miter; stroke-linecap: square"/>
   </g>
   <g id="patch_4">
    <path d="M 276.914898 246.04 
L 276.914898 10.8 
" style="fill: none; stroke: #000000; stroke-width: 0.8; stroke-linejoin: miter; stroke-linecap: square"/>
   </g>
   <g id="patch_5">
    <path d="M 44.57 246.04 
L 276.914898 246.04 
" style="fill: none; stroke: #000000; stroke-width: 0.8; stroke-linejoin: miter; stroke-linecap: square"/>
   </g>
   <g id="patch_6">
    <path d="M 44.57 10.8 
L 276.914898 10.8 
" style="fill: none; stroke: #000000; stroke-width: 0.8; stroke-linejoin: miter; stroke-linecap: square"/>
   </g>
   <g id="legend_1">
    <g id="patch_7">
     <path d="M 203.611773 48.15625 
L 269.914898 48.15625 
Q 271.914898 48.15625 271.914898 46.15625 
L 271.914898 17.8 
Q 271.914898 15.8 269.914898 15.8 
L 203.611773 15.8 
Q 201.611773 15.8 201.611773 17.8 
L 201.611773 46.15625 
Q 201.611773 48.15625 203.611773 48.15625 
z
" style="fill: #ffffff; opacity: 0.8; stroke: #cccccc; stroke-linejoin: miter"/>
    </g>
    <g id="PathCollection_1">
     <defs>
      <path id="m6f96c14ae1" d="M 0 3 
C 0.795609 3 1.55874 2.683901 2.12132 2.12132 
C 2.683901 1.55874 3 0.795609 3 0 
C 3 -0.795609 2.683901 -1.55874 2.12132 -2.12132 
C 1.55874 -2.683901 0.795609 -3 0 -3 
C -0.795609 -3 -1.55874 -2.683901 -2.12132 -2.12132 
C -2.683901 -1.55874 -3 -0.795609 -3 0 
C -3 0.795609 -2.683901 1.55874 -2.12132 2.12132 
C -1.55874 2.683901 -0.795609 3 0 3 
z
" style="stroke: #000000"/>
     </defs>
     <g>
      <use xlink:href="#m6f96c14ae1" x="215.611773" y="24.773438" style="stroke: #000000"/>
     </g>
    </g>
    <g id="text_16">
     <!-- binned -->
     <g transform="translate(233.611773 27.398438) scale(0.1 -0.1)">
      <defs>
       <path id="DejaVuSans-62" d="M 3116 1747 
Q 3116 2381 2855 2742 
Q 2594 3103 2138 3103 
Q 1681 3103 1420 2742 
Q 1159 2381 1159 1747 
Q 1159 1113 1420 752 
Q 1681 391 2138 391 
Q 2594 391 2855 752 
Q 3116 1113 3116 1747 
z
M 1159 2969 
Q 1341 3281 1617 3432 
Q 1894 3584 2278 3584 
Q 2916 3584 3314 3078 
Q 3713 2572 3713 1747 
Q 3713 922 3314 415 
Q 2916 -91 2278 -91 
Q 1894 -91 1617 61 
Q 1341 213 1159 525 
L 1159 0 
L 581 0 
L 581 4863 
L 1159 4863 
L 1159 2969 
z
" transform="scale(0.015625)"/>
       <path id="DejaVuSans-64" d="M 2906 2969 
L 2906 4863 
L 3481 4863 
L 3481 0 
L 2906 0 
L 2906 525 
Q 2725 213 2448 61 
Q 2172 -91 1784 -91 
Q 1150 -91 751 415 
Q 353 922 353 1747 
Q 353 2572 751 3078 
Q 1150 3584 1784 3584 
Q 2172 3584 2448 3432 
Q 2725 3281 2906 2969 
z
M 947 1747 
Q 947 1113 1208 752 
Q 1469 391 1925 391 
Q 2381 391 2643 752 
Q 2906 1113 2906 1747 
Q 2906 2381 2643 2742 
Q 2381 3103 1925 3103 
Q 1469 3103 1208 2742 
Q 947 2381 947 1747 
z
" transform="scale(0.015625)"/>
      </defs>
      <use xlink:href="#DejaVuSans-62"/>
      <use xlink:href="#DejaVuSans-69" x="63.476562"/>
      <use xlink:href="#DejaVuSans-6e" x="91.259766"/>
      <use xlink:href="#DejaVuSans-6e" x="154.638672"/>
      <use xlink:href="#DejaVuSans-65" x="218.017578"/>
      <use xlink:href="#DejaVuSans-64" x="279.541016"/>
     </g>
    </g>
    <g id="line2d_52">
     <path d="M 205.611773 38.576562 
L 215.611773 38.576562 
L 225.611773 38.576562 
" style="fill: none; stroke: #000000; stroke-width: 3; stroke-linecap: square"/>
    </g>
    <g id="text_17">
     <!-- fit -->
     <g transform="translate(233.611773 42.076562) scale(0.1 -0.1)">
      <defs>
       <path id="DejaVuSans-66" d="M 2375 4863 
L 2375 4384 
L 1825 4384 
Q 1516 4384 1395 4259 
Q 1275 4134 1275 3809 
L 1275 3500 
L 2222 3500 
L 2222 3053 
L 1275 3053 
L 1275 0 
L 697 0 
L 697 3053 
L 147 3053 
L 147 3500 
L 697 3500 
L 697 3744 
Q 697 4328 969 4595 
Q 1241 4863 1831 4863 
L 2375 4863 
z
" transform="scale(0.015625)"/>
      </defs>
      <use xlink:href="#DejaVuSans-66"/>
      <use xlink:href="#DejaVuSans-69" x="35.205078"/>
      <use xlink:href="#DejaVuSans-74" x="62.988281"/>
     </g>
    </g>
   </g>
   <g id="PathCollection_2">
    <g clip-path="url(#p2148d69433)">
     <use xlink:href="#m6f96c14ae1" x="61.864744" y="210.223551" style="stroke: #000000"/>
     <use xlink:href="#m6f96c14ae1" x="75.331968" y="194.452276" style="stroke: #000000"/>
     <use xlink:href="#m6f96c14ae1" x="88.799192" y="191.616105" style="stroke: #000000"/>
     <use xlink:href="#m6f96c14ae1" x="102.266416" y="184.066745" style="stroke: #000000"/>
     <use xlink:href="#m6f96c14ae1" x="115.73364" y="176.963116" style="stroke: #000000"/>
     <use xlink:href="#m6f96c14ae1" x="129.200864" y="180.175185" style="stroke: #000000"/>
     <use xlink:href="#m6f96c14ae1" x="142.668088" y="174.125881" style="stroke: #000000"/>
     <use xlink:href="#m6f96c14ae1" x="156.135312" y="169.936052" style="stroke: #000000"/>
     <use xlink:href="#m6f96c14ae1" x="169.602535" y="167.245009" style="stroke: #000000"/>
     <use xlink:href="#m6f96c14ae1" x="183.069759" y="172.989159" style="stroke: #000000"/>
     <use xlink:href="#m6f96c14ae1" x="196.536983" y="180.296017" style="stroke: #000000"/>
    </g>
   </g>
  </g>
 </g>
 <defs>
  <clipPath id="p2148d69433">
   <rect x="44.57" y="10.8" width="232.344898" height="235.24"/>
  </clipPath>
 </defs>
</svg>
