<?xml version="1.0" encoding="utf-8" standalone="no"?>
<!DOCTYPE svg PUBLIC "-//W3C//DTD SVG 1.1//EN"
  "http://www.w3.org/Graphics/SVG/1.1/DTD/svg11.dtd">
<svg xmlns:xlink="http://www.w3.org/1999/xlink" width="288pt" height="288pt" viewBox="0 0 288 288" xmlns="http://www.w3.org/2000/svg" version="1.1">
 <metadata>
  <rdf:RDF xmlns:dc="http://purl.org/dc/elements/1.1/" xmlns:cc="http://creativecommons.org/ns#" xmlns:rdf="http://www.w3.org/1999/02/22-rdf-syntax-ns#">
   <cc:Work>
    <dc:type rdf:resource="http://purl.org/dc/dcmitype/StillImage"/>
    <dc:date>2022-03-14T14:44:56.409840</dc:date>
    <dc:format>image/svg+xml</dc:format>
    <dc:creator>
     <cc:Agent>
      <dc:title>Matplotlib v3.5.1, https://matplotlib.org/</dc:title>
     </cc:Agent>
    </dc:creator>
   </cc:Work>
  </rdf:RDF>
 </metadata>
 <defs>
  <style type="text/css">*{stroke-linejoin: round; stroke-linecap: butt}</style>
 </defs>
 <g id="figure_1">
  <g id="patch_1">
   <path d="M 0 288 
L 288 288 
L 288 0 
L 0 0 
z
" style="fill: #ffffff"/>
  </g>
  <g id="axes_1">
   <g id="patch_2">
    <path d="M 47.855 246.04 
L 276.487633 246.04 
L 276.487633 10.8 
L 47.855 10.8 
z
" style="fill: #ffffff"/>
   </g>
   <g id="matplotlib.axis_1">
    <g id="xtick_1">
     <g id="line2d_1">
      <defs>
       <path id="m254297b580" d="M 0 0 
L 0 3.5 
" style="stroke: #000000; stroke-width: 0.8"/>
      </defs>
      <g>
       <use xlink:href="#m254297b580" x="95.9153" y="246.04" style="stroke: #000000; stroke-width: 0.8"/>
      </g>
     </g>
     <g id="text_1">
      <!-- 20 -->
      <g transform="translate(89.5528 260.638438)scale(0.1 -0.1)">
       <defs>
        <path id="DejaVuSans-32" d="M 1228 531 
L 3431 531 
L 3431 0 
L 469 0 
L 469 531 
Q 828 903 1448 1529 
Q 2069 2156 2228 2338 
Q 2531 2678 2651 2914 
Q 2772 3150 2772 3378 
Q 2772 3750 2511 3984 
Q 2250 4219 1831 4219 
Q 1534 4219 1204 4116 
Q 875 4013 500 3803 
L 500 4441 
Q 881 4594 1212 4672 
Q 1544 4750 1819 4750 
Q 2544 4750 2975 4387 
Q 3406 4025 3406 3419 
Q 3406 3131 3298 2873 
Q 3191 2616 2906 2266 
Q 2828 2175 2409 1742 
Q 1991 1309 1228 531 
z
" transform="scale(0.015625)"/>
        <path id="DejaVuSans-30" d="M 2034 4250 
Q 1547 4250 1301 3770 
Q 1056 3291 1056 2328 
Q 1056 1369 1301 889 
Q 1547 409 2034 409 
Q 2525 409 2770 889 
Q 3016 1369 3016 2328 
Q 3016 3291 2770 3770 
Q 2525 4250 2034 4250 
z
M 2034 4750 
Q 2819 4750 3233 4129 
Q 3647 3509 3647 2328 
Q 3647 1150 3233 529 
Q 2819 -91 2034 -91 
Q 1250 -91 836 529 
Q 422 1150 422 2328 
Q 422 3509 836 4129 
Q 1250 4750 2034 4750 
z
" transform="scale(0.015625)"/>
       </defs>
       <use xlink:href="#DejaVuSans-32"/>
       <use xlink:href="#DejaVuSans-30" x="63.623047"/>
      </g>
     </g>
    </g>
    <g id="xtick_2">
     <g id="line2d_2">
      <g>
       <use xlink:href="#m254297b580" x="154.175152" y="246.04" style="stroke: #000000; stroke-width: 0.8"/>
      </g>
     </g>
     <g id="text_2">
      <!-- 40 -->
      <g transform="translate(147.812652 260.638438)scale(0.1 -0.1)">
       <defs>
        <path id="DejaVuSans-34" d="M 2419 4116 
L 825 1625 
L 2419 1625 
L 2419 4116 
z
M 2253 4666 
L 3047 4666 
L 3047 1625 
L 3713 1625 
L 3713 1100 
L 3047 1100 
L 3047 0 
L 2419 0 
L 2419 1100 
L 313 1100 
L 313 1709 
L 2253 4666 
z
" transform="scale(0.015625)"/>
       </defs>
       <use xlink:href="#DejaVuSans-34"/>
       <use xlink:href="#DejaVuSans-30" x="63.623047"/>
      </g>
     </g>
    </g>
    <g id="xtick_3">
     <g id="line2d_3">
      <g>
       <use xlink:href="#m254297b580" x="212.435004" y="246.04" style="stroke: #000000; stroke-width: 0.8"/>
      </g>
     </g>
     <g id="text_3">
      <!-- 60 -->
      <g transform="translate(206.072504 260.638438)scale(0.1 -0.1)">
       <defs>
        <path id="DejaVuSans-36" d="M 2113 2584 
Q 1688 2584 1439 2293 
Q 1191 2003 1191 1497 
Q 1191 994 1439 701 
Q 1688 409 2113 409 
Q 2538 409 2786 701 
Q 3034 994 3034 1497 
Q 3034 2003 2786 2293 
Q 2538 2584 2113 2584 
z
M 3366 4563 
L 3366 3988 
Q 3128 4100 2886 4159 
Q 2644 4219 2406 4219 
Q 1781 4219 1451 3797 
Q 1122 3375 1075 2522 
Q 1259 2794 1537 2939 
Q 1816 3084 2150 3084 
Q 2853 3084 3261 2657 
Q 3669 2231 3669 1497 
Q 3669 778 3244 343 
Q 2819 -91 2113 -91 
Q 1303 -91 875 529 
Q 447 1150 447 2328 
Q 447 3434 972 4092 
Q 1497 4750 2381 4750 
Q 2619 4750 2861 4703 
Q 3103 4656 3366 4563 
z
" transform="scale(0.015625)"/>
       </defs>
       <use xlink:href="#DejaVuSans-36"/>
       <use xlink:href="#DejaVuSans-30" x="63.623047"/>
      </g>
     </g>
    </g>
    <g id="xtick_4">
     <g id="line2d_4">
      <g>
       <use xlink:href="#m254297b580" x="270.694855" y="246.04" style="stroke: #000000; stroke-width: 0.8"/>
      </g>
     </g>
     <g id="text_4">
      <!-- 80 -->
      <g transform="translate(264.332355 260.638438)scale(0.1 -0.1)">
       <defs>
        <path id="DejaVuSans-38" d="M 2034 2216 
Q 1584 2216 1326 1975 
Q 1069 1734 1069 1313 
Q 1069 891 1326 650 
Q 1584 409 2034 409 
Q 2484 409 2743 651 
Q 3003 894 3003 1313 
Q 3003 1734 2745 1975 
Q 2488 2216 2034 2216 
z
M 1403 2484 
Q 997 2584 770 2862 
Q 544 3141 544 3541 
Q 544 4100 942 4425 
Q 1341 4750 2034 4750 
Q 2731 4750 3128 4425 
Q 3525 4100 3525 3541 
Q 3525 3141 3298 2862 
Q 3072 2584 2669 2484 
Q 3125 2378 3379 2068 
Q 3634 1759 3634 1313 
Q 3634 634 3220 271 
Q 2806 -91 2034 -91 
Q 1263 -91 848 271 
Q 434 634 434 1313 
Q 434 1759 690 2068 
Q 947 2378 1403 2484 
z
M 1172 3481 
Q 1172 3119 1398 2916 
Q 1625 2713 2034 2713 
Q 2441 2713 2670 2916 
Q 2900 3119 2900 3481 
Q 2900 3844 2670 4047 
Q 2441 4250 2034 4250 
Q 1625 4250 1398 4047 
Q 1172 3844 1172 3481 
z
" transform="scale(0.015625)"/>
       </defs>
       <use xlink:href="#DejaVuSans-38"/>
       <use xlink:href="#DejaVuSans-30" x="63.623047"/>
      </g>
     </g>
    </g>
    <g id="text_5">
     <!-- Time (s) -->
     <g transform="translate(141.84241 274.316562)scale(0.1 -0.1)">
      <defs>
       <path id="DejaVuSans-54" d="M -19 4666 
L 3928 4666 
L 3928 4134 
L 2272 4134 
L 2272 0 
L 1638 0 
L 1638 4134 
L -19 4134 
L -19 4666 
z
" transform="scale(0.015625)"/>
       <path id="DejaVuSans-69" d="M 603 3500 
L 1178 3500 
L 1178 0 
L 603 0 
L 603 3500 
z
M 603 4863 
L 1178 4863 
L 1178 4134 
L 603 4134 
L 603 4863 
z
" transform="scale(0.015625)"/>
       <path id="DejaVuSans-6d" d="M 3328 2828 
Q 3544 3216 3844 3400 
Q 4144 3584 4550 3584 
Q 5097 3584 5394 3201 
Q 5691 2819 5691 2113 
L 5691 0 
L 5113 0 
L 5113 2094 
Q 5113 2597 4934 2840 
Q 4756 3084 4391 3084 
Q 3944 3084 3684 2787 
Q 3425 2491 3425 1978 
L 3425 0 
L 2847 0 
L 2847 2094 
Q 2847 2600 2669 2842 
Q 2491 3084 2119 3084 
Q 1678 3084 1418 2786 
Q 1159 2488 1159 1978 
L 1159 0 
L 581 0 
L 581 3500 
L 1159 3500 
L 1159 2956 
Q 1356 3278 1631 3431 
Q 1906 3584 2284 3584 
Q 2666 3584 2933 3390 
Q 3200 3197 3328 2828 
z
" transform="scale(0.015625)"/>
       <path id="DejaVuSans-65" d="M 3597 1894 
L 3597 1613 
L 953 1613 
Q 991 1019 1311 708 
Q 1631 397 2203 397 
Q 2534 397 2845 478 
Q 3156 559 3463 722 
L 3463 178 
Q 3153 47 2828 -22 
Q 2503 -91 2169 -91 
Q 1331 -91 842 396 
Q 353 884 353 1716 
Q 353 2575 817 3079 
Q 1281 3584 2069 3584 
Q 2775 3584 3186 3129 
Q 3597 2675 3597 1894 
z
M 3022 2063 
Q 3016 2534 2758 2815 
Q 2500 3097 2075 3097 
Q 1594 3097 1305 2825 
Q 1016 2553 972 2059 
L 3022 2063 
z
" transform="scale(0.015625)"/>
       <path id="DejaVuSans-20" transform="scale(0.015625)"/>
       <path id="DejaVuSans-28" d="M 1984 4856 
Q 1566 4138 1362 3434 
Q 1159 2731 1159 2009 
Q 1159 1288 1364 580 
Q 1569 -128 1984 -844 
L 1484 -844 
Q 1016 -109 783 600 
Q 550 1309 550 2009 
Q 550 2706 781 3412 
Q 1013 4119 1484 4856 
L 1984 4856 
z
" transform="scale(0.015625)"/>
       <path id="DejaVuSans-73" d="M 2834 3397 
L 2834 2853 
Q 2591 2978 2328 3040 
Q 2066 3103 1784 3103 
Q 1356 3103 1142 2972 
Q 928 2841 928 2578 
Q 928 2378 1081 2264 
Q 1234 2150 1697 2047 
L 1894 2003 
Q 2506 1872 2764 1633 
Q 3022 1394 3022 966 
Q 3022 478 2636 193 
Q 2250 -91 1575 -91 
Q 1294 -91 989 -36 
Q 684 19 347 128 
L 347 722 
Q 666 556 975 473 
Q 1284 391 1588 391 
Q 1994 391 2212 530 
Q 2431 669 2431 922 
Q 2431 1156 2273 1281 
Q 2116 1406 1581 1522 
L 1381 1569 
Q 847 1681 609 1914 
Q 372 2147 372 2553 
Q 372 3047 722 3315 
Q 1072 3584 1716 3584 
Q 2034 3584 2315 3537 
Q 2597 3491 2834 3397 
z
" transform="scale(0.015625)"/>
       <path id="DejaVuSans-29" d="M 513 4856 
L 1013 4856 
Q 1481 4119 1714 3412 
Q 1947 2706 1947 2009 
Q 1947 1309 1714 600 
Q 1481 -109 1013 -844 
L 513 -844 
Q 928 -128 1133 580 
Q 1338 1288 1338 2009 
Q 1338 2731 1133 3434 
Q 928 4138 513 4856 
z
" transform="scale(0.015625)"/>
      </defs>
      <use xlink:href="#DejaVuSans-54"/>
      <use xlink:href="#DejaVuSans-69" x="57.958984"/>
      <use xlink:href="#DejaVuSans-6d" x="85.742188"/>
      <use xlink:href="#DejaVuSans-65" x="183.154297"/>
      <use xlink:href="#DejaVuSans-20" x="244.677734"/>
      <use xlink:href="#DejaVuSans-28" x="276.464844"/>
      <use xlink:href="#DejaVuSans-73" x="315.478516"/>
      <use xlink:href="#DejaVuSans-29" x="367.578125"/>
     </g>
    </g>
   </g>
   <g id="matplotlib.axis_2">
    <g id="ytick_1">
     <g id="line2d_5">
      <defs>
       <path id="mc4f3b40349" d="M 0 0 
L -3.5 0 
" style="stroke: #000000; stroke-width: 0.8"/>
      </defs>
      <g>
       <use xlink:href="#mc4f3b40349" x="47.855" y="232.022758" style="stroke: #000000; stroke-width: 0.8"/>
      </g>
     </g>
     <g id="text_6">
      <!-- 0.0 -->
      <g transform="translate(24.951875 235.821976)scale(0.1 -0.1)">
       <defs>
        <path id="DejaVuSans-2e" d="M 684 794 
L 1344 794 
L 1344 0 
L 684 0 
L 684 794 
z
" transform="scale(0.015625)"/>
       </defs>
       <use xlink:href="#DejaVuSans-30"/>
       <use xlink:href="#DejaVuSans-2e" x="63.623047"/>
       <use xlink:href="#DejaVuSans-30" x="95.410156"/>
      </g>
     </g>
    </g>
    <g id="ytick_2">
     <g id="line2d_6">
      <g>
       <use xlink:href="#mc4f3b40349" x="47.855" y="191.687471" style="stroke: #000000; stroke-width: 0.8"/>
      </g>
     </g>
     <g id="text_7">
      <!-- 0.1 -->
      <g transform="translate(24.951875 195.486689)scale(0.1 -0.1)">
       <defs>
        <path id="DejaVuSans-31" d="M 794 531 
L 1825 531 
L 1825 4091 
L 703 3866 
L 703 4441 
L 1819 4666 
L 2450 4666 
L 2450 531 
L 3481 531 
L 3481 0 
L 794 0 
L 794 531 
z
" transform="scale(0.015625)"/>
       </defs>
       <use xlink:href="#DejaVuSans-30"/>
       <use xlink:href="#DejaVuSans-2e" x="63.623047"/>
       <use xlink:href="#DejaVuSans-31" x="95.410156"/>
      </g>
     </g>
    </g>
    <g id="ytick_3">
     <g id="line2d_7">
      <g>
       <use xlink:href="#mc4f3b40349" x="47.855" y="151.352184" style="stroke: #000000; stroke-width: 0.8"/>
      </g>
     </g>
     <g id="text_8">
      <!-- 0.2 -->
      <g transform="translate(24.951875 155.151402)scale(0.1 -0.1)">
       <use xlink:href="#DejaVuSans-30"/>
       <use xlink:href="#DejaVuSans-2e" x="63.623047"/>
       <use xlink:href="#DejaVuSans-32" x="95.410156"/>
      </g>
     </g>
    </g>
    <g id="ytick_4">
     <g id="line2d_8">
      <g>
       <use xlink:href="#mc4f3b40349" x="47.855" y="111.016897" style="stroke: #000000; stroke-width: 0.8"/>
      </g>
     </g>
     <g id="text_9">
      <!-- 0.3 -->
      <g transform="translate(24.951875 114.816115)scale(0.1 -0.1)">
       <defs>
        <path id="DejaVuSans-33" d="M 2597 2516 
Q 3050 2419 3304 2112 
Q 3559 1806 3559 1356 
Q 3559 666 3084 287 
Q 2609 -91 1734 -91 
Q 1441 -91 1130 -33 
Q 819 25 488 141 
L 488 750 
Q 750 597 1062 519 
Q 1375 441 1716 441 
Q 2309 441 2620 675 
Q 2931 909 2931 1356 
Q 2931 1769 2642 2001 
Q 2353 2234 1838 2234 
L 1294 2234 
L 1294 2753 
L 1863 2753 
Q 2328 2753 2575 2939 
Q 2822 3125 2822 3475 
Q 2822 3834 2567 4026 
Q 2313 4219 1838 4219 
Q 1578 4219 1281 4162 
Q 984 4106 628 3988 
L 628 4550 
Q 988 4650 1302 4700 
Q 1616 4750 1894 4750 
Q 2613 4750 3031 4423 
Q 3450 4097 3450 3541 
Q 3450 3153 3228 2886 
Q 3006 2619 2597 2516 
z
" transform="scale(0.015625)"/>
       </defs>
       <use xlink:href="#DejaVuSans-30"/>
       <use xlink:href="#DejaVuSans-2e" x="63.623047"/>
       <use xlink:href="#DejaVuSans-33" x="95.410156"/>
      </g>
     </g>
    </g>
    <g id="ytick_5">
     <g id="line2d_9">
      <g>
       <use xlink:href="#mc4f3b40349" x="47.855" y="70.68161" style="stroke: #000000; stroke-width: 0.8"/>
      </g>
     </g>
     <g id="text_10">
      <!-- 0.4 -->
      <g transform="translate(24.951875 74.480829)scale(0.1 -0.1)">
       <use xlink:href="#DejaVuSans-30"/>
       <use xlink:href="#DejaVuSans-2e" x="63.623047"/>
       <use xlink:href="#DejaVuSans-34" x="95.410156"/>
      </g>
     </g>
    </g>
    <g id="ytick_6">
     <g id="line2d_10">
      <g>
       <use xlink:href="#mc4f3b40349" x="47.855" y="30.346323" style="stroke: #000000; stroke-width: 0.8"/>
      </g>
     </g>
     <g id="text_11">
      <!-- 0.5 -->
      <g transform="translate(24.951875 34.145542)scale(0.1 -0.1)">
       <defs>
        <path id="DejaVuSans-35" d="M 691 4666 
L 3169 4666 
L 3169 4134 
L 1269 4134 
L 1269 2991 
Q 1406 3038 1543 3061 
Q 1681 3084 1819 3084 
Q 2600 3084 3056 2656 
Q 3513 2228 3513 1497 
Q 3513 744 3044 326 
Q 2575 -91 1722 -91 
Q 1428 -91 1123 -41 
Q 819 9 494 109 
L 494 744 
Q 775 591 1075 516 
Q 1375 441 1709 441 
Q 2250 441 2565 725 
Q 2881 1009 2881 1497 
Q 2881 1984 2565 2268 
Q 2250 2553 1709 2553 
Q 1456 2553 1204 2497 
Q 953 2441 691 2322 
L 691 4666 
z
" transform="scale(0.015625)"/>
       </defs>
       <use xlink:href="#DejaVuSans-30"/>
       <use xlink:href="#DejaVuSans-2e" x="63.623047"/>
       <use xlink:href="#DejaVuSans-35" x="95.410156"/>
      </g>
     </g>
    </g>
    <g id="text_12">
     <!-- Velocity (μm/s) -->
     <g transform="translate(18.872187 165.866875)rotate(-90)scale(0.1 -0.1)">
      <defs>
       <path id="DejaVuSans-56" d="M 1831 0 
L 50 4666 
L 709 4666 
L 2188 738 
L 3669 4666 
L 4325 4666 
L 2547 0 
L 1831 0 
z
" transform="scale(0.015625)"/>
       <path id="DejaVuSans-6c" d="M 603 4863 
L 1178 4863 
L 1178 0 
L 603 0 
L 603 4863 
z
" transform="scale(0.015625)"/>
       <path id="DejaVuSans-6f" d="M 1959 3097 
Q 1497 3097 1228 2736 
Q 959 2375 959 1747 
Q 959 1119 1226 758 
Q 1494 397 1959 397 
Q 2419 397 2687 759 
Q 2956 1122 2956 1747 
Q 2956 2369 2687 2733 
Q 2419 3097 1959 3097 
z
M 1959 3584 
Q 2709 3584 3137 3096 
Q 3566 2609 3566 1747 
Q 3566 888 3137 398 
Q 2709 -91 1959 -91 
Q 1206 -91 779 398 
Q 353 888 353 1747 
Q 353 2609 779 3096 
Q 1206 3584 1959 3584 
z
" transform="scale(0.015625)"/>
       <path id="DejaVuSans-63" d="M 3122 3366 
L 3122 2828 
Q 2878 2963 2633 3030 
Q 2388 3097 2138 3097 
Q 1578 3097 1268 2742 
Q 959 2388 959 1747 
Q 959 1106 1268 751 
Q 1578 397 2138 397 
Q 2388 397 2633 464 
Q 2878 531 3122 666 
L 3122 134 
Q 2881 22 2623 -34 
Q 2366 -91 2075 -91 
Q 1284 -91 818 406 
Q 353 903 353 1747 
Q 353 2603 823 3093 
Q 1294 3584 2113 3584 
Q 2378 3584 2631 3529 
Q 2884 3475 3122 3366 
z
" transform="scale(0.015625)"/>
       <path id="DejaVuSans-74" d="M 1172 4494 
L 1172 3500 
L 2356 3500 
L 2356 3053 
L 1172 3053 
L 1172 1153 
Q 1172 725 1289 603 
Q 1406 481 1766 481 
L 2356 481 
L 2356 0 
L 1766 0 
Q 1100 0 847 248 
Q 594 497 594 1153 
L 594 3053 
L 172 3053 
L 172 3500 
L 594 3500 
L 594 4494 
L 1172 4494 
z
" transform="scale(0.015625)"/>
       <path id="DejaVuSans-79" d="M 2059 -325 
Q 1816 -950 1584 -1140 
Q 1353 -1331 966 -1331 
L 506 -1331 
L 506 -850 
L 844 -850 
Q 1081 -850 1212 -737 
Q 1344 -625 1503 -206 
L 1606 56 
L 191 3500 
L 800 3500 
L 1894 763 
L 2988 3500 
L 3597 3500 
L 2059 -325 
z
" transform="scale(0.015625)"/>
       <path id="DejaVuSans-3bc" d="M 544 -1331 
L 544 3500 
L 1119 3500 
L 1119 1325 
Q 1119 872 1334 640 
Q 1550 409 1972 409 
Q 2434 409 2667 671 
Q 2900 934 2900 1459 
L 2900 3500 
L 3475 3500 
L 3475 806 
Q 3475 619 3529 530 
Q 3584 441 3700 441 
Q 3728 441 3778 458 
Q 3828 475 3916 513 
L 3916 50 
Q 3788 -22 3673 -56 
Q 3559 -91 3450 -91 
Q 3234 -91 3106 31 
Q 2978 153 2931 403 
Q 2775 156 2548 32 
Q 2322 -91 2016 -91 
Q 1697 -91 1473 31 
Q 1250 153 1119 397 
L 1119 -1331 
L 544 -1331 
z
" transform="scale(0.015625)"/>
       <path id="DejaVuSans-2f" d="M 1625 4666 
L 2156 4666 
L 531 -594 
L 0 -594 
L 1625 4666 
z
" transform="scale(0.015625)"/>
      </defs>
      <use xlink:href="#DejaVuSans-56"/>
      <use xlink:href="#DejaVuSans-65" x="60.658203"/>
      <use xlink:href="#DejaVuSans-6c" x="122.181641"/>
      <use xlink:href="#DejaVuSans-6f" x="149.964844"/>
      <use xlink:href="#DejaVuSans-63" x="211.146484"/>
      <use xlink:href="#DejaVuSans-69" x="266.126953"/>
      <use xlink:href="#DejaVuSans-74" x="293.910156"/>
      <use xlink:href="#DejaVuSans-79" x="333.119141"/>
      <use xlink:href="#DejaVuSans-20" x="392.298828"/>
      <use xlink:href="#DejaVuSans-28" x="424.085938"/>
      <use xlink:href="#DejaVuSans-3bc" x="463.099609"/>
      <use xlink:href="#DejaVuSans-6d" x="526.722656"/>
      <use xlink:href="#DejaVuSans-2f" x="624.134766"/>
      <use xlink:href="#DejaVuSans-73" x="657.826172"/>
      <use xlink:href="#DejaVuSans-29" x="709.925781"/>
     </g>
    </g>
   </g>
   <g id="line2d_11">
    <path d="M 66.284339 203.402451 
L 73.464866 162.496824 
" clip-path="url(#pdca6990f8f)" style="fill: none; stroke: #03051a; stroke-width: 1.5; stroke-linecap: square"/>
   </g>
   <g id="line2d_12">
    <path d="M 62.512014 182.720936 
L 69.782843 163.271261 
L 76.916762 152.731651 
L 84.097289 177.35231 
L 91.187513 175.081433 
L 98.365126 188.331575 
" clip-path="url(#pdca6990f8f)" style="fill: none; stroke: #03051a; stroke-width: 1.5; stroke-linecap: square"/>
   </g>
   <g id="line2d_13">
    <path d="M 60.650611 213.219254 
M 74.918449 152.562242 
L 82.23006 196.604746 
L 89.323197 201.617212 
" clip-path="url(#pdca6990f8f)" style="fill: none; stroke: #160e27; stroke-width: 1.5; stroke-linecap: square"/>
   </g>
   <g id="line2d_14">
    <path d="M 62.328495 185.996162 
L 67.647619 156.458631 
L 74.781538 184.556192 
L 81.962065 192.824926 
" clip-path="url(#pdca6990f8f)" style="fill: none; stroke: #160e27; stroke-width: 1.5; stroke-linecap: square"/>
   </g>
   <g id="line2d_15">
    <path d="M 58.966902 156.946688 
L 69.054595 186.262375 
L 76.235122 160.669635 
L 83.188435 181.373738 
L 90.322354 180.397624 
L 97.412578 180.220149 
L 104.546497 210.847539 
L 111.727023 199.556079 
L 118.77064 186.109101 
M 125.904558 167.199918 
L 143.764116 180.127377 
L 150.807732 187.553104 
L 158.031954 203.379864 
L 165.302783 173.447854 
L 172.393007 200.031228 
L 181.283461 205.380494 
L 186.570542 167.756545 
L 193.704461 188.020993 
L 200.884988 185.955826 
L 207.975212 197.351352 
" clip-path="url(#pdca6990f8f)" style="fill: none; stroke: #2a1636; stroke-width: 1.5; stroke-linecap: square"/>
   </g>
   <g id="line2d_16">
    <path d="M 59.103812 167.349159 
L 66.237731 195.554011 
L 73.28426 212.493622 
L 80.418179 202.508622 
L 87.415187 213.518138 
L 96.497898 205.345806 
L 105.091226 149.940449 
" clip-path="url(#pdca6990f8f)" style="fill: none; stroke: #2a1636; stroke-width: 1.5; stroke-linecap: square"/>
   </g>
   <g id="line2d_17">
    <path d="M 59.013509 163.238993 
L 66.10082 187.53697 
L 73.79986 155.551087 
L 80.415266 163.017149 
L 87.552098 212.199981 
L 94.639409 201.72531 
L 103.54734 213.672219 
M 117.815178 147.108912 
L 124.858794 173.831039 
" clip-path="url(#pdca6990f8f)" style="fill: none; stroke: #2a1636; stroke-width: 1.5; stroke-linecap: square"/>
   </g>
   <g id="line2d_18">
    <path d="M 58.966902 157.563818 
L 66.147428 157.495248 
L 75.05536 175.944608 
L 82.189279 142.067001 
L 89.27659 160.661568 
L 96.413421 188.432413 
L 103.500732 158.36649 
L 110.634651 179.784528 
L 117.771483 182.402288 
L 124.905402 176.557705 
L 133.434644 198.234694 
L 139.129545 190.787994 
L 147.763655 198.192746 
L 154.987877 200.842774 
L 162.168403 221.786872 
L 169.302322 202.098008 
" clip-path="url(#pdca6990f8f)" style="fill: none; stroke: #3f1b43; stroke-width: 1.5; stroke-linecap: square"/>
   </g>
   <g id="line2d_19">
    <path d="M 58.247392 139.671085 
L 65.471614 143.228657 
L 72.605533 172.915428 
L 81.286251 177.941205 
" clip-path="url(#pdca6990f8f)" style="fill: none; stroke: #3f1b43; stroke-width: 1.5; stroke-linecap: square"/>
   </g>
   <g id="line2d_20">
    <path d="M 63.965597 142.942276 
L 73.54643 156.829716 
L 78.18974 125.343991 
L 85.277051 94.237417 
L 92.504185 111.734865 
L 99.547801 132.233258 
L 106.68172 172.491908 
" clip-path="url(#pdca6990f8f)" style="fill: none; stroke: #541e4e; stroke-width: 1.5; stroke-linecap: square"/>
   </g>
   <g id="line2d_21">
    <path d="M 59.15042 121.19349 
L 66.284339 156.164183 
L 75.008752 120.624762 
L 83.97203 129.893811 
L 89.4135 114.179183 
L 96.547419 171.418989 
L 103.684251 127.316386 
L 110.81817 177.473316 
L 117.998697 176.569805 
L 125.086008 196.21551 
M 132.219926 210.317533 
L 150.079484 196.542629 
L 157.306619 183.68495 
L 164.440538 152.195191 
L 171.574456 185.112819 
L 178.708375 194.810632 
L 185.842294 190.683122 
M 207.246964 167.482265 
L 214.29058 212.880437 
L 222.971298 208.521403 
L 230.058609 132.003347 
L 237.329438 194.439951 
L 244.463357 207.134676 
L 251.690492 183.838224 
L 258.914713 174.698248 
L 266.09524 213.136566 
" clip-path="url(#pdca6990f8f)" style="fill: none; stroke: #541e4e; stroke-width: 1.5; stroke-linecap: square"/>
   </g>
   <g id="line2d_22">
    <path d="M 74.962144 183.963263 
L 82.096063 204.769011 
M 96.366814 146.447413 
L 103.591035 214.990376 
L 110.724954 165.328361 
L 117.815178 177.199036 
L 124.858794 169.769276 
L 131.949018 187.303025 
L 139.082937 196.635804 
L 147.94426 192.571217 
L 155.124787 163.158322 
L 164.460928 194.923974 
L 169.255714 160.157377 
L 176.392546 182.507159 
L 183.479857 220.855127 
L 190.570081 134.068513 
" clip-path="url(#pdca6990f8f)" style="fill: none; stroke: #6d1f56; stroke-width: 1.5; stroke-linecap: square"/>
   </g>
   <g id="line2d_23">
    <path d="M 60.738001 180.800977 
L 67.918528 190.993704 
L 75.145662 183.459072 
L 82.232973 126.868665 
" clip-path="url(#pdca6990f8f)" style="fill: none; stroke: #6d1f56; stroke-width: 1.5; stroke-linecap: square"/>
   </g>
   <g id="line2d_24">
    <path d="M 69.873146 216.64735 
L 76.96337 214.539831 
L 84.097289 175.694529 
L 91.1846 149.274916 
L 98.411734 182.781439 
L 105.545653 183.535709 
L 112.679572 210.685391 
" clip-path="url(#pdca6990f8f)" style="fill: none; stroke: #6d1f56; stroke-width: 1.5; stroke-linecap: square"/>
   </g>
   <g id="line2d_25">
    <path d="M 59.103812 180.377456 
L 66.284339 167.324957 
L 73.508561 198.203636 
L 80.689087 176.686777 
L 87.823006 174.980595 
L 94.866622 181.518945 
L 104.045462 210.392557 
L 113.95255 128.562747 
L 121.176771 181.990868 
L 128.313603 162.206409 
L 135.584433 175.807468 
" clip-path="url(#pdca6990f8f)" style="fill: none; stroke: #841e5a; stroke-width: 1.5; stroke-linecap: square"/>
   </g>
   <g id="line2d_26">
    <path d="M 61.416728 161.72642 
L 67.510709 134.641274 
L 74.73493 153.312479 
L 81.825154 193.364612 
L 89.049376 188.178301 
L 96.186208 151.319915 
M 103.273519 177.50155 
L 121.042774 152.497706 
L 128.130085 208.935243 
L 135.266917 195.93639 
L 142.400836 205.671311 
L 149.534754 201.959658 
L 159.20589 215.366301 
L 163.8492 150.222796 
L 171.265679 199.003082 
L 178.210254 223.839938 
L 185.297565 209.847627 
L 193.978282 209.890382 
L 201.158809 194.688416 
" clip-path="url(#pdca6990f8f)" style="fill: none; stroke: #9c1b5b; stroke-width: 1.5; stroke-linecap: square"/>
   </g>
   <g id="line2d_27">
    <path d="M 59.103812 199.495172 
L 66.330947 162.266912 
L 73.508561 154.917823 
L 83.505951 142.099269 
L 90.686478 178.384893 
L 97.820397 195.930743 
L 104.957229 176.39233 
L 112.091148 98.97278 
L 119.225066 166.098765 
L 126.31529 114.933453 
L 134.314368 161.185927 
M 147.763655 162.932445 
L 156.44146 191.758461 
" clip-path="url(#pdca6990f8f)" style="fill: none; stroke: #9c1b5b; stroke-width: 1.5; stroke-linecap: square"/>
   </g>
   <g id="line2d_28">
    <path d="M 59.013509 187.218321 
L 66.194036 187.383696 
L 75.05536 189.549701 
L 82.098976 143.773183 
L 89.232895 194.923571 
L 96.369727 193.679631 
L 104.689233 211.957969 
L 110.684172 202.19925 
L 117.861786 161.641715 
" clip-path="url(#pdca6990f8f)" style="fill: none; stroke: #b41658; stroke-width: 1.5; stroke-linecap: square"/>
   </g>
   <g id="line2d_29">
    <path d="M 58.966902 140.816607 
L 66.103733 154.901689 
L 73.374563 203.727554 
L 82.142671 184.600561 
L 89.232895 181.200296 
L 96.366814 162.202376 
L 104.523193 186.689929 
L 110.637564 77.324832 
L 117.908394 200.620123 
L 125.132615 209.35594 
L 132.266534 192.463522 
L 139.400453 188.263005 
L 146.490677 202.223854 
L 155.171395 194.733592 
L 162.258706 187.690244 
L 169.395538 218.577796 
" clip-path="url(#pdca6990f8f)" style="fill: none; stroke: #b41658; stroke-width: 1.5; stroke-linecap: square"/>
   </g>
   <g id="line2d_30">
    <path d="M 61.017648 190.158763 
L 70.077055 162.190275 
L 74.962144 214.829842 
L 82.142671 204.733919 
L 89.27659 159.136894 
L 96.410508 211.70547 
L 103.500732 194.075723 
L 110.590956 199.999767 
L 117.724875 185.177355 
M 124.812186 195.229312 
L 144.125327 189.856249 
" clip-path="url(#pdca6990f8f)" style="fill: none; stroke: #cb1b4f; stroke-width: 1.5; stroke-linecap: square"/>
   </g>
   <g id="line2d_31">
    <path d="M 59.625238 169.995153 
L 66.805765 161.577179 
L 74.032899 205.1647 
" clip-path="url(#pdca6990f8f)" style="fill: none; stroke: #cb1b4f; stroke-width: 1.5; stroke-linecap: square"/>
   </g>
   <g id="line2d_32">
    <path d="M 83.960378 199.399174 
L 91.094297 212.267341 
L 98.231129 122.431783 
L 105.365048 199.252354 
L 112.498967 178.784212 
L 119.679493 164.489387 
L 126.86002 170.527579 
L 133.947331 212.234266 
L 142.671744 159.560415 
L 150.863079 229.450052 
L 156.895887 195.698008 
L 164.029806 175.339579 
" clip-path="url(#pdca6990f8f)" style="fill: none; stroke: #cb1b4f; stroke-width: 1.5; stroke-linecap: square"/>
   </g>
   <g id="line2d_33">
    <path d="M 66.10082 198.927655 
L 85.59748 181.2729 
L 93.852901 162.674299 
L 100.002228 184.487622 
L 107.182755 180.002338 
L 114.316674 154.381364 
L 121.36029 175.387981 
L 128.494209 200.88916 
L 135.628128 168.692324 
L 142.76496 169.03114 
L 150.035789 181.865828 
L 158.803897 172.326533 
L 165.894121 177.62659 
L 173.02804 201.93102 
L 181.184419 197.845056 
L 187.29879 188.379977 
L 194.56962 182.370019 
L 201.793842 193.397284 
L 208.92776 203.180607 
L 216.061679 210.110613 
L 223.151903 199.489525 
" clip-path="url(#pdca6990f8f)" style="fill: none; stroke: #dd2c45; stroke-width: 1.5; stroke-linecap: square"/>
   </g>
   <g id="line2d_34">
    <path d="M 59.060117 181.184162 
L 66.194036 184.072169 
M 81.825154 182.172377 
L 89.005681 133.294076 
" clip-path="url(#pdca6990f8f)" style="fill: none; stroke: #ea443e; stroke-width: 1.5; stroke-linecap: square"/>
   </g>
   <g id="line2d_35">
    <path d="M 59.287331 193.116147 
L 66.42125 169.535331 
L 73.555168 176.39233 
L 80.645392 179.63932 
L 87.779311 139.134625 
L 96.503724 217.921138 
L 103.730859 207.041501 
L 112.883482 185.253992 
L 118.045304 162.83564 
L 125.088921 159.229665 
L 132.266534 184.596527 
L 139.356758 193.05887 
L 146.490677 182.023136 
L 153.671204 205.832249 
L 160.805123 188.654257 
L 171.580282 202.700214 
L 176.255635 180.764675 
L 183.640072 184.632829 
L 190.570081 191.862123 
L 197.704 216.627182 
L 204.840832 191.757251 
L 211.928143 217.466156 
L 219.10867 213.683513 
M 242.331047 191.33252 
L 249.464965 194.62267 
" clip-path="url(#pdca6990f8f)" style="fill: none; stroke: #f06043; stroke-width: 1.5; stroke-linecap: square"/>
   </g>
   <g id="line2d_36">
    <path d="M 59.651455 174.80312 
L 66.965979 187.992758 
L 74.236809 181.192229 
L 81.554246 196.155814 
L 88.871684 196.707601 
L 97.686399 196.176788 
L 105.003837 184.479555 
L 112.318361 196.234468 
L 119.635798 188.944671 
L 126.996931 178.606737 
L 134.26776 170.051623 
L 141.628892 214.285719 
L 148.94633 214.754011 
M 156.170552 194.225367 
L 176.753757 206.60346 
L 181.665063 197.448156 
L 189.026195 172.891227 
L 196.343632 185.907424 
L 203.658157 223.113096 
L 210.928986 194.926798 
L 218.156121 188.666358 
L 225.470645 199.254774 
L 232.788083 194.782801 
L 240.195823 214.388977 
L 248.966844 215.665185 
" clip-path="url(#pdca6990f8f)" style="fill: none; stroke: #f47a54; stroke-width: 1.5; stroke-linecap: square"/>
   </g>
   <g id="line2d_37">
    <path d="M 72.419101 149.117609 
L 79.462717 153.429451 
L 86.506334 156.478799 
L 93.54995 176.525436 
L 100.637261 181.454408 
L 107.637182 169.369956 
L 114.811883 151.791838 
L 121.724414 187.593439 
L 130.402219 170.918831 
L 137.445835 177.219203 
L 144.536059 181.631884 
L 151.579675 192.800725 
L 158.666986 164.727365 
L 165.75721 162.875975 
L 172.800826 171.261681 
L 179.844442 182.813708 
L 186.978361 199.308016 
" clip-path="url(#pdca6990f8f)" style="fill: none; stroke: #f5946b; stroke-width: 1.5; stroke-linecap: square"/>
   </g>
   <g id="line2d_38">
    <path d="M 58.923207 110.988662 
L 67.670923 145.612472 
L 73.010439 21.492727 
L 80.054055 140.280147 
L 87.187974 73.117861 
L 94.234503 115.28437 
L 104.231894 147.439661 
L 111.365812 151.674866 
M 125.589955 142.934209 
" clip-path="url(#pdca6990f8f)" style="fill: none; stroke: #f6ab83; stroke-width: 1.5; stroke-linecap: square"/>
   </g>
   <g id="line2d_39">
    <path d="M 58.876599 152.767952 
L 66.916458 119.967297 
L 73.054134 165.989859 
L 80.190966 162.791271 
L 87.234582 144.216871 
L 94.321893 157.358108 
L 101.455812 179.635287 
L 110.089922 190.150696 
L 117.180146 211.789771 
L 126.079338 202.320256 
L 131.404288 190.711357 
L 138.491599 191.991599 
L 145.581823 207.685252 
L 152.672047 197.221069 
L 159.715664 184.350482 
" clip-path="url(#pdca6990f8f)" style="fill: none; stroke: #f6ab83; stroke-width: 1.5; stroke-linecap: square"/>
   </g>
   <g id="line2d_40">
    <path d="M 65.96391 207.046745 
L 73.007526 181.401973 
L 80.09775 164.271576 
L 88.685252 152.659047 
L 95.822084 160.350986 
L 102.956003 196.687836 
L 109.999619 188.09763 
" clip-path="url(#pdca6990f8f)" style="fill: none; stroke: #f6c19f; stroke-width: 1.5; stroke-linecap: square"/>
   </g>
   <g id="line2d_41">
    <path d="M 58.923207 191.199414 
L 66.013431 205.365973 
L 73.057047 203.327024 
L 82.6874 216.083866 
L 87.234582 175.206472 
L 94.278198 196.201796 
L 102.956003 182.6564 
L 109.999619 198.407733 
L 117.043235 201.947558 
L 124.133459 211.459828 
L 131.267378 203.288303 
L 140.015095 217.927995 
L 145.35461 173.681799 
L 152.398226 218.610871 
L 159.532145 179.9136 
L 166.578674 189.40046 
L 176.576065 203.348402 
" clip-path="url(#pdca6990f8f)" style="fill: none; stroke: #f6c19f; stroke-width: 1.5; stroke-linecap: square"/>
   </g>
   <g id="line2d_42">
    <path d="M 69.69254 175.057232 
L 76.826459 198.606586 
L 83.916683 163.493105 
L 90.960299 181.389872 
L 98.003915 191.45756 
L 105.184442 182.954881 
L 112.228058 171.761839 
L 119.271674 218.911369 
" clip-path="url(#pdca6990f8f)" style="fill: none; stroke: #f8d6be; stroke-width: 1.5; stroke-linecap: square"/>
   </g>
   <g id="line2d_43">
    <path d="M 58.876599 182.390187 
L 66.010518 173.205842 
L 75.16314 210.528083 
L 80.234661 190.138596 
L 87.324884 172.015951 
M 101.592722 181.35357 
L 110.454046 165.251724 
L 117.587965 187.298991 
" clip-path="url(#pdca6990f8f)" style="fill: none; stroke: #f8d6be; stroke-width: 1.5; stroke-linecap: square"/>
   </g>
   <g id="line2d_44">
    <path d="M 58.832904 133.439283 
L 65.920215 145.112315 
L 73.054134 195.93034 
L 84.187591 196.641451 
L 91.231208 195.585876 
L 98.274824 183.100088 
L 105.31844 191.939566 
L 112.455272 185.992128 
L 119.58919 191.340587 
L 126.723109 187.133617 
L 133.766725 182.111874 
L 142.027972 190.324138 
M 156.624978 150.642283 
" clip-path="url(#pdca6990f8f)" style="fill: none; stroke: #f8d6be; stroke-width: 1.5; stroke-linecap: square"/>
   </g>
   <g id="line2d_45">
    <path d="M 60.467093 180.337121 
L 67.557317 195.430989 
L 74.600933 190.848497 
L 81.688244 201.015813 
L 89.460108 208.04585 
L 95.958995 150.299433 
L 103.092913 201.743864 
L 110.226832 134.83085 
L 117.317056 189.739276 
L 124.404367 189.448862 
L 132.994782 210.933453 
L 140.128701 167.151516 
" clip-path="url(#pdca6990f8f)" style="fill: none; stroke: #faebdd; stroke-width: 1.5; stroke-linecap: square"/>
   </g>
   <g id="line2d_46">
    <path d="M 60.557396 185.249959 
L 67.601012 189.214918 
L 75.090316 158.77791 
L 81.688244 194.621863 
L 88.73186 183.951163 
L 95.822084 193.823224 
L 102.912308 207.658228 
L 110.046227 205.372427 
M 117.089843 197.270278 
L 134.902793 203.696899 
L 142.036711 212.398834 
L 149.217238 209.601178 
L 158.547553 208.221712 
L 163.441381 227.471324 
L 170.484997 235.347273 
L 177.618916 192.129949 
L 184.618837 179.966036 
" clip-path="url(#pdca6990f8f)" style="fill: none; stroke: #faebdd; stroke-width: 1.5; stroke-linecap: square"/>
   </g>
   <g id="line2d_47">
    <path d="M 65.923128 141.445837 
L 73.057047 156.958789 
L 80.190966 188.069395 
L 87.234582 198.384742 
L 95.495829 158.338255 
L 101.458725 184.51989 
" clip-path="url(#pdca6990f8f)" style="fill: none; stroke: #faebdd; stroke-width: 1.5; stroke-linecap: square"/>
   </g>
   <g id="line2d_48">
    <path d="M 59.502892 151.709652 
L 62.029467 152.697551 
L 64.556043 153.669592 
L 67.082618 154.626031 
L 69.609193 155.567117 
L 72.135768 156.493097 
L 74.662343 157.404214 
L 77.188919 158.300706 
L 79.715494 159.182807 
L 82.242069 160.05075 
L 84.768644 160.90476 
L 87.29522 161.745062 
L 89.821795 162.571876 
L 92.34837 163.385419 
L 94.874945 164.185903 
L 97.40152 164.973537 
L 99.928096 165.748529 
L 102.454671 166.511081 
L 104.981246 167.261393 
L 107.507821 167.999661 
L 110.034396 168.726078 
L 112.560972 169.440836 
L 115.087547 170.14412 
L 117.614122 170.836116 
L 120.140697 171.517004 
L 122.667272 172.186962 
L 125.193848 172.846167 
L 127.720423 173.49479 
L 130.246998 174.133002 
L 132.773573 174.76097 
L 135.300149 175.378857 
L 137.826724 175.986827 
L 140.353299 176.585037 
L 142.879874 177.173646 
L 145.406449 177.752806 
L 147.933025 178.32267 
L 150.4596 178.883386 
L 152.986175 179.435103 
L 155.51275 179.977963 
L 158.039325 180.512109 
L 160.565901 181.037682 
L 163.092476 181.554818 
L 165.619051 182.063653 
L 168.145626 182.564321 
L 170.672202 183.056952 
L 173.198777 183.541676 
L 175.725352 184.018619 
L 178.251927 184.487906 
L 180.778502 184.949661 
L 183.305078 185.404003 
" clip-path="url(#pdca6990f8f)" style="fill: none; stroke: #000000; stroke-width: 3; stroke-linecap: square"/>
   </g>
   <g id="patch_3">
    <path d="M 47.855 246.04 
L 47.855 10.8 
" style="fill: none; stroke: #000000; stroke-width: 0.8; stroke-linejoin: miter; stroke-linecap: square"/>
   </g>
   <g id="patch_4">
    <path d="M 276.487633 246.04 
L 276.487633 10.8 
" style="fill: none; stroke: #000000; stroke-width: 0.8; stroke-linejoin: miter; stroke-linecap: square"/>
   </g>
   <g id="patch_5">
    <path d="M 47.855 246.04 
L 276.487633 246.04 
" style="fill: none; stroke: #000000; stroke-width: 0.8; stroke-linejoin: miter; stroke-linecap: square"/>
   </g>
   <g id="patch_6">
    <path d="M 47.855 10.8 
L 276.487633 10.8 
" style="fill: none; stroke: #000000; stroke-width: 0.8; stroke-linejoin: miter; stroke-linecap: square"/>
   </g>
   <g id="legend_1">
    <g id="patch_7">
     <path d="M 203.184508 48.15625 
L 269.487633 48.15625 
Q 271.487633 48.15625 271.487633 46.15625 
L 271.487633 17.8 
Q 271.487633 15.8 269.487633 15.8 
L 203.184508 15.8 
Q 201.184508 15.8 201.184508 17.8 
L 201.184508 46.15625 
Q 201.184508 48.15625 203.184508 48.15625 
z
" style="fill: #ffffff; opacity: 0.8; stroke: #cccccc; stroke-linejoin: miter"/>
    </g>
    <g id="PathCollection_1">
     <defs>
      <path id="m55d4b8aa8c" d="M 0 3 
C 0.795609 3 1.55874 2.683901 2.12132 2.12132 
C 2.683901 1.55874 3 0.795609 3 0 
C 3 -0.795609 2.683901 -1.55874 2.12132 -2.12132 
C 1.55874 -2.683901 0.795609 -3 0 -3 
C -0.795609 -3 -1.55874 -2.683901 -2.12132 -2.12132 
C -2.683901 -1.55874 -3 -0.795609 -3 0 
C -3 0.795609 -2.683901 1.55874 -2.12132 2.12132 
C -1.55874 2.683901 -0.795609 3 0 3 
z
" style="stroke: #000000"/>
     </defs>
     <g>
      <use xlink:href="#m55d4b8aa8c" x="215.184508" y="24.773438" style="stroke: #000000"/>
     </g>
    </g>
    <g id="text_13">
     <!-- binned -->
     <g transform="translate(233.184508 27.398438)scale(0.1 -0.1)">
      <defs>
       <path id="DejaVuSans-62" d="M 3116 1747 
Q 3116 2381 2855 2742 
Q 2594 3103 2138 3103 
Q 1681 3103 1420 2742 
Q 1159 2381 1159 1747 
Q 1159 1113 1420 752 
Q 1681 391 2138 391 
Q 2594 391 2855 752 
Q 3116 1113 3116 1747 
z
M 1159 2969 
Q 1341 3281 1617 3432 
Q 1894 3584 2278 3584 
Q 2916 3584 3314 3078 
Q 3713 2572 3713 1747 
Q 3713 922 3314 415 
Q 2916 -91 2278 -91 
Q 1894 -91 1617 61 
Q 1341 213 1159 525 
L 1159 0 
L 581 0 
L 581 4863 
L 1159 4863 
L 1159 2969 
z
" transform="scale(0.015625)"/>
       <path id="DejaVuSans-6e" d="M 3513 2113 
L 3513 0 
L 2938 0 
L 2938 2094 
Q 2938 2591 2744 2837 
Q 2550 3084 2163 3084 
Q 1697 3084 1428 2787 
Q 1159 2491 1159 1978 
L 1159 0 
L 581 0 
L 581 3500 
L 1159 3500 
L 1159 2956 
Q 1366 3272 1645 3428 
Q 1925 3584 2291 3584 
Q 2894 3584 3203 3211 
Q 3513 2838 3513 2113 
z
" transform="scale(0.015625)"/>
       <path id="DejaVuSans-64" d="M 2906 2969 
L 2906 4863 
L 3481 4863 
L 3481 0 
L 2906 0 
L 2906 525 
Q 2725 213 2448 61 
Q 2172 -91 1784 -91 
Q 1150 -91 751 415 
Q 353 922 353 1747 
Q 353 2572 751 3078 
Q 1150 3584 1784 3584 
Q 2172 3584 2448 3432 
Q 2725 3281 2906 2969 
z
M 947 1747 
Q 947 1113 1208 752 
Q 1469 391 1925 391 
Q 2381 391 2643 752 
Q 2906 1113 2906 1747 
Q 2906 2381 2643 2742 
Q 2381 3103 1925 3103 
Q 1469 3103 1208 2742 
Q 947 2381 947 1747 
z
" transform="scale(0.015625)"/>
      </defs>
      <use xlink:href="#DejaVuSans-62"/>
      <use xlink:href="#DejaVuSans-69" x="63.476562"/>
      <use xlink:href="#DejaVuSans-6e" x="91.259766"/>
      <use xlink:href="#DejaVuSans-6e" x="154.638672"/>
      <use xlink:href="#DejaVuSans-65" x="218.017578"/>
      <use xlink:href="#DejaVuSans-64" x="279.541016"/>
     </g>
    </g>
    <g id="line2d_49">
     <path d="M 205.184508 38.576562 
L 215.184508 38.576562 
L 225.184508 38.576562 
" style="fill: none; stroke: #000000; stroke-width: 3; stroke-linecap: square"/>
    </g>
    <g id="text_14">
     <!-- fit -->
     <g transform="translate(233.184508 42.076562)scale(0.1 -0.1)">
      <defs>
       <path id="DejaVuSans-66" d="M 2375 4863 
L 2375 4384 
L 1825 4384 
Q 1516 4384 1395 4259 
Q 1275 4134 1275 3809 
L 1275 3500 
L 2222 3500 
L 2222 3053 
L 1275 3053 
L 1275 0 
L 697 0 
L 697 3053 
L 147 3053 
L 147 3500 
L 697 3500 
L 697 3744 
Q 697 4328 969 4595 
Q 1241 4863 1831 4863 
L 2375 4863 
z
" transform="scale(0.015625)"/>
      </defs>
      <use xlink:href="#DejaVuSans-66"/>
      <use xlink:href="#DejaVuSans-69" x="35.205078"/>
      <use xlink:href="#DejaVuSans-74" x="62.988281"/>
     </g>
    </g>
   </g>
   <g id="PathCollection_2">
    <g clip-path="url(#pdca6990f8f)">
     <use xlink:href="#m55d4b8aa8c" x="59.502892" y="171.019073" style="stroke: #000000"/>
     <use xlink:href="#m55d4b8aa8c" x="74.067855" y="171.817381" style="stroke: #000000"/>
     <use xlink:href="#m55d4b8aa8c" x="88.632818" y="172.544381" style="stroke: #000000"/>
     <use xlink:href="#m55d4b8aa8c" x="103.197781" y="182.221341" style="stroke: #000000"/>
     <use xlink:href="#m55d4b8aa8c" x="117.762744" y="177.170689" style="stroke: #000000"/>
     <use xlink:href="#m55d4b8aa8c" x="132.327707" y="184.914672" style="stroke: #000000"/>
     <use xlink:href="#m55d4b8aa8c" x="146.89267" y="194.602359" style="stroke: #000000"/>
     <use xlink:href="#m55d4b8aa8c" x="161.457633" y="185.357953" style="stroke: #000000"/>
     <use xlink:href="#m55d4b8aa8c" x="176.022596" y="197.319625" style="stroke: #000000"/>
     <use xlink:href="#m55d4b8aa8c" x="190.587559" y="188.941696" style="stroke: #000000"/>
    </g>
   </g>
  </g>
 </g>
 <defs>
  <clipPath id="pdca6990f8f">
   <rect x="47.855" y="10.8" width="228.632633" height="235.24"/>
  </clipPath>
 </defs>
</svg>
