<?xml version="1.0" encoding="utf-8" standalone="no"?>
<!DOCTYPE svg PUBLIC "-//W3C//DTD SVG 1.1//EN"
  "http://www.w3.org/Graphics/SVG/1.1/DTD/svg11.dtd">
<svg xmlns:xlink="http://www.w3.org/1999/xlink" width="288pt" height="288pt" viewBox="0 0 288 288" xmlns="http://www.w3.org/2000/svg" version="1.1">
 <metadata>
  <rdf:RDF xmlns:dc="http://purl.org/dc/elements/1.1/" xmlns:cc="http://creativecommons.org/ns#" xmlns:rdf="http://www.w3.org/1999/02/22-rdf-syntax-ns#">
   <cc:Work>
    <dc:type rdf:resource="http://purl.org/dc/dcmitype/StillImage"/>
    <dc:date>2022-03-04T09:48:13.180840</dc:date>
    <dc:format>image/svg+xml</dc:format>
    <dc:creator>
     <cc:Agent>
      <dc:title>Matplotlib v3.5.1, https://matplotlib.org/</dc:title>
     </cc:Agent>
    </dc:creator>
   </cc:Work>
  </rdf:RDF>
 </metadata>
 <defs>
  <style type="text/css">*{stroke-linejoin: round; stroke-linecap: butt}</style>
 </defs>
 <g id="figure_1">
  <g id="patch_1">
   <path d="M 0 288 
L 288 288 
L 288 0 
L 0 0 
z
" style="fill: #ffffff"/>
  </g>
  <g id="axes_1">
   <g id="patch_2">
    <path d="M 51.005 246.04 
L 277.2 246.04 
L 277.2 14.122651 
L 51.005 14.122651 
z
" style="fill: #ffffff"/>
   </g>
   <g id="matplotlib.axis_1">
    <g id="xtick_1">
     <g id="line2d_1">
      <defs>
       <path id="m709786e49e" d="M 0 0 
L 0 3.5 
" style="stroke: #000000; stroke-width: 0.8"/>
      </defs>
      <g>
       <use xlink:href="#m709786e49e" x="61.286591" y="246.04" style="stroke: #000000; stroke-width: 0.8"/>
      </g>
     </g>
     <g id="text_1">
      <!-- 0 -->
      <g transform="translate(58.105341 260.638438)scale(0.1 -0.1)">
       <defs>
        <path id="DejaVuSans-30" d="M 2034 4250 
Q 1547 4250 1301 3770 
Q 1056 3291 1056 2328 
Q 1056 1369 1301 889 
Q 1547 409 2034 409 
Q 2525 409 2770 889 
Q 3016 1369 3016 2328 
Q 3016 3291 2770 3770 
Q 2525 4250 2034 4250 
z
M 2034 4750 
Q 2819 4750 3233 4129 
Q 3647 3509 3647 2328 
Q 3647 1150 3233 529 
Q 2819 -91 2034 -91 
Q 1250 -91 836 529 
Q 422 1150 422 2328 
Q 422 3509 836 4129 
Q 1250 4750 2034 4750 
z
" transform="scale(0.015625)"/>
       </defs>
       <use xlink:href="#DejaVuSans-30"/>
      </g>
     </g>
    </g>
    <g id="xtick_2">
     <g id="line2d_2">
      <g>
       <use xlink:href="#m709786e49e" x="97.860914" y="246.04" style="stroke: #000000; stroke-width: 0.8"/>
      </g>
     </g>
     <g id="text_2">
      <!-- 10 -->
      <g transform="translate(91.498414 260.638438)scale(0.1 -0.1)">
       <defs>
        <path id="DejaVuSans-31" d="M 794 531 
L 1825 531 
L 1825 4091 
L 703 3866 
L 703 4441 
L 1819 4666 
L 2450 4666 
L 2450 531 
L 3481 531 
L 3481 0 
L 794 0 
L 794 531 
z
" transform="scale(0.015625)"/>
       </defs>
       <use xlink:href="#DejaVuSans-31"/>
       <use xlink:href="#DejaVuSans-30" x="63.623047"/>
      </g>
     </g>
    </g>
    <g id="xtick_3">
     <g id="line2d_3">
      <g>
       <use xlink:href="#m709786e49e" x="134.435238" y="246.04" style="stroke: #000000; stroke-width: 0.8"/>
      </g>
     </g>
     <g id="text_3">
      <!-- 20 -->
      <g transform="translate(128.072738 260.638438)scale(0.1 -0.1)">
       <defs>
        <path id="DejaVuSans-32" d="M 1228 531 
L 3431 531 
L 3431 0 
L 469 0 
L 469 531 
Q 828 903 1448 1529 
Q 2069 2156 2228 2338 
Q 2531 2678 2651 2914 
Q 2772 3150 2772 3378 
Q 2772 3750 2511 3984 
Q 2250 4219 1831 4219 
Q 1534 4219 1204 4116 
Q 875 4013 500 3803 
L 500 4441 
Q 881 4594 1212 4672 
Q 1544 4750 1819 4750 
Q 2544 4750 2975 4387 
Q 3406 4025 3406 3419 
Q 3406 3131 3298 2873 
Q 3191 2616 2906 2266 
Q 2828 2175 2409 1742 
Q 1991 1309 1228 531 
z
" transform="scale(0.015625)"/>
       </defs>
       <use xlink:href="#DejaVuSans-32"/>
       <use xlink:href="#DejaVuSans-30" x="63.623047"/>
      </g>
     </g>
    </g>
    <g id="xtick_4">
     <g id="line2d_4">
      <g>
       <use xlink:href="#m709786e49e" x="171.009561" y="246.04" style="stroke: #000000; stroke-width: 0.8"/>
      </g>
     </g>
     <g id="text_4">
      <!-- 30 -->
      <g transform="translate(164.647061 260.638438)scale(0.1 -0.1)">
       <defs>
        <path id="DejaVuSans-33" d="M 2597 2516 
Q 3050 2419 3304 2112 
Q 3559 1806 3559 1356 
Q 3559 666 3084 287 
Q 2609 -91 1734 -91 
Q 1441 -91 1130 -33 
Q 819 25 488 141 
L 488 750 
Q 750 597 1062 519 
Q 1375 441 1716 441 
Q 2309 441 2620 675 
Q 2931 909 2931 1356 
Q 2931 1769 2642 2001 
Q 2353 2234 1838 2234 
L 1294 2234 
L 1294 2753 
L 1863 2753 
Q 2328 2753 2575 2939 
Q 2822 3125 2822 3475 
Q 2822 3834 2567 4026 
Q 2313 4219 1838 4219 
Q 1578 4219 1281 4162 
Q 984 4106 628 3988 
L 628 4550 
Q 988 4650 1302 4700 
Q 1616 4750 1894 4750 
Q 2613 4750 3031 4423 
Q 3450 4097 3450 3541 
Q 3450 3153 3228 2886 
Q 3006 2619 2597 2516 
z
" transform="scale(0.015625)"/>
       </defs>
       <use xlink:href="#DejaVuSans-33"/>
       <use xlink:href="#DejaVuSans-30" x="63.623047"/>
      </g>
     </g>
    </g>
    <g id="xtick_5">
     <g id="line2d_5">
      <g>
       <use xlink:href="#m709786e49e" x="207.583884" y="246.04" style="stroke: #000000; stroke-width: 0.8"/>
      </g>
     </g>
     <g id="text_5">
      <!-- 40 -->
      <g transform="translate(201.221384 260.638438)scale(0.1 -0.1)">
       <defs>
        <path id="DejaVuSans-34" d="M 2419 4116 
L 825 1625 
L 2419 1625 
L 2419 4116 
z
M 2253 4666 
L 3047 4666 
L 3047 1625 
L 3713 1625 
L 3713 1100 
L 3047 1100 
L 3047 0 
L 2419 0 
L 2419 1100 
L 313 1100 
L 313 1709 
L 2253 4666 
z
" transform="scale(0.015625)"/>
       </defs>
       <use xlink:href="#DejaVuSans-34"/>
       <use xlink:href="#DejaVuSans-30" x="63.623047"/>
      </g>
     </g>
    </g>
    <g id="xtick_6">
     <g id="line2d_6">
      <g>
       <use xlink:href="#m709786e49e" x="244.158208" y="246.04" style="stroke: #000000; stroke-width: 0.8"/>
      </g>
     </g>
     <g id="text_6">
      <!-- 50 -->
      <g transform="translate(237.795708 260.638438)scale(0.1 -0.1)">
       <defs>
        <path id="DejaVuSans-35" d="M 691 4666 
L 3169 4666 
L 3169 4134 
L 1269 4134 
L 1269 2991 
Q 1406 3038 1543 3061 
Q 1681 3084 1819 3084 
Q 2600 3084 3056 2656 
Q 3513 2228 3513 1497 
Q 3513 744 3044 326 
Q 2575 -91 1722 -91 
Q 1428 -91 1123 -41 
Q 819 9 494 109 
L 494 744 
Q 775 591 1075 516 
Q 1375 441 1709 441 
Q 2250 441 2565 725 
Q 2881 1009 2881 1497 
Q 2881 1984 2565 2268 
Q 2250 2553 1709 2553 
Q 1456 2553 1204 2497 
Q 953 2441 691 2322 
L 691 4666 
z
" transform="scale(0.015625)"/>
       </defs>
       <use xlink:href="#DejaVuSans-35"/>
       <use xlink:href="#DejaVuSans-30" x="63.623047"/>
      </g>
     </g>
    </g>
    <g id="text_7">
     <!-- Time (s) -->
     <g transform="translate(143.773594 274.316562)scale(0.1 -0.1)">
      <defs>
       <path id="DejaVuSans-54" d="M -19 4666 
L 3928 4666 
L 3928 4134 
L 2272 4134 
L 2272 0 
L 1638 0 
L 1638 4134 
L -19 4134 
L -19 4666 
z
" transform="scale(0.015625)"/>
       <path id="DejaVuSans-69" d="M 603 3500 
L 1178 3500 
L 1178 0 
L 603 0 
L 603 3500 
z
M 603 4863 
L 1178 4863 
L 1178 4134 
L 603 4134 
L 603 4863 
z
" transform="scale(0.015625)"/>
       <path id="DejaVuSans-6d" d="M 3328 2828 
Q 3544 3216 3844 3400 
Q 4144 3584 4550 3584 
Q 5097 3584 5394 3201 
Q 5691 2819 5691 2113 
L 5691 0 
L 5113 0 
L 5113 2094 
Q 5113 2597 4934 2840 
Q 4756 3084 4391 3084 
Q 3944 3084 3684 2787 
Q 3425 2491 3425 1978 
L 3425 0 
L 2847 0 
L 2847 2094 
Q 2847 2600 2669 2842 
Q 2491 3084 2119 3084 
Q 1678 3084 1418 2786 
Q 1159 2488 1159 1978 
L 1159 0 
L 581 0 
L 581 3500 
L 1159 3500 
L 1159 2956 
Q 1356 3278 1631 3431 
Q 1906 3584 2284 3584 
Q 2666 3584 2933 3390 
Q 3200 3197 3328 2828 
z
" transform="scale(0.015625)"/>
       <path id="DejaVuSans-65" d="M 3597 1894 
L 3597 1613 
L 953 1613 
Q 991 1019 1311 708 
Q 1631 397 2203 397 
Q 2534 397 2845 478 
Q 3156 559 3463 722 
L 3463 178 
Q 3153 47 2828 -22 
Q 2503 -91 2169 -91 
Q 1331 -91 842 396 
Q 353 884 353 1716 
Q 353 2575 817 3079 
Q 1281 3584 2069 3584 
Q 2775 3584 3186 3129 
Q 3597 2675 3597 1894 
z
M 3022 2063 
Q 3016 2534 2758 2815 
Q 2500 3097 2075 3097 
Q 1594 3097 1305 2825 
Q 1016 2553 972 2059 
L 3022 2063 
z
" transform="scale(0.015625)"/>
       <path id="DejaVuSans-20" transform="scale(0.015625)"/>
       <path id="DejaVuSans-28" d="M 1984 4856 
Q 1566 4138 1362 3434 
Q 1159 2731 1159 2009 
Q 1159 1288 1364 580 
Q 1569 -128 1984 -844 
L 1484 -844 
Q 1016 -109 783 600 
Q 550 1309 550 2009 
Q 550 2706 781 3412 
Q 1013 4119 1484 4856 
L 1984 4856 
z
" transform="scale(0.015625)"/>
       <path id="DejaVuSans-73" d="M 2834 3397 
L 2834 2853 
Q 2591 2978 2328 3040 
Q 2066 3103 1784 3103 
Q 1356 3103 1142 2972 
Q 928 2841 928 2578 
Q 928 2378 1081 2264 
Q 1234 2150 1697 2047 
L 1894 2003 
Q 2506 1872 2764 1633 
Q 3022 1394 3022 966 
Q 3022 478 2636 193 
Q 2250 -91 1575 -91 
Q 1294 -91 989 -36 
Q 684 19 347 128 
L 347 722 
Q 666 556 975 473 
Q 1284 391 1588 391 
Q 1994 391 2212 530 
Q 2431 669 2431 922 
Q 2431 1156 2273 1281 
Q 2116 1406 1581 1522 
L 1381 1569 
Q 847 1681 609 1914 
Q 372 2147 372 2553 
Q 372 3047 722 3315 
Q 1072 3584 1716 3584 
Q 2034 3584 2315 3537 
Q 2597 3491 2834 3397 
z
" transform="scale(0.015625)"/>
       <path id="DejaVuSans-29" d="M 513 4856 
L 1013 4856 
Q 1481 4119 1714 3412 
Q 1947 2706 1947 2009 
Q 1947 1309 1714 600 
Q 1481 -109 1013 -844 
L 513 -844 
Q 928 -128 1133 580 
Q 1338 1288 1338 2009 
Q 1338 2731 1133 3434 
Q 928 4138 513 4856 
z
" transform="scale(0.015625)"/>
      </defs>
      <use xlink:href="#DejaVuSans-54"/>
      <use xlink:href="#DejaVuSans-69" x="57.958984"/>
      <use xlink:href="#DejaVuSans-6d" x="85.742188"/>
      <use xlink:href="#DejaVuSans-65" x="183.154297"/>
      <use xlink:href="#DejaVuSans-20" x="244.677734"/>
      <use xlink:href="#DejaVuSans-28" x="276.464844"/>
      <use xlink:href="#DejaVuSans-73" x="315.478516"/>
      <use xlink:href="#DejaVuSans-29" x="367.578125"/>
     </g>
    </g>
   </g>
   <g id="matplotlib.axis_2">
    <g id="ytick_1">
     <g id="line2d_7">
      <defs>
       <path id="m6430c19768" d="M 0 0 
L -3.5 0 
" style="stroke: #000000; stroke-width: 0.8"/>
      </defs>
      <g>
       <use xlink:href="#m6430c19768" x="51.005" y="235.498302" style="stroke: #000000; stroke-width: 0.8"/>
      </g>
     </g>
     <g id="text_8">
      <!-- 0 -->
      <g transform="translate(37.6425 239.297521)scale(0.1 -0.1)">
       <use xlink:href="#DejaVuSans-30"/>
      </g>
     </g>
    </g>
    <g id="ytick_2">
     <g id="line2d_8">
      <g>
       <use xlink:href="#m6430c19768" x="51.005" y="203.96843" style="stroke: #000000; stroke-width: 0.8"/>
      </g>
     </g>
     <g id="text_9">
      <!-- 25 -->
      <g transform="translate(31.28 207.767648)scale(0.1 -0.1)">
       <use xlink:href="#DejaVuSans-32"/>
       <use xlink:href="#DejaVuSans-35" x="63.623047"/>
      </g>
     </g>
    </g>
    <g id="ytick_3">
     <g id="line2d_9">
      <g>
       <use xlink:href="#m6430c19768" x="51.005" y="172.438557" style="stroke: #000000; stroke-width: 0.8"/>
      </g>
     </g>
     <g id="text_10">
      <!-- 50 -->
      <g transform="translate(31.28 176.237775)scale(0.1 -0.1)">
       <use xlink:href="#DejaVuSans-35"/>
       <use xlink:href="#DejaVuSans-30" x="63.623047"/>
      </g>
     </g>
    </g>
    <g id="ytick_4">
     <g id="line2d_10">
      <g>
       <use xlink:href="#m6430c19768" x="51.005" y="140.908684" style="stroke: #000000; stroke-width: 0.8"/>
      </g>
     </g>
     <g id="text_11">
      <!-- 75 -->
      <g transform="translate(31.28 144.707903)scale(0.1 -0.1)">
       <defs>
        <path id="DejaVuSans-37" d="M 525 4666 
L 3525 4666 
L 3525 4397 
L 1831 0 
L 1172 0 
L 2766 4134 
L 525 4134 
L 525 4666 
z
" transform="scale(0.015625)"/>
       </defs>
       <use xlink:href="#DejaVuSans-37"/>
       <use xlink:href="#DejaVuSans-35" x="63.623047"/>
      </g>
     </g>
    </g>
    <g id="ytick_5">
     <g id="line2d_11">
      <g>
       <use xlink:href="#m6430c19768" x="51.005" y="109.378811" style="stroke: #000000; stroke-width: 0.8"/>
      </g>
     </g>
     <g id="text_12">
      <!-- 100 -->
      <g transform="translate(24.9175 113.17803)scale(0.1 -0.1)">
       <use xlink:href="#DejaVuSans-31"/>
       <use xlink:href="#DejaVuSans-30" x="63.623047"/>
       <use xlink:href="#DejaVuSans-30" x="127.246094"/>
      </g>
     </g>
    </g>
    <g id="ytick_6">
     <g id="line2d_12">
      <g>
       <use xlink:href="#m6430c19768" x="51.005" y="77.848938" style="stroke: #000000; stroke-width: 0.8"/>
      </g>
     </g>
     <g id="text_13">
      <!-- 125 -->
      <g transform="translate(24.9175 81.648157)scale(0.1 -0.1)">
       <use xlink:href="#DejaVuSans-31"/>
       <use xlink:href="#DejaVuSans-32" x="63.623047"/>
       <use xlink:href="#DejaVuSans-35" x="127.246094"/>
      </g>
     </g>
    </g>
    <g id="ytick_7">
     <g id="line2d_13">
      <g>
       <use xlink:href="#m6430c19768" x="51.005" y="46.319066" style="stroke: #000000; stroke-width: 0.8"/>
      </g>
     </g>
     <g id="text_14">
      <!-- 150 -->
      <g transform="translate(24.9175 50.118284)scale(0.1 -0.1)">
       <use xlink:href="#DejaVuSans-31"/>
       <use xlink:href="#DejaVuSans-35" x="63.623047"/>
       <use xlink:href="#DejaVuSans-30" x="127.246094"/>
      </g>
     </g>
    </g>
    <g id="ytick_8">
     <g id="line2d_14">
      <g>
       <use xlink:href="#m6430c19768" x="51.005" y="14.789193" style="stroke: #000000; stroke-width: 0.8"/>
      </g>
     </g>
     <g id="text_15">
      <!-- 175 -->
      <g transform="translate(24.9175 18.588411)scale(0.1 -0.1)">
       <use xlink:href="#DejaVuSans-31"/>
       <use xlink:href="#DejaVuSans-37" x="63.623047"/>
       <use xlink:href="#DejaVuSans-35" x="127.246094"/>
      </g>
     </g>
    </g>
    <g id="text_16">
     <!-- Ase1 accumulation -->
     <g transform="translate(18.837812 177.753982)rotate(-90)scale(0.1 -0.1)">
      <defs>
       <path id="DejaVuSans-41" d="M 2188 4044 
L 1331 1722 
L 3047 1722 
L 2188 4044 
z
M 1831 4666 
L 2547 4666 
L 4325 0 
L 3669 0 
L 3244 1197 
L 1141 1197 
L 716 0 
L 50 0 
L 1831 4666 
z
" transform="scale(0.015625)"/>
       <path id="DejaVuSans-61" d="M 2194 1759 
Q 1497 1759 1228 1600 
Q 959 1441 959 1056 
Q 959 750 1161 570 
Q 1363 391 1709 391 
Q 2188 391 2477 730 
Q 2766 1069 2766 1631 
L 2766 1759 
L 2194 1759 
z
M 3341 1997 
L 3341 0 
L 2766 0 
L 2766 531 
Q 2569 213 2275 61 
Q 1981 -91 1556 -91 
Q 1019 -91 701 211 
Q 384 513 384 1019 
Q 384 1609 779 1909 
Q 1175 2209 1959 2209 
L 2766 2209 
L 2766 2266 
Q 2766 2663 2505 2880 
Q 2244 3097 1772 3097 
Q 1472 3097 1187 3025 
Q 903 2953 641 2809 
L 641 3341 
Q 956 3463 1253 3523 
Q 1550 3584 1831 3584 
Q 2591 3584 2966 3190 
Q 3341 2797 3341 1997 
z
" transform="scale(0.015625)"/>
       <path id="DejaVuSans-63" d="M 3122 3366 
L 3122 2828 
Q 2878 2963 2633 3030 
Q 2388 3097 2138 3097 
Q 1578 3097 1268 2742 
Q 959 2388 959 1747 
Q 959 1106 1268 751 
Q 1578 397 2138 397 
Q 2388 397 2633 464 
Q 2878 531 3122 666 
L 3122 134 
Q 2881 22 2623 -34 
Q 2366 -91 2075 -91 
Q 1284 -91 818 406 
Q 353 903 353 1747 
Q 353 2603 823 3093 
Q 1294 3584 2113 3584 
Q 2378 3584 2631 3529 
Q 2884 3475 3122 3366 
z
" transform="scale(0.015625)"/>
       <path id="DejaVuSans-75" d="M 544 1381 
L 544 3500 
L 1119 3500 
L 1119 1403 
Q 1119 906 1312 657 
Q 1506 409 1894 409 
Q 2359 409 2629 706 
Q 2900 1003 2900 1516 
L 2900 3500 
L 3475 3500 
L 3475 0 
L 2900 0 
L 2900 538 
Q 2691 219 2414 64 
Q 2138 -91 1772 -91 
Q 1169 -91 856 284 
Q 544 659 544 1381 
z
M 1991 3584 
L 1991 3584 
z
" transform="scale(0.015625)"/>
       <path id="DejaVuSans-6c" d="M 603 4863 
L 1178 4863 
L 1178 0 
L 603 0 
L 603 4863 
z
" transform="scale(0.015625)"/>
       <path id="DejaVuSans-74" d="M 1172 4494 
L 1172 3500 
L 2356 3500 
L 2356 3053 
L 1172 3053 
L 1172 1153 
Q 1172 725 1289 603 
Q 1406 481 1766 481 
L 2356 481 
L 2356 0 
L 1766 0 
Q 1100 0 847 248 
Q 594 497 594 1153 
L 594 3053 
L 172 3053 
L 172 3500 
L 594 3500 
L 594 4494 
L 1172 4494 
z
" transform="scale(0.015625)"/>
       <path id="DejaVuSans-6f" d="M 1959 3097 
Q 1497 3097 1228 2736 
Q 959 2375 959 1747 
Q 959 1119 1226 758 
Q 1494 397 1959 397 
Q 2419 397 2687 759 
Q 2956 1122 2956 1747 
Q 2956 2369 2687 2733 
Q 2419 3097 1959 3097 
z
M 1959 3584 
Q 2709 3584 3137 3096 
Q 3566 2609 3566 1747 
Q 3566 888 3137 398 
Q 2709 -91 1959 -91 
Q 1206 -91 779 398 
Q 353 888 353 1747 
Q 353 2609 779 3096 
Q 1206 3584 1959 3584 
z
" transform="scale(0.015625)"/>
       <path id="DejaVuSans-6e" d="M 3513 2113 
L 3513 0 
L 2938 0 
L 2938 2094 
Q 2938 2591 2744 2837 
Q 2550 3084 2163 3084 
Q 1697 3084 1428 2787 
Q 1159 2491 1159 1978 
L 1159 0 
L 581 0 
L 581 3500 
L 1159 3500 
L 1159 2956 
Q 1366 3272 1645 3428 
Q 1925 3584 2291 3584 
Q 2894 3584 3203 3211 
Q 3513 2838 3513 2113 
z
" transform="scale(0.015625)"/>
      </defs>
      <use xlink:href="#DejaVuSans-41"/>
      <use xlink:href="#DejaVuSans-73" x="68.408203"/>
      <use xlink:href="#DejaVuSans-65" x="120.507812"/>
      <use xlink:href="#DejaVuSans-31" x="182.03125"/>
      <use xlink:href="#DejaVuSans-20" x="245.654297"/>
      <use xlink:href="#DejaVuSans-61" x="277.441406"/>
      <use xlink:href="#DejaVuSans-63" x="338.720703"/>
      <use xlink:href="#DejaVuSans-63" x="393.701172"/>
      <use xlink:href="#DejaVuSans-75" x="448.681641"/>
      <use xlink:href="#DejaVuSans-6d" x="512.060547"/>
      <use xlink:href="#DejaVuSans-75" x="609.472656"/>
      <use xlink:href="#DejaVuSans-6c" x="672.851562"/>
      <use xlink:href="#DejaVuSans-61" x="700.634766"/>
      <use xlink:href="#DejaVuSans-74" x="761.914062"/>
      <use xlink:href="#DejaVuSans-69" x="801.123047"/>
      <use xlink:href="#DejaVuSans-6f" x="828.90625"/>
      <use xlink:href="#DejaVuSans-6e" x="890.087891"/>
     </g>
    </g>
   </g>
   <g id="line2d_15">
    <path d="M 79.259213 234.283784 
L 88.216265 218.387671 
L 97.176974 218.783686 
L 106.134026 209.476068 
L 115.149597 216.338229 
L 124.278548 212.577346 
L 135.517838 213.062906 
L 144.474889 193.095668 
L 153.49046 203.723758 
L 162.506031 193.799415 
L 171.576463 195.39861 
L 180.533515 185.015192 
L 191.227847 198.791224 
L 198.619518 187.485873 
L 207.580227 167.184419 
L 216.650659 187.962605 
L 227.663188 163.655595 
L 236.678759 153.238125 
" clip-path="url(#pc291247261)" style="fill: none; stroke: #03051a; stroke-width: 1.5; stroke-linecap: square"/>
   </g>
   <g id="line2d_16">
    <path d="M 72.467362 231.281119 
M 90.439984 213.540899 
L 101.298901 195.426356 
L 108.412607 181.500242 
L 117.428177 204.609117 
" clip-path="url(#pc291247261)" style="fill: none; stroke: #03051a; stroke-width: 1.5; stroke-linecap: square"/>
   </g>
   <g id="line2d_17">
    <path d="M 61.286591 230.596542 
L 70.243643 227.644715 
L 86.153473 209.614799 
L 92.096801 202.895153 
L 102.429047 209.344903 
L 110.127942 187.045716 
L 119.084994 163.081752 
L 128.042046 165.650806 
L 137.002755 182.50037 
L 145.959807 158.512443 
M 155.088758 167.630882 
L 179.279015 117.392444 
L 188.236067 135.005031 
L 197.251638 150.189817 
L 206.267209 149.173294 
L 215.22426 131.9542 
L 224.181312 135.269881 
" clip-path="url(#pc291247261)" style="fill: none; stroke: #251433; stroke-width: 1.5; stroke-linecap: square"/>
   </g>
   <g id="line2d_18">
    <path d="M 70.411885 232.031782 
L 79.204352 229.217552 
L 88.274784 222.320077 
L 97.290355 219.487433 
L 106.305926 214.868937 
L 117.259935 190.338696 
L 126.334025 196.470626 
L 135.291077 206.12255 
L 144.361509 203.027578 
L 153.318561 190.168435 
L 162.39265 189.594591 
L 171.349702 180.2731 
L 183.499692 188.213583 
L 189.263806 197.682634 
L 198.224515 192.069056 
L 209.120006 181.364033 
L 218.248957 159.262853 
L 227.264528 135.875255 
L 236.22158 146.824949 
" clip-path="url(#pc291247261)" style="fill: none; stroke: #251433; stroke-width: 1.5; stroke-linecap: square"/>
   </g>
   <g id="line2d_19">
    <path d="M 61.286591 235.498302 
M 79.087314 222.412144 
L 87.989504 209.228874 
L 97.001418 186.142701 
L 106.016988 173.37058 
L 114.97404 193.095668 
L 123.989611 180.435794 
L 134.71686 138.0546 
" clip-path="url(#pc291247261)" style="fill: none; stroke: #4c1d4b; stroke-width: 1.5; stroke-linecap: square"/>
   </g>
   <g id="line2d_20">
    <path d="M 79.259213 228.262197 
L 90.330261 215.407467 
L 99.400693 191.63016 
L 108.416264 181.564563 
L 117.431835 161.767587 
L 126.502267 171.167272 
L 135.576357 176.608067 
L 144.533408 179.667726 
L 153.431941 167.722949 
L 162.506031 142.977044 
L 173.595366 154.413559 
" clip-path="url(#pc291247261)" style="fill: none; stroke: #4c1d4b; stroke-width: 1.5; stroke-linecap: square"/>
   </g>
   <g id="line2d_21">
    <path d="M 61.286591 231.15172 
M 89.814563 196.196946 
L 98.771615 207.777238 
L 107.670148 203.635474 
L 116.799099 180.112928 
L 125.759808 137.570301 
L 134.71686 80.674015 
L 143.673912 77.962446 
" clip-path="url(#pc291247261)" style="fill: none; stroke: #751f58; stroke-width: 1.5; stroke-linecap: square"/>
   </g>
   <g id="line2d_22">
    <path d="M 61.286591 230.857231 
L 70.302162 219.342396 
L 79.259213 178.059702 
L 88.274784 190.705704 
L 97.231836 173.378147 
L 106.192545 78.693939 
L 115.149597 115.659562 
" clip-path="url(#pc291247261)" style="fill: none; stroke: #751f58; stroke-width: 1.5; stroke-linecap: square"/>
   </g>
   <g id="line2d_23">
    <path d="M 61.286591 231.979569 
M 79.603012 226.64875 
L 88.845344 217.656178 
L 99.627454 197.855418 
L 108.873443 193.354213 
L 117.943875 161.872266 
L 127.186207 173.071677 
L 136.315158 180.730913 
L 145.502628 179.16577 
L 154.690098 193.534564 
L 163.932429 163.168774 
L 173.174761 175.979992 
L 182.362231 183.632923 
L 193.085823 173.892714 
L 202.331811 125.088255 
L 211.515624 130.172132 
L 220.703094 96.640743 
L 229.832045 101.117984 
L 239.132896 186.077119 
L 248.261847 142.676879 
L 257.55904 147.537524 
L 266.918409 193.959587 
" clip-path="url(#pc291247261)" style="fill: none; stroke: #a11a5b; stroke-width: 1.5; stroke-linecap: square"/>
   </g>
   <g id="line2d_24">
    <path d="M 61.286591 234.292083 
M 79.200694 219.671567 
L 88.841686 182.92287 
L 97.114798 166.47815 
L 108.072465 183.328975 
L 117.084379 204.046624 
L 126.158468 154.165104 
" clip-path="url(#pc291247261)" style="fill: none; stroke: #cb1b4f; stroke-width: 1.5; stroke-linecap: square"/>
   </g>
   <g id="line2d_25">
    <path d="M 61.286591 234.027875 
L 72.29912 234.330915 
L 81.654832 207.839037 
L 91.244619 176.658515 
L 100.311394 165.853858 
L 110.921605 170.621175 
L 118.686334 182.13084 
L 130.635165 188.623471 
L 137.229516 166.242306 
L 146.358467 135.778143 
L 155.65566 177.337038 
" clip-path="url(#pc291247261)" style="fill: none; stroke: #cb1b4f; stroke-width: 1.5; stroke-linecap: square"/>
   </g>
   <g id="line2d_26">
    <path d="M 70.243643 225.223473 
L 80.060191 226.381503 
L 88.216265 218.810171 
L 99.173932 212.11701 
L 108.017604 214.800833 
L 117.088036 207.676343 
L 126.045088 200.546808 
L 135.00214 193.85743 
L 143.962849 196.773313 
L 152.919901 196.561432 
L 161.876952 175.269939 
L 173.434439 189.612248 
L 179.791056 217.764641 
" clip-path="url(#pc291247261)" style="fill: none; stroke: #e83f3f; stroke-width: 1.5; stroke-linecap: square"/>
   </g>
   <g id="line2d_27">
    <path d="M 79.204352 233.07933 
L 87.934643 219.901105 
L 96.946556 209.64759 
L 109.86095 207.793634 
L 118.459573 205.02405 
L 127.416625 212.85607 
L 136.201777 216.112475 
L 145.103968 180.879734 
" clip-path="url(#pc291247261)" style="fill: none; stroke: #e83f3f; stroke-width: 1.5; stroke-linecap: square"/>
   </g>
   <g id="line2d_28">
    <path d="M 61.286591 229.151843 
L 70.470404 219.809038 
L 79.712735 212.4651 
L 88.900205 205.273766 
L 101.968211 200.92895 
L 111.210542 196.599268 
L 120.394355 175.522178 
L 129.695205 164.387088 
L 138.937537 154.761649 
" clip-path="url(#pc291247261)" style="fill: none; stroke: #e83f3f; stroke-width: 1.5; stroke-linecap: square"/>
   </g>
   <g id="line2d_29">
    <path d="M 79.943153 225.355142 
L 91.796891 215.227117 
L 98.372955 218.655044 
L 107.673805 221.2468 
L 118.799714 212.520592 
" clip-path="url(#pc291247261)" style="fill: none; stroke: #f3714d; stroke-width: 1.5; stroke-linecap: square"/>
   </g>
   <g id="line2d_30">
    <path d="M 70.185124 215.297743 
L 79.142176 178.125285 
L 88.102885 170.347496 
L 97.059937 170.766212 
L 106.075507 137.688853 
L 115.632378 140.911206 
L 127.006993 113.056455 
L 134.888759 101.307164 
L 143.845811 24.664349 
" clip-path="url(#pc291247261)" style="fill: none; stroke: #f69c73; stroke-width: 1.5; stroke-linecap: square"/>
   </g>
   <g id="line2d_31">
    <path d="M 79.259213 200.949129 
L 88.274784 169.088823 
L 97.231836 135.24718 
L 106.188888 124.527023 
L 115.091078 84.91163 
L 125.986569 126.601689 
" clip-path="url(#pc291247261)" style="fill: none; stroke: #f69c73; stroke-width: 1.5; stroke-linecap: square"/>
   </g>
   <g id="line2d_32">
    <path d="M 79.032453 230.228273 
" clip-path="url(#pc291247261)" style="fill: none; stroke: #f69c73; stroke-width: 1.5; stroke-linecap: square"/>
   </g>
   <g id="line2d_33">
    <path d="M 70.2473 223.596532 
L 79.204352 217.239984 
L 88.161404 189.768636 
L 97.231836 160.941504 
L 106.247407 158.391368 
L 115.262977 138.043249 
L 125.876846 102.442239 
" clip-path="url(#pc291247261)" style="fill: none; stroke: #f69c73; stroke-width: 1.5; stroke-linecap: square"/>
   </g>
   <g id="line2d_34">
    <path d="M 61.286591 228.132672 
M 79.200694 217.581767 
L 88.044366 178.02565 
L 97.001418 132.183738 
L 105.962127 94.370592 
L 116.861275 66.548632 
L 124.04813 36.065551 
" clip-path="url(#pc291247261)" style="fill: none; stroke: #f7c6a6; stroke-width: 1.5; stroke-linecap: square"/>
   </g>
   <g id="line2d_35">
    <path d="M 70.360681 235.498302 
L 79.317732 227.954213 
L 90.099843 225.398906 
L 98.943514 203.601422 
L 107.933483 190.260502 
L 116.916137 171.78778 
L 125.990226 163.984767 
L 134.947278 160.805295 
L 143.90433 148.823943 
L 152.80652 143.422245 
" clip-path="url(#pc291247261)" style="fill: none; stroke: #f7c6a6; stroke-width: 1.5; stroke-linecap: square"/>
   </g>
   <g id="line2d_36">
    <path d="M 70.243643 222.357913 
L 81.197653 208.52891 
L 90.213223 194.870169 
L 99.056895 165.684858 
L 108.013946 155.954739 
" clip-path="url(#pc291247261)" style="fill: none; stroke: #faebdd; stroke-width: 1.5; stroke-linecap: square"/>
   </g>
   <g id="line2d_37">
    <path d="M 61.286591 235.498302 
L 65.018665 228.354361 
L 68.750739 221.853353 
L 72.482812 215.937419 
L 76.214886 210.553902 
L 79.94696 205.654886 
L 83.679034 201.196768 
L 87.411108 197.139868 
L 91.143181 193.448077 
L 94.875255 190.088538 
L 98.607329 187.031347 
L 102.339403 184.249295 
L 106.071477 181.71762 
L 109.80355 179.413789 
L 113.535624 177.317296 
L 117.267698 175.409481 
L 120.999772 173.673364 
L 124.731846 172.093493 
L 128.46392 170.655806 
L 132.195993 169.347507 
L 135.928067 168.156951 
L 139.660141 167.073542 
L 143.392215 166.087636 
L 147.124289 165.19046 
L 150.856362 164.374026 
L 154.588436 163.63107 
L 158.32051 162.954977 
L 162.052584 162.339731 
L 165.784658 161.779855 
L 169.516731 161.270366 
L 173.248805 160.80673 
L 176.980879 160.38482 
L 180.712953 160.000881 
L 184.445027 159.651495 
L 188.1771 159.333553 
L 191.909174 159.044225 
L 195.641248 158.780935 
L 199.373322 158.541341 
L 203.105396 158.32331 
L 206.83747 158.124901 
L 210.569543 157.944348 
L 214.301617 157.780044 
L 218.033691 157.630527 
L 221.765765 157.494466 
L 225.497839 157.370651 
L 229.229912 157.257978 
L 232.961986 157.155446 
L 236.69406 157.062141 
L 240.426134 156.977234 
L 244.158208 156.899968 
" clip-path="url(#pc291247261)" style="fill: none; stroke: #000000; stroke-width: 3; stroke-linecap: square"/>
   </g>
   <g id="patch_3">
    <path d="M 51.005 246.04 
L 51.005 14.122651 
" style="fill: none; stroke: #000000; stroke-width: 0.8; stroke-linejoin: miter; stroke-linecap: square"/>
   </g>
   <g id="patch_4">
    <path d="M 277.2 246.04 
L 277.2 14.122651 
" style="fill: none; stroke: #000000; stroke-width: 0.8; stroke-linejoin: miter; stroke-linecap: square"/>
   </g>
   <g id="patch_5">
    <path d="M 51.005 246.04 
L 277.2 246.04 
" style="fill: none; stroke: #000000; stroke-width: 0.8; stroke-linejoin: miter; stroke-linecap: square"/>
   </g>
   <g id="patch_6">
    <path d="M 51.005 14.122651 
L 277.2 14.122651 
" style="fill: none; stroke: #000000; stroke-width: 0.8; stroke-linejoin: miter; stroke-linecap: square"/>
   </g>
   <g id="legend_1">
    <g id="patch_7">
     <path d="M 203.896875 51.478901 
L 270.2 51.478901 
Q 272.2 51.478901 272.2 49.478901 
L 272.2 21.122651 
Q 272.2 19.122651 270.2 19.122651 
L 203.896875 19.122651 
Q 201.896875 19.122651 201.896875 21.122651 
L 201.896875 49.478901 
Q 201.896875 51.478901 203.896875 51.478901 
z
" style="fill: #ffffff; opacity: 0.8; stroke: #cccccc; stroke-linejoin: miter"/>
    </g>
    <g id="PathCollection_1">
     <defs>
      <path id="m5dbbe57ae0" d="M 0 3 
C 0.795609 3 1.55874 2.683901 2.12132 2.12132 
C 2.683901 1.55874 3 0.795609 3 0 
C 3 -0.795609 2.683901 -1.55874 2.12132 -2.12132 
C 1.55874 -2.683901 0.795609 -3 0 -3 
C -0.795609 -3 -1.55874 -2.683901 -2.12132 -2.12132 
C -2.683901 -1.55874 -3 -0.795609 -3 0 
C -3 0.795609 -2.683901 1.55874 -2.12132 2.12132 
C -1.55874 2.683901 -0.795609 3 0 3 
z
" style="stroke: #000000"/>
     </defs>
     <g>
      <use xlink:href="#m5dbbe57ae0" x="215.896875" y="28.096089" style="stroke: #000000"/>
     </g>
    </g>
    <g id="text_17">
     <!-- binned -->
     <g transform="translate(233.896875 30.721089)scale(0.1 -0.1)">
      <defs>
       <path id="DejaVuSans-62" d="M 3116 1747 
Q 3116 2381 2855 2742 
Q 2594 3103 2138 3103 
Q 1681 3103 1420 2742 
Q 1159 2381 1159 1747 
Q 1159 1113 1420 752 
Q 1681 391 2138 391 
Q 2594 391 2855 752 
Q 3116 1113 3116 1747 
z
M 1159 2969 
Q 1341 3281 1617 3432 
Q 1894 3584 2278 3584 
Q 2916 3584 3314 3078 
Q 3713 2572 3713 1747 
Q 3713 922 3314 415 
Q 2916 -91 2278 -91 
Q 1894 -91 1617 61 
Q 1341 213 1159 525 
L 1159 0 
L 581 0 
L 581 4863 
L 1159 4863 
L 1159 2969 
z
" transform="scale(0.015625)"/>
       <path id="DejaVuSans-64" d="M 2906 2969 
L 2906 4863 
L 3481 4863 
L 3481 0 
L 2906 0 
L 2906 525 
Q 2725 213 2448 61 
Q 2172 -91 1784 -91 
Q 1150 -91 751 415 
Q 353 922 353 1747 
Q 353 2572 751 3078 
Q 1150 3584 1784 3584 
Q 2172 3584 2448 3432 
Q 2725 3281 2906 2969 
z
M 947 1747 
Q 947 1113 1208 752 
Q 1469 391 1925 391 
Q 2381 391 2643 752 
Q 2906 1113 2906 1747 
Q 2906 2381 2643 2742 
Q 2381 3103 1925 3103 
Q 1469 3103 1208 2742 
Q 947 2381 947 1747 
z
" transform="scale(0.015625)"/>
      </defs>
      <use xlink:href="#DejaVuSans-62"/>
      <use xlink:href="#DejaVuSans-69" x="63.476562"/>
      <use xlink:href="#DejaVuSans-6e" x="91.259766"/>
      <use xlink:href="#DejaVuSans-6e" x="154.638672"/>
      <use xlink:href="#DejaVuSans-65" x="218.017578"/>
      <use xlink:href="#DejaVuSans-64" x="279.541016"/>
     </g>
    </g>
    <g id="line2d_38">
     <path d="M 205.896875 41.899214 
L 215.896875 41.899214 
L 225.896875 41.899214 
" style="fill: none; stroke: #000000; stroke-width: 3; stroke-linecap: square"/>
    </g>
    <g id="text_18">
     <!-- fit -->
     <g transform="translate(233.896875 45.399214)scale(0.1 -0.1)">
      <defs>
       <path id="DejaVuSans-66" d="M 2375 4863 
L 2375 4384 
L 1825 4384 
Q 1516 4384 1395 4259 
Q 1275 4134 1275 3809 
L 1275 3500 
L 2222 3500 
L 2222 3053 
L 1275 3053 
L 1275 0 
L 697 0 
L 697 3053 
L 147 3053 
L 147 3500 
L 697 3500 
L 697 3744 
Q 697 4328 969 4595 
Q 1241 4863 1831 4863 
L 2375 4863 
z
" transform="scale(0.015625)"/>
      </defs>
      <use xlink:href="#DejaVuSans-66"/>
      <use xlink:href="#DejaVuSans-69" x="35.205078"/>
      <use xlink:href="#DejaVuSans-74" x="62.988281"/>
     </g>
    </g>
   </g>
   <g id="PathCollection_2">
    <g clip-path="url(#pc291247261)">
     <use xlink:href="#m5dbbe57ae0" x="70.430172" y="223.914142" style="stroke: #000000"/>
     <use xlink:href="#m5dbbe57ae0" x="88.717333" y="197.961099" style="stroke: #000000"/>
     <use xlink:href="#m5dbbe57ae0" x="107.004495" y="177.287586" style="stroke: #000000"/>
     <use xlink:href="#m5dbbe57ae0" x="125.291657" y="167.313305" style="stroke: #000000"/>
     <use xlink:href="#m5dbbe57ae0" x="143.578818" y="160.382952" style="stroke: #000000"/>
     <use xlink:href="#m5dbbe57ae0" x="161.86598" y="177.300851" style="stroke: #000000"/>
     <use xlink:href="#m5dbbe57ae0" x="180.153142" y="176.698663" style="stroke: #000000"/>
     <use xlink:href="#m5dbbe57ae0" x="198.440303" y="167.984332" style="stroke: #000000"/>
     <use xlink:href="#m5dbbe57ae0" x="216.727465" y="146.089492" style="stroke: #000000"/>
     <use xlink:href="#m5dbbe57ae0" x="235.014627" y="147.798171" style="stroke: #000000"/>
     <use xlink:href="#m5dbbe57ae0" x="253.301789" y="145.107202" style="stroke: #000000"/>
    </g>
   </g>
  </g>
 </g>
 <defs>
  <clipPath id="pc291247261">
   <rect x="51.005" y="14.122651" width="226.195" height="231.917349"/>
  </clipPath>
 </defs>
</svg>
