<?xml version="1.0" encoding="utf-8" standalone="no"?>
<!DOCTYPE svg PUBLIC "-//W3C//DTD SVG 1.1//EN"
  "http://www.w3.org/Graphics/SVG/1.1/DTD/svg11.dtd">
<svg xmlns:xlink="http://www.w3.org/1999/xlink" width="216pt" height="216pt" viewBox="0 0 216 216" xmlns="http://www.w3.org/2000/svg" version="1.1">
 <metadata>
  <rdf:RDF xmlns:dc="http://purl.org/dc/elements/1.1/" xmlns:cc="http://creativecommons.org/ns#" xmlns:rdf="http://www.w3.org/1999/02/22-rdf-syntax-ns#">
   <cc:Work>
    <dc:type rdf:resource="http://purl.org/dc/dcmitype/StillImage"/>
    <dc:date>2023-04-18T23:45:30.416532</dc:date>
    <dc:format>image/svg+xml</dc:format>
    <dc:creator>
     <cc:Agent>
      <dc:title>Matplotlib v3.6.3, https://matplotlib.org/</dc:title>
     </cc:Agent>
    </dc:creator>
   </cc:Work>
  </rdf:RDF>
 </metadata>
 <defs>
  <style type="text/css">*{stroke-linejoin: round; stroke-linecap: butt}</style>
 </defs>
 <g id="figure_1">
  <g id="patch_1">
   <path d="M 0 216 
L 216 216 
L 216 0 
L 0 0 
z
" style="fill: #ffffff"/>
  </g>
  <g id="axes_1">
   <g id="patch_2">
    <path d="M 55.91 166.12 
L 203.04 166.12 
L 203.04 12.96 
L 55.91 12.96 
z
" style="fill: #ffffff"/>
   </g>
   <g id="matplotlib.axis_1">
    <g id="xtick_1">
     <g id="line2d_1">
      <defs>
       <path id="m64d2905963" d="M 0 0 
L 0 3.5 
" style="stroke: #000000; stroke-width: 0.8"/>
      </defs>
      <g>
       <use xlink:href="#m64d2905963" x="62.597727" y="166.12" style="stroke: #000000; stroke-width: 0.8"/>
      </g>
     </g>
     <g id="text_1">
      <!-- 0 -->
      <g transform="translate(58.780227 182.238125) scale(0.12 -0.12)">
       <defs>
        <path id="DejaVuSans-30" d="M 2034 4250 
Q 1547 4250 1301 3770 
Q 1056 3291 1056 2328 
Q 1056 1369 1301 889 
Q 1547 409 2034 409 
Q 2525 409 2770 889 
Q 3016 1369 3016 2328 
Q 3016 3291 2770 3770 
Q 2525 4250 2034 4250 
z
M 2034 4750 
Q 2819 4750 3233 4129 
Q 3647 3509 3647 2328 
Q 3647 1150 3233 529 
Q 2819 -91 2034 -91 
Q 1250 -91 836 529 
Q 422 1150 422 2328 
Q 422 3509 836 4129 
Q 1250 4750 2034 4750 
z
" transform="scale(0.015625)"/>
       </defs>
       <use xlink:href="#DejaVuSans-30"/>
      </g>
     </g>
    </g>
    <g id="xtick_2">
     <g id="line2d_2">
      <g>
       <use xlink:href="#m64d2905963" x="104.50078" y="166.12" style="stroke: #000000; stroke-width: 0.8"/>
      </g>
     </g>
     <g id="text_2">
      <!-- 1 -->
      <g transform="translate(100.68328 182.238125) scale(0.12 -0.12)">
       <defs>
        <path id="DejaVuSans-31" d="M 794 531 
L 1825 531 
L 1825 4091 
L 703 3866 
L 703 4441 
L 1819 4666 
L 2450 4666 
L 2450 531 
L 3481 531 
L 3481 0 
L 794 0 
L 794 531 
z
" transform="scale(0.015625)"/>
       </defs>
       <use xlink:href="#DejaVuSans-31"/>
      </g>
     </g>
    </g>
    <g id="xtick_3">
     <g id="line2d_3">
      <g>
       <use xlink:href="#m64d2905963" x="146.403833" y="166.12" style="stroke: #000000; stroke-width: 0.8"/>
      </g>
     </g>
     <g id="text_3">
      <!-- 2 -->
      <g transform="translate(142.586333 182.238125) scale(0.12 -0.12)">
       <defs>
        <path id="DejaVuSans-32" d="M 1228 531 
L 3431 531 
L 3431 0 
L 469 0 
L 469 531 
Q 828 903 1448 1529 
Q 2069 2156 2228 2338 
Q 2531 2678 2651 2914 
Q 2772 3150 2772 3378 
Q 2772 3750 2511 3984 
Q 2250 4219 1831 4219 
Q 1534 4219 1204 4116 
Q 875 4013 500 3803 
L 500 4441 
Q 881 4594 1212 4672 
Q 1544 4750 1819 4750 
Q 2544 4750 2975 4387 
Q 3406 4025 3406 3419 
Q 3406 3131 3298 2873 
Q 3191 2616 2906 2266 
Q 2828 2175 2409 1742 
Q 1991 1309 1228 531 
z
" transform="scale(0.015625)"/>
       </defs>
       <use xlink:href="#DejaVuSans-32"/>
      </g>
     </g>
    </g>
    <g id="xtick_4">
     <g id="line2d_4">
      <g>
       <use xlink:href="#m64d2905963" x="188.306887" y="166.12" style="stroke: #000000; stroke-width: 0.8"/>
      </g>
     </g>
     <g id="text_4">
      <!-- 3 -->
      <g transform="translate(184.489387 182.238125) scale(0.12 -0.12)">
       <defs>
        <path id="DejaVuSans-33" d="M 2597 2516 
Q 3050 2419 3304 2112 
Q 3559 1806 3559 1356 
Q 3559 666 3084 287 
Q 2609 -91 1734 -91 
Q 1441 -91 1130 -33 
Q 819 25 488 141 
L 488 750 
Q 750 597 1062 519 
Q 1375 441 1716 441 
Q 2309 441 2620 675 
Q 2931 909 2931 1356 
Q 2931 1769 2642 2001 
Q 2353 2234 1838 2234 
L 1294 2234 
L 1294 2753 
L 1863 2753 
Q 2328 2753 2575 2939 
Q 2822 3125 2822 3475 
Q 2822 3834 2567 4026 
Q 2313 4219 1838 4219 
Q 1578 4219 1281 4162 
Q 984 4106 628 3988 
L 628 4550 
Q 988 4650 1302 4700 
Q 1616 4750 1894 4750 
Q 2613 4750 3031 4423 
Q 3450 4097 3450 3541 
Q 3450 3153 3228 2886 
Q 3006 2619 2597 2516 
z
" transform="scale(0.015625)"/>
       </defs>
       <use xlink:href="#DejaVuSans-33"/>
      </g>
     </g>
    </g>
    <g id="text_5">
     <!-- Distance from plus end (μm) -->
     <g transform="translate(43.601875 197.851875) scale(0.12 -0.12)">
      <defs>
       <path id="DejaVuSans-44" d="M 1259 4147 
L 1259 519 
L 2022 519 
Q 2988 519 3436 956 
Q 3884 1394 3884 2338 
Q 3884 3275 3436 3711 
Q 2988 4147 2022 4147 
L 1259 4147 
z
M 628 4666 
L 1925 4666 
Q 3281 4666 3915 4102 
Q 4550 3538 4550 2338 
Q 4550 1131 3912 565 
Q 3275 0 1925 0 
L 628 0 
L 628 4666 
z
" transform="scale(0.015625)"/>
       <path id="DejaVuSans-69" d="M 603 3500 
L 1178 3500 
L 1178 0 
L 603 0 
L 603 3500 
z
M 603 4863 
L 1178 4863 
L 1178 4134 
L 603 4134 
L 603 4863 
z
" transform="scale(0.015625)"/>
       <path id="DejaVuSans-73" d="M 2834 3397 
L 2834 2853 
Q 2591 2978 2328 3040 
Q 2066 3103 1784 3103 
Q 1356 3103 1142 2972 
Q 928 2841 928 2578 
Q 928 2378 1081 2264 
Q 1234 2150 1697 2047 
L 1894 2003 
Q 2506 1872 2764 1633 
Q 3022 1394 3022 966 
Q 3022 478 2636 193 
Q 2250 -91 1575 -91 
Q 1294 -91 989 -36 
Q 684 19 347 128 
L 347 722 
Q 666 556 975 473 
Q 1284 391 1588 391 
Q 1994 391 2212 530 
Q 2431 669 2431 922 
Q 2431 1156 2273 1281 
Q 2116 1406 1581 1522 
L 1381 1569 
Q 847 1681 609 1914 
Q 372 2147 372 2553 
Q 372 3047 722 3315 
Q 1072 3584 1716 3584 
Q 2034 3584 2315 3537 
Q 2597 3491 2834 3397 
z
" transform="scale(0.015625)"/>
       <path id="DejaVuSans-74" d="M 1172 4494 
L 1172 3500 
L 2356 3500 
L 2356 3053 
L 1172 3053 
L 1172 1153 
Q 1172 725 1289 603 
Q 1406 481 1766 481 
L 2356 481 
L 2356 0 
L 1766 0 
Q 1100 0 847 248 
Q 594 497 594 1153 
L 594 3053 
L 172 3053 
L 172 3500 
L 594 3500 
L 594 4494 
L 1172 4494 
z
" transform="scale(0.015625)"/>
       <path id="DejaVuSans-61" d="M 2194 1759 
Q 1497 1759 1228 1600 
Q 959 1441 959 1056 
Q 959 750 1161 570 
Q 1363 391 1709 391 
Q 2188 391 2477 730 
Q 2766 1069 2766 1631 
L 2766 1759 
L 2194 1759 
z
M 3341 1997 
L 3341 0 
L 2766 0 
L 2766 531 
Q 2569 213 2275 61 
Q 1981 -91 1556 -91 
Q 1019 -91 701 211 
Q 384 513 384 1019 
Q 384 1609 779 1909 
Q 1175 2209 1959 2209 
L 2766 2209 
L 2766 2266 
Q 2766 2663 2505 2880 
Q 2244 3097 1772 3097 
Q 1472 3097 1187 3025 
Q 903 2953 641 2809 
L 641 3341 
Q 956 3463 1253 3523 
Q 1550 3584 1831 3584 
Q 2591 3584 2966 3190 
Q 3341 2797 3341 1997 
z
" transform="scale(0.015625)"/>
       <path id="DejaVuSans-6e" d="M 3513 2113 
L 3513 0 
L 2938 0 
L 2938 2094 
Q 2938 2591 2744 2837 
Q 2550 3084 2163 3084 
Q 1697 3084 1428 2787 
Q 1159 2491 1159 1978 
L 1159 0 
L 581 0 
L 581 3500 
L 1159 3500 
L 1159 2956 
Q 1366 3272 1645 3428 
Q 1925 3584 2291 3584 
Q 2894 3584 3203 3211 
Q 3513 2838 3513 2113 
z
" transform="scale(0.015625)"/>
       <path id="DejaVuSans-63" d="M 3122 3366 
L 3122 2828 
Q 2878 2963 2633 3030 
Q 2388 3097 2138 3097 
Q 1578 3097 1268 2742 
Q 959 2388 959 1747 
Q 959 1106 1268 751 
Q 1578 397 2138 397 
Q 2388 397 2633 464 
Q 2878 531 3122 666 
L 3122 134 
Q 2881 22 2623 -34 
Q 2366 -91 2075 -91 
Q 1284 -91 818 406 
Q 353 903 353 1747 
Q 353 2603 823 3093 
Q 1294 3584 2113 3584 
Q 2378 3584 2631 3529 
Q 2884 3475 3122 3366 
z
" transform="scale(0.015625)"/>
       <path id="DejaVuSans-65" d="M 3597 1894 
L 3597 1613 
L 953 1613 
Q 991 1019 1311 708 
Q 1631 397 2203 397 
Q 2534 397 2845 478 
Q 3156 559 3463 722 
L 3463 178 
Q 3153 47 2828 -22 
Q 2503 -91 2169 -91 
Q 1331 -91 842 396 
Q 353 884 353 1716 
Q 353 2575 817 3079 
Q 1281 3584 2069 3584 
Q 2775 3584 3186 3129 
Q 3597 2675 3597 1894 
z
M 3022 2063 
Q 3016 2534 2758 2815 
Q 2500 3097 2075 3097 
Q 1594 3097 1305 2825 
Q 1016 2553 972 2059 
L 3022 2063 
z
" transform="scale(0.015625)"/>
       <path id="DejaVuSans-20" transform="scale(0.015625)"/>
       <path id="DejaVuSans-66" d="M 2375 4863 
L 2375 4384 
L 1825 4384 
Q 1516 4384 1395 4259 
Q 1275 4134 1275 3809 
L 1275 3500 
L 2222 3500 
L 2222 3053 
L 1275 3053 
L 1275 0 
L 697 0 
L 697 3053 
L 147 3053 
L 147 3500 
L 697 3500 
L 697 3744 
Q 697 4328 969 4595 
Q 1241 4863 1831 4863 
L 2375 4863 
z
" transform="scale(0.015625)"/>
       <path id="DejaVuSans-72" d="M 2631 2963 
Q 2534 3019 2420 3045 
Q 2306 3072 2169 3072 
Q 1681 3072 1420 2755 
Q 1159 2438 1159 1844 
L 1159 0 
L 581 0 
L 581 3500 
L 1159 3500 
L 1159 2956 
Q 1341 3275 1631 3429 
Q 1922 3584 2338 3584 
Q 2397 3584 2469 3576 
Q 2541 3569 2628 3553 
L 2631 2963 
z
" transform="scale(0.015625)"/>
       <path id="DejaVuSans-6f" d="M 1959 3097 
Q 1497 3097 1228 2736 
Q 959 2375 959 1747 
Q 959 1119 1226 758 
Q 1494 397 1959 397 
Q 2419 397 2687 759 
Q 2956 1122 2956 1747 
Q 2956 2369 2687 2733 
Q 2419 3097 1959 3097 
z
M 1959 3584 
Q 2709 3584 3137 3096 
Q 3566 2609 3566 1747 
Q 3566 888 3137 398 
Q 2709 -91 1959 -91 
Q 1206 -91 779 398 
Q 353 888 353 1747 
Q 353 2609 779 3096 
Q 1206 3584 1959 3584 
z
" transform="scale(0.015625)"/>
       <path id="DejaVuSans-6d" d="M 3328 2828 
Q 3544 3216 3844 3400 
Q 4144 3584 4550 3584 
Q 5097 3584 5394 3201 
Q 5691 2819 5691 2113 
L 5691 0 
L 5113 0 
L 5113 2094 
Q 5113 2597 4934 2840 
Q 4756 3084 4391 3084 
Q 3944 3084 3684 2787 
Q 3425 2491 3425 1978 
L 3425 0 
L 2847 0 
L 2847 2094 
Q 2847 2600 2669 2842 
Q 2491 3084 2119 3084 
Q 1678 3084 1418 2786 
Q 1159 2488 1159 1978 
L 1159 0 
L 581 0 
L 581 3500 
L 1159 3500 
L 1159 2956 
Q 1356 3278 1631 3431 
Q 1906 3584 2284 3584 
Q 2666 3584 2933 3390 
Q 3200 3197 3328 2828 
z
" transform="scale(0.015625)"/>
       <path id="DejaVuSans-70" d="M 1159 525 
L 1159 -1331 
L 581 -1331 
L 581 3500 
L 1159 3500 
L 1159 2969 
Q 1341 3281 1617 3432 
Q 1894 3584 2278 3584 
Q 2916 3584 3314 3078 
Q 3713 2572 3713 1747 
Q 3713 922 3314 415 
Q 2916 -91 2278 -91 
Q 1894 -91 1617 61 
Q 1341 213 1159 525 
z
M 3116 1747 
Q 3116 2381 2855 2742 
Q 2594 3103 2138 3103 
Q 1681 3103 1420 2742 
Q 1159 2381 1159 1747 
Q 1159 1113 1420 752 
Q 1681 391 2138 391 
Q 2594 391 2855 752 
Q 3116 1113 3116 1747 
z
" transform="scale(0.015625)"/>
       <path id="DejaVuSans-6c" d="M 603 4863 
L 1178 4863 
L 1178 0 
L 603 0 
L 603 4863 
z
" transform="scale(0.015625)"/>
       <path id="DejaVuSans-75" d="M 544 1381 
L 544 3500 
L 1119 3500 
L 1119 1403 
Q 1119 906 1312 657 
Q 1506 409 1894 409 
Q 2359 409 2629 706 
Q 2900 1003 2900 1516 
L 2900 3500 
L 3475 3500 
L 3475 0 
L 2900 0 
L 2900 538 
Q 2691 219 2414 64 
Q 2138 -91 1772 -91 
Q 1169 -91 856 284 
Q 544 659 544 1381 
z
M 1991 3584 
L 1991 3584 
z
" transform="scale(0.015625)"/>
       <path id="DejaVuSans-64" d="M 2906 2969 
L 2906 4863 
L 3481 4863 
L 3481 0 
L 2906 0 
L 2906 525 
Q 2725 213 2448 61 
Q 2172 -91 1784 -91 
Q 1150 -91 751 415 
Q 353 922 353 1747 
Q 353 2572 751 3078 
Q 1150 3584 1784 3584 
Q 2172 3584 2448 3432 
Q 2725 3281 2906 2969 
z
M 947 1747 
Q 947 1113 1208 752 
Q 1469 391 1925 391 
Q 2381 391 2643 752 
Q 2906 1113 2906 1747 
Q 2906 2381 2643 2742 
Q 2381 3103 1925 3103 
Q 1469 3103 1208 2742 
Q 947 2381 947 1747 
z
" transform="scale(0.015625)"/>
       <path id="DejaVuSans-28" d="M 1984 4856 
Q 1566 4138 1362 3434 
Q 1159 2731 1159 2009 
Q 1159 1288 1364 580 
Q 1569 -128 1984 -844 
L 1484 -844 
Q 1016 -109 783 600 
Q 550 1309 550 2009 
Q 550 2706 781 3412 
Q 1013 4119 1484 4856 
L 1984 4856 
z
" transform="scale(0.015625)"/>
       <path id="DejaVuSans-3bc" d="M 544 -1331 
L 544 3500 
L 1119 3500 
L 1119 1325 
Q 1119 872 1334 640 
Q 1550 409 1972 409 
Q 2434 409 2667 671 
Q 2900 934 2900 1459 
L 2900 3500 
L 3475 3500 
L 3475 806 
Q 3475 619 3529 530 
Q 3584 441 3700 441 
Q 3728 441 3778 458 
Q 3828 475 3916 513 
L 3916 50 
Q 3788 -22 3673 -56 
Q 3559 -91 3450 -91 
Q 3234 -91 3106 31 
Q 2978 153 2931 403 
Q 2775 156 2548 32 
Q 2322 -91 2016 -91 
Q 1697 -91 1473 31 
Q 1250 153 1119 397 
L 1119 -1331 
L 544 -1331 
z
" transform="scale(0.015625)"/>
       <path id="DejaVuSans-29" d="M 513 4856 
L 1013 4856 
Q 1481 4119 1714 3412 
Q 1947 2706 1947 2009 
Q 1947 1309 1714 600 
Q 1481 -109 1013 -844 
L 513 -844 
Q 928 -128 1133 580 
Q 1338 1288 1338 2009 
Q 1338 2731 1133 3434 
Q 928 4138 513 4856 
z
" transform="scale(0.015625)"/>
      </defs>
      <use xlink:href="#DejaVuSans-44"/>
      <use xlink:href="#DejaVuSans-69" x="77.001953"/>
      <use xlink:href="#DejaVuSans-73" x="104.785156"/>
      <use xlink:href="#DejaVuSans-74" x="156.884766"/>
      <use xlink:href="#DejaVuSans-61" x="196.09375"/>
      <use xlink:href="#DejaVuSans-6e" x="257.373047"/>
      <use xlink:href="#DejaVuSans-63" x="320.751953"/>
      <use xlink:href="#DejaVuSans-65" x="375.732422"/>
      <use xlink:href="#DejaVuSans-20" x="437.255859"/>
      <use xlink:href="#DejaVuSans-66" x="469.042969"/>
      <use xlink:href="#DejaVuSans-72" x="504.248047"/>
      <use xlink:href="#DejaVuSans-6f" x="543.111328"/>
      <use xlink:href="#DejaVuSans-6d" x="604.292969"/>
      <use xlink:href="#DejaVuSans-20" x="701.705078"/>
      <use xlink:href="#DejaVuSans-70" x="733.492188"/>
      <use xlink:href="#DejaVuSans-6c" x="796.96875"/>
      <use xlink:href="#DejaVuSans-75" x="824.751953"/>
      <use xlink:href="#DejaVuSans-73" x="888.130859"/>
      <use xlink:href="#DejaVuSans-20" x="940.230469"/>
      <use xlink:href="#DejaVuSans-65" x="972.017578"/>
      <use xlink:href="#DejaVuSans-6e" x="1033.541016"/>
      <use xlink:href="#DejaVuSans-64" x="1096.919922"/>
      <use xlink:href="#DejaVuSans-20" x="1160.396484"/>
      <use xlink:href="#DejaVuSans-28" x="1192.183594"/>
      <use xlink:href="#DejaVuSans-3bc" x="1231.197266"/>
      <use xlink:href="#DejaVuSans-6d" x="1294.820312"/>
      <use xlink:href="#DejaVuSans-29" x="1392.232422"/>
     </g>
    </g>
   </g>
   <g id="matplotlib.axis_2">
    <g id="ytick_1">
     <g id="line2d_5">
      <defs>
       <path id="m18195c4584" d="M 0 0 
L -3.5 0 
" style="stroke: #000000; stroke-width: 0.8"/>
      </defs>
      <g>
       <use xlink:href="#m18195c4584" x="55.91" y="165.264129" style="stroke: #000000; stroke-width: 0.8"/>
      </g>
     </g>
     <g id="text_6">
      <!-- 0.1 -->
      <g transform="translate(29.82625 169.823192) scale(0.12 -0.12)">
       <defs>
        <path id="DejaVuSans-2e" d="M 684 794 
L 1344 794 
L 1344 0 
L 684 0 
L 684 794 
z
" transform="scale(0.015625)"/>
       </defs>
       <use xlink:href="#DejaVuSans-30"/>
       <use xlink:href="#DejaVuSans-2e" x="63.623047"/>
       <use xlink:href="#DejaVuSans-31" x="95.410156"/>
      </g>
     </g>
    </g>
    <g id="ytick_2">
     <g id="line2d_6">
      <g>
       <use xlink:href="#m18195c4584" x="55.91" y="138.491899" style="stroke: #000000; stroke-width: 0.8"/>
      </g>
     </g>
     <g id="text_7">
      <!-- 0.2 -->
      <g transform="translate(29.82625 143.050961) scale(0.12 -0.12)">
       <use xlink:href="#DejaVuSans-30"/>
       <use xlink:href="#DejaVuSans-2e" x="63.623047"/>
       <use xlink:href="#DejaVuSans-32" x="95.410156"/>
      </g>
     </g>
    </g>
    <g id="ytick_3">
     <g id="line2d_7">
      <g>
       <use xlink:href="#m18195c4584" x="55.91" y="111.719668" style="stroke: #000000; stroke-width: 0.8"/>
      </g>
     </g>
     <g id="text_8">
      <!-- 0.3 -->
      <g transform="translate(29.82625 116.278731) scale(0.12 -0.12)">
       <use xlink:href="#DejaVuSans-30"/>
       <use xlink:href="#DejaVuSans-2e" x="63.623047"/>
       <use xlink:href="#DejaVuSans-33" x="95.410156"/>
      </g>
     </g>
    </g>
    <g id="ytick_4">
     <g id="line2d_8">
      <g>
       <use xlink:href="#m18195c4584" x="55.91" y="84.947438" style="stroke: #000000; stroke-width: 0.8"/>
      </g>
     </g>
     <g id="text_9">
      <!-- 0.4 -->
      <g transform="translate(29.82625 89.5065) scale(0.12 -0.12)">
       <defs>
        <path id="DejaVuSans-34" d="M 2419 4116 
L 825 1625 
L 2419 1625 
L 2419 4116 
z
M 2253 4666 
L 3047 4666 
L 3047 1625 
L 3713 1625 
L 3713 1100 
L 3047 1100 
L 3047 0 
L 2419 0 
L 2419 1100 
L 313 1100 
L 313 1709 
L 2253 4666 
z
" transform="scale(0.015625)"/>
       </defs>
       <use xlink:href="#DejaVuSans-30"/>
       <use xlink:href="#DejaVuSans-2e" x="63.623047"/>
       <use xlink:href="#DejaVuSans-34" x="95.410156"/>
      </g>
     </g>
    </g>
    <g id="ytick_5">
     <g id="line2d_9">
      <g>
       <use xlink:href="#m18195c4584" x="55.91" y="58.175207" style="stroke: #000000; stroke-width: 0.8"/>
      </g>
     </g>
     <g id="text_10">
      <!-- 0.5 -->
      <g transform="translate(29.82625 62.73427) scale(0.12 -0.12)">
       <defs>
        <path id="DejaVuSans-35" d="M 691 4666 
L 3169 4666 
L 3169 4134 
L 1269 4134 
L 1269 2991 
Q 1406 3038 1543 3061 
Q 1681 3084 1819 3084 
Q 2600 3084 3056 2656 
Q 3513 2228 3513 1497 
Q 3513 744 3044 326 
Q 2575 -91 1722 -91 
Q 1428 -91 1123 -41 
Q 819 9 494 109 
L 494 744 
Q 775 591 1075 516 
Q 1375 441 1709 441 
Q 2250 441 2565 725 
Q 2881 1009 2881 1497 
Q 2881 1984 2565 2268 
Q 2250 2553 1709 2553 
Q 1456 2553 1204 2497 
Q 953 2441 691 2322 
L 691 4666 
z
" transform="scale(0.015625)"/>
       </defs>
       <use xlink:href="#DejaVuSans-30"/>
       <use xlink:href="#DejaVuSans-2e" x="63.623047"/>
       <use xlink:href="#DejaVuSans-35" x="95.410156"/>
      </g>
     </g>
    </g>
    <g id="ytick_6">
     <g id="line2d_10">
      <g>
       <use xlink:href="#m18195c4584" x="55.91" y="31.402977" style="stroke: #000000; stroke-width: 0.8"/>
      </g>
     </g>
     <g id="text_11">
      <!-- 0.6 -->
      <g transform="translate(29.82625 35.962039) scale(0.12 -0.12)">
       <defs>
        <path id="DejaVuSans-36" d="M 2113 2584 
Q 1688 2584 1439 2293 
Q 1191 2003 1191 1497 
Q 1191 994 1439 701 
Q 1688 409 2113 409 
Q 2538 409 2786 701 
Q 3034 994 3034 1497 
Q 3034 2003 2786 2293 
Q 2538 2584 2113 2584 
z
M 3366 4563 
L 3366 3988 
Q 3128 4100 2886 4159 
Q 2644 4219 2406 4219 
Q 1781 4219 1451 3797 
Q 1122 3375 1075 2522 
Q 1259 2794 1537 2939 
Q 1816 3084 2150 3084 
Q 2853 3084 3261 2657 
Q 3669 2231 3669 1497 
Q 3669 778 3244 343 
Q 2819 -91 2113 -91 
Q 1303 -91 875 529 
Q 447 1150 447 2328 
Q 447 3434 972 4092 
Q 1497 4750 2381 4750 
Q 2619 4750 2861 4703 
Q 3103 4656 3366 4563 
z
" transform="scale(0.015625)"/>
       </defs>
       <use xlink:href="#DejaVuSans-30"/>
       <use xlink:href="#DejaVuSans-2e" x="63.623047"/>
       <use xlink:href="#DejaVuSans-36" x="95.410156"/>
      </g>
     </g>
    </g>
    <g id="text_12">
     <!-- Ase1 density (molecules/site) -->
     <g transform="translate(23.330625 178.0925) rotate(-90) scale(0.12 -0.12)">
      <defs>
       <path id="DejaVuSans-41" d="M 2188 4044 
L 1331 1722 
L 3047 1722 
L 2188 4044 
z
M 1831 4666 
L 2547 4666 
L 4325 0 
L 3669 0 
L 3244 1197 
L 1141 1197 
L 716 0 
L 50 0 
L 1831 4666 
z
" transform="scale(0.015625)"/>
       <path id="DejaVuSans-79" d="M 2059 -325 
Q 1816 -950 1584 -1140 
Q 1353 -1331 966 -1331 
L 506 -1331 
L 506 -850 
L 844 -850 
Q 1081 -850 1212 -737 
Q 1344 -625 1503 -206 
L 1606 56 
L 191 3500 
L 800 3500 
L 1894 763 
L 2988 3500 
L 3597 3500 
L 2059 -325 
z
" transform="scale(0.015625)"/>
       <path id="DejaVuSans-2f" d="M 1625 4666 
L 2156 4666 
L 531 -594 
L 0 -594 
L 1625 4666 
z
" transform="scale(0.015625)"/>
      </defs>
      <use xlink:href="#DejaVuSans-41"/>
      <use xlink:href="#DejaVuSans-73" x="68.408203"/>
      <use xlink:href="#DejaVuSans-65" x="120.507812"/>
      <use xlink:href="#DejaVuSans-31" x="182.03125"/>
      <use xlink:href="#DejaVuSans-20" x="245.654297"/>
      <use xlink:href="#DejaVuSans-64" x="277.441406"/>
      <use xlink:href="#DejaVuSans-65" x="340.917969"/>
      <use xlink:href="#DejaVuSans-6e" x="402.441406"/>
      <use xlink:href="#DejaVuSans-73" x="465.820312"/>
      <use xlink:href="#DejaVuSans-69" x="517.919922"/>
      <use xlink:href="#DejaVuSans-74" x="545.703125"/>
      <use xlink:href="#DejaVuSans-79" x="584.912109"/>
      <use xlink:href="#DejaVuSans-20" x="644.091797"/>
      <use xlink:href="#DejaVuSans-28" x="675.878906"/>
      <use xlink:href="#DejaVuSans-6d" x="714.892578"/>
      <use xlink:href="#DejaVuSans-6f" x="812.304688"/>
      <use xlink:href="#DejaVuSans-6c" x="873.486328"/>
      <use xlink:href="#DejaVuSans-65" x="901.269531"/>
      <use xlink:href="#DejaVuSans-63" x="962.792969"/>
      <use xlink:href="#DejaVuSans-75" x="1017.773438"/>
      <use xlink:href="#DejaVuSans-6c" x="1081.152344"/>
      <use xlink:href="#DejaVuSans-65" x="1108.935547"/>
      <use xlink:href="#DejaVuSans-73" x="1170.458984"/>
      <use xlink:href="#DejaVuSans-2f" x="1222.558594"/>
      <use xlink:href="#DejaVuSans-73" x="1256.25"/>
      <use xlink:href="#DejaVuSans-69" x="1308.349609"/>
      <use xlink:href="#DejaVuSans-74" x="1336.132812"/>
      <use xlink:href="#DejaVuSans-65" x="1375.341797"/>
      <use xlink:href="#DejaVuSans-29" x="1436.865234"/>
     </g>
    </g>
   </g>
   <g id="line2d_11">
    <path d="M 62.597727 159.158182 
L 196.352273 159.158182 
L 196.352273 159.158182 
" clip-path="url(#p4758e840d1)" style="fill: none; stroke: #03051a; stroke-width: 1.5; stroke-linecap: square"/>
   </g>
   <g id="line2d_12">
    <path d="M 62.597727 72.780137 
L 64.609074 84.846281 
L 66.62042 95.342959 
L 68.296542 103.027278 
L 69.972665 109.85009 
L 71.648787 115.900158 
L 73.324909 121.257986 
L 75.001031 125.996499 
L 76.677153 130.18167 
L 78.353275 133.873107 
L 80.364622 137.726451 
L 82.375968 141.028905 
L 84.387315 143.853503 
L 86.398661 146.264441 
L 88.410008 148.318034 
L 90.421355 150.06358 
L 92.432701 151.544139 
L 94.779272 152.986342 
L 97.125843 154.17003 
L 99.807638 155.261671 
L 102.824658 156.220747 
L 106.176902 157.024818 
L 109.864371 157.668428 
L 114.222289 158.193284 
L 119.585879 158.601287 
L 126.625592 158.894369 
L 137.01755 159.075281 
L 156.795791 159.150583 
L 196.352273 159.158182 
L 196.352273 159.158182 
" clip-path="url(#p4758e840d1)" style="fill: none; stroke-dasharray: 5.55,2.4; stroke-dashoffset: 0; stroke: #1a102a; stroke-width: 1.5"/>
   </g>
   <g id="line2d_13">
    <path d="M 62.597727 51.373132 
L 64.609074 63.720078 
L 66.62042 74.72671 
L 68.631767 84.530198 
L 70.643113 93.254538 
L 72.65446 101.011741 
L 74.665807 107.902911 
L 76.677153 114.019242 
L 78.6885 119.442923 
L 80.699846 124.247967 
L 82.711193 128.50097 
L 84.722539 132.261806 
L 86.733886 135.584258 
L 88.745232 138.516594 
L 90.756579 141.102098 
L 93.10315 143.731663 
L 95.449721 145.996393 
L 97.796292 147.944232 
L 100.142863 149.617194 
L 102.824658 151.239524 
L 105.506454 152.598259 
L 108.523473 153.862191 
L 111.540493 154.8929 
L 114.892738 155.814223 
L 118.580206 156.608551 
L 122.938124 157.316613 
L 127.96649 157.901263 
L 134.00053 158.370878 
L 141.710692 158.731736 
L 152.102649 158.976815 
L 168.528645 159.114892 
L 196.352273 159.158182 
L 196.352273 159.158182 
" clip-path="url(#p4758e840d1)" style="fill: none; stroke-dasharray: 9.6,2.4,1.5,2.4; stroke-dashoffset: 0; stroke: #33183c; stroke-width: 1.5"/>
   </g>
   <g id="line2d_14">
    <path d="M 62.597727 34.010458 
L 64.944298 48.001269 
L 67.290869 60.477314 
L 69.63744 71.59751 
L 71.984011 81.504588 
L 74.330582 90.326703 
L 76.677153 98.178884 
L 79.023724 105.164337 
L 81.370295 111.375631 
L 83.716866 116.895759 
L 86.063437 121.799104 
L 88.410008 126.152301 
L 90.756579 130.015023 
L 93.10315 133.440686 
L 95.449721 136.47708 
L 97.796292 139.16695 
L 100.142863 141.548505 
L 102.824658 143.93638 
L 105.506454 146.0112 
L 108.188249 147.812635 
L 111.205269 149.555651 
L 114.222289 151.039762 
L 117.574533 152.430184 
L 121.262002 153.695217 
L 125.284695 154.814444 
L 129.642612 155.778238 
L 134.335754 156.58649 
L 139.699345 157.284548 
L 146.068609 157.880712 
L 153.778771 158.364802 
L 163.500279 158.735767 
L 176.574032 158.99631 
L 196.352273 159.158182 
L 196.352273 159.158182 
" clip-path="url(#p4758e840d1)" style="fill: none; stroke-dasharray: 1.5,2.475; stroke-dashoffset: 0; stroke: #681f55; stroke-width: 1.5"/>
   </g>
   <g id="line2d_15">
    <path d="M 62.597727 23.097365 
L 64.944298 36.649094 
L 67.290869 48.868672 
L 69.63744 59.885669 
L 71.984011 69.817165 
L 74.330582 78.768949 
L 76.677153 86.836595 
L 79.023724 94.106445 
L 81.370295 100.656493 
L 83.716866 106.557185 
L 86.063437 111.872143 
L 88.410008 116.658822 
L 90.756579 120.969103 
L 93.10315 124.849826 
L 95.449721 128.34328 
L 98.131516 131.910384 
L 100.813312 135.072475 
L 103.495107 137.874975 
L 106.176902 140.358275 
L 108.858698 142.558285 
L 111.875718 144.734278 
L 114.892738 146.632149 
L 118.244982 148.45727 
L 121.597226 150.024178 
L 125.284695 151.492498 
L 129.307388 152.83589 
L 133.665305 154.03742 
L 138.358447 155.088987 
L 143.386814 155.990255 
L 149.085629 156.788617 
L 155.790117 157.49509 
L 163.500279 158.078732 
L 172.886563 158.55997 
L 184.954642 158.942532 
L 196.352273 159.158182 
L 196.352273 159.158182 
" clip-path="url(#p4758e840d1)" style="fill: none; stroke: #d62449; stroke-width: 1.5; stroke-linecap: square"/>
   </g>
   <g id="line2d_16">
    <path d="M 62.597727 19.921818 
L 64.944298 33.307279 
L 67.290869 45.414295 
L 69.63744 56.364522 
L 71.984011 66.268078 
L 74.330582 75.224632 
L 76.677153 83.324393 
L 79.023724 90.649004 
L 81.370295 97.272358 
L 83.716866 103.261328 
L 86.063437 108.676432 
L 88.410008 113.572438 
L 90.756579 117.998907 
L 93.10315 122.000684 
L 95.784945 126.105992 
L 98.466741 129.763919 
L 101.148536 133.023025 
L 103.830332 135.926622 
L 106.512127 138.513338 
L 109.193922 140.817624 
L 112.210942 143.110475 
L 115.227962 145.123411 
L 118.580206 147.072995 
L 121.93245 148.759741 
L 125.619919 150.353617 
L 129.307388 151.712592 
L 133.330081 152.967675 
L 137.687998 154.102163 
L 142.716365 155.171173 
L 148.079956 156.082197 
L 154.113995 156.883856 
L 161.153708 157.590052 
L 169.534319 158.194615 
L 179.591051 158.685389 
L 192.32958 159.072407 
L 196.352273 159.158182 
L 196.352273 159.158182 
" clip-path="url(#p4758e840d1)" style="fill: none; stroke-dasharray: 5.55,2.4; stroke-dashoffset: 0; stroke: #f69c73; stroke-width: 1.5"/>
   </g>
   <g id="patch_3">
    <path d="M 55.91 166.12 
L 55.91 12.96 
" style="fill: none; stroke: #000000; stroke-width: 0.8; stroke-linejoin: miter; stroke-linecap: square"/>
   </g>
   <g id="patch_4">
    <path d="M 203.04 166.12 
L 203.04 12.96 
" style="fill: none; stroke: #000000; stroke-width: 0.8; stroke-linejoin: miter; stroke-linecap: square"/>
   </g>
   <g id="patch_5">
    <path d="M 55.91 166.12 
L 203.04 166.12 
" style="fill: none; stroke: #000000; stroke-width: 0.8; stroke-linejoin: miter; stroke-linecap: square"/>
   </g>
   <g id="patch_6">
    <path d="M 55.91 12.96 
L 203.04 12.96 
" style="fill: none; stroke: #000000; stroke-width: 0.8; stroke-linejoin: miter; stroke-linecap: square"/>
   </g>
   <g id="legend_1">
    <g id="line2d_17">
     <path d="M 126.27125 26.058438 
L 136.27125 26.058438 
L 146.27125 26.058438 
" style="fill: none; stroke: #03051a; stroke-width: 1.5; stroke-linecap: square"/>
    </g>
    <g id="text_13">
     <!-- t = 0 s -->
     <g transform="translate(154.27125 29.558438) scale(0.1 -0.1)">
      <defs>
       <path id="DejaVuSans-3d" d="M 678 2906 
L 4684 2906 
L 4684 2381 
L 678 2381 
L 678 2906 
z
M 678 1631 
L 4684 1631 
L 4684 1100 
L 678 1100 
L 678 1631 
z
" transform="scale(0.015625)"/>
      </defs>
      <use xlink:href="#DejaVuSans-74"/>
      <use xlink:href="#DejaVuSans-20" x="39.208984"/>
      <use xlink:href="#DejaVuSans-3d" x="70.996094"/>
      <use xlink:href="#DejaVuSans-20" x="154.785156"/>
      <use xlink:href="#DejaVuSans-30" x="186.572266"/>
      <use xlink:href="#DejaVuSans-20" x="250.195312"/>
      <use xlink:href="#DejaVuSans-73" x="281.982422"/>
     </g>
    </g>
    <g id="line2d_18">
     <path d="M 126.27125 40.736563 
L 136.27125 40.736563 
L 146.27125 40.736563 
" style="fill: none; stroke-dasharray: 5.55,2.4; stroke-dashoffset: 0; stroke: #1a102a; stroke-width: 1.5"/>
    </g>
    <g id="text_14">
     <!-- t = 4 s -->
     <g transform="translate(154.27125 44.236563) scale(0.1 -0.1)">
      <use xlink:href="#DejaVuSans-74"/>
      <use xlink:href="#DejaVuSans-20" x="39.208984"/>
      <use xlink:href="#DejaVuSans-3d" x="70.996094"/>
      <use xlink:href="#DejaVuSans-20" x="154.785156"/>
      <use xlink:href="#DejaVuSans-34" x="186.572266"/>
      <use xlink:href="#DejaVuSans-20" x="250.195312"/>
      <use xlink:href="#DejaVuSans-73" x="281.982422"/>
     </g>
    </g>
    <g id="line2d_19">
     <path d="M 126.27125 55.414688 
L 136.27125 55.414688 
L 146.27125 55.414688 
" style="fill: none; stroke-dasharray: 9.6,2.4,1.5,2.4; stroke-dashoffset: 0; stroke: #33183c; stroke-width: 1.5"/>
    </g>
    <g id="text_15">
     <!-- t = 8 s -->
     <g transform="translate(154.27125 58.914688) scale(0.1 -0.1)">
      <defs>
       <path id="DejaVuSans-38" d="M 2034 2216 
Q 1584 2216 1326 1975 
Q 1069 1734 1069 1313 
Q 1069 891 1326 650 
Q 1584 409 2034 409 
Q 2484 409 2743 651 
Q 3003 894 3003 1313 
Q 3003 1734 2745 1975 
Q 2488 2216 2034 2216 
z
M 1403 2484 
Q 997 2584 770 2862 
Q 544 3141 544 3541 
Q 544 4100 942 4425 
Q 1341 4750 2034 4750 
Q 2731 4750 3128 4425 
Q 3525 4100 3525 3541 
Q 3525 3141 3298 2862 
Q 3072 2584 2669 2484 
Q 3125 2378 3379 2068 
Q 3634 1759 3634 1313 
Q 3634 634 3220 271 
Q 2806 -91 2034 -91 
Q 1263 -91 848 271 
Q 434 634 434 1313 
Q 434 1759 690 2068 
Q 947 2378 1403 2484 
z
M 1172 3481 
Q 1172 3119 1398 2916 
Q 1625 2713 2034 2713 
Q 2441 2713 2670 2916 
Q 2900 3119 2900 3481 
Q 2900 3844 2670 4047 
Q 2441 4250 2034 4250 
Q 1625 4250 1398 4047 
Q 1172 3844 1172 3481 
z
" transform="scale(0.015625)"/>
      </defs>
      <use xlink:href="#DejaVuSans-74"/>
      <use xlink:href="#DejaVuSans-20" x="39.208984"/>
      <use xlink:href="#DejaVuSans-3d" x="70.996094"/>
      <use xlink:href="#DejaVuSans-20" x="154.785156"/>
      <use xlink:href="#DejaVuSans-38" x="186.572266"/>
      <use xlink:href="#DejaVuSans-20" x="250.195312"/>
      <use xlink:href="#DejaVuSans-73" x="281.982422"/>
     </g>
    </g>
    <g id="line2d_20">
     <path d="M 126.27125 70.092813 
L 136.27125 70.092813 
L 146.27125 70.092813 
" style="fill: none; stroke-dasharray: 1.5,2.475; stroke-dashoffset: 0; stroke: #681f55; stroke-width: 1.5"/>
    </g>
    <g id="text_16">
     <!-- t = 16 s -->
     <g transform="translate(154.27125 73.592813) scale(0.1 -0.1)">
      <use xlink:href="#DejaVuSans-74"/>
      <use xlink:href="#DejaVuSans-20" x="39.208984"/>
      <use xlink:href="#DejaVuSans-3d" x="70.996094"/>
      <use xlink:href="#DejaVuSans-20" x="154.785156"/>
      <use xlink:href="#DejaVuSans-31" x="186.572266"/>
      <use xlink:href="#DejaVuSans-36" x="250.195312"/>
      <use xlink:href="#DejaVuSans-20" x="313.818359"/>
      <use xlink:href="#DejaVuSans-73" x="345.605469"/>
     </g>
    </g>
    <g id="line2d_21">
     <path d="M 126.27125 84.770938 
L 136.27125 84.770938 
L 146.27125 84.770938 
" style="fill: none; stroke: #d62449; stroke-width: 1.5; stroke-linecap: square"/>
    </g>
    <g id="text_17">
     <!-- t = 32 s -->
     <g transform="translate(154.27125 88.270938) scale(0.1 -0.1)">
      <use xlink:href="#DejaVuSans-74"/>
      <use xlink:href="#DejaVuSans-20" x="39.208984"/>
      <use xlink:href="#DejaVuSans-3d" x="70.996094"/>
      <use xlink:href="#DejaVuSans-20" x="154.785156"/>
      <use xlink:href="#DejaVuSans-33" x="186.572266"/>
      <use xlink:href="#DejaVuSans-32" x="250.195312"/>
      <use xlink:href="#DejaVuSans-20" x="313.818359"/>
      <use xlink:href="#DejaVuSans-73" x="345.605469"/>
     </g>
    </g>
    <g id="line2d_22">
     <path d="M 126.27125 99.449063 
L 136.27125 99.449063 
L 146.27125 99.449063 
" style="fill: none; stroke-dasharray: 5.55,2.4; stroke-dashoffset: 0; stroke: #f69c73; stroke-width: 1.5"/>
    </g>
    <g id="text_18">
     <!-- t = 48 s -->
     <g transform="translate(154.27125 102.949063) scale(0.1 -0.1)">
      <use xlink:href="#DejaVuSans-74"/>
      <use xlink:href="#DejaVuSans-20" x="39.208984"/>
      <use xlink:href="#DejaVuSans-3d" x="70.996094"/>
      <use xlink:href="#DejaVuSans-20" x="154.785156"/>
      <use xlink:href="#DejaVuSans-34" x="186.572266"/>
      <use xlink:href="#DejaVuSans-38" x="250.195312"/>
      <use xlink:href="#DejaVuSans-20" x="313.818359"/>
      <use xlink:href="#DejaVuSans-73" x="345.605469"/>
     </g>
    </g>
   </g>
  </g>
 </g>
 <defs>
  <clipPath id="p4758e840d1">
   <rect x="55.91" y="12.96" width="147.13" height="153.16"/>
  </clipPath>
 </defs>
</svg>
