<?xml version="1.0" encoding="utf-8" standalone="no"?>
<!DOCTYPE svg PUBLIC "-//W3C//DTD SVG 1.1//EN"
  "http://www.w3.org/Graphics/SVG/1.1/DTD/svg11.dtd">
<svg xmlns:xlink="http://www.w3.org/1999/xlink" width="216pt" height="216pt" viewBox="0 0 216 216" xmlns="http://www.w3.org/2000/svg" version="1.1">
 <metadata>
  <rdf:RDF xmlns:dc="http://purl.org/dc/elements/1.1/" xmlns:cc="http://creativecommons.org/ns#" xmlns:rdf="http://www.w3.org/1999/02/22-rdf-syntax-ns#">
   <cc:Work>
    <dc:type rdf:resource="http://purl.org/dc/dcmitype/StillImage"/>
    <dc:date>2023-02-04T20:08:24.749368</dc:date>
    <dc:format>image/svg+xml</dc:format>
    <dc:creator>
     <cc:Agent>
      <dc:title>Matplotlib v3.6.3, https://matplotlib.org/</dc:title>
     </cc:Agent>
    </dc:creator>
   </cc:Work>
  </rdf:RDF>
 </metadata>
 <defs>
  <style type="text/css">*{stroke-linejoin: round; stroke-linecap: butt}</style>
 </defs>
 <g id="figure_1">
  <g id="patch_1">
   <path d="M 0 216 
L 216 216 
L 216 0 
L 0 0 
z
" style="fill: #ffffff"/>
  </g>
  <g id="axes_1">
   <g id="patch_2">
    <path d="M 64.06175 157.85575 
L 203.04 157.85575 
L 203.04 17.28 
L 64.06175 17.28 
z
" style="fill: #ffffff"/>
   </g>
   <g id="matplotlib.axis_1">
    <g id="xtick_1">
     <g id="line2d_1">
      <defs>
       <path id="m6d2b226daf" d="M 0 0 
L 0 3.5 
" style="stroke: #262626; stroke-width: 0.8"/>
      </defs>
      <g>
       <use xlink:href="#m6d2b226daf" x="64.06175" y="157.85575" style="fill: #262626; stroke: #262626; stroke-width: 0.8"/>
      </g>
     </g>
     <g id="text_1">
      <!-- 0 -->
      <g style="fill: #262626" transform="translate(60.725188 173.445125) scale(0.12 -0.12)">
       <defs>
        <path id="ArialMT-30" d="M 266 2259 
Q 266 3072 433 3567 
Q 600 4063 929 4331 
Q 1259 4600 1759 4600 
Q 2128 4600 2406 4451 
Q 2684 4303 2865 4023 
Q 3047 3744 3150 3342 
Q 3253 2941 3253 2259 
Q 3253 1453 3087 958 
Q 2922 463 2592 192 
Q 2263 -78 1759 -78 
Q 1097 -78 719 397 
Q 266 969 266 2259 
z
M 844 2259 
Q 844 1131 1108 757 
Q 1372 384 1759 384 
Q 2147 384 2411 759 
Q 2675 1134 2675 2259 
Q 2675 3391 2411 3762 
Q 2147 4134 1753 4134 
Q 1366 4134 1134 3806 
Q 844 3388 844 2259 
z
" transform="scale(0.015625)"/>
       </defs>
       <use xlink:href="#ArialMT-30"/>
      </g>
     </g>
    </g>
    <g id="xtick_2">
     <g id="line2d_2">
      <g>
       <use xlink:href="#m6d2b226daf" x="113.648976" y="157.85575" style="fill: #262626; stroke: #262626; stroke-width: 0.8"/>
      </g>
     </g>
     <g id="text_2">
      <!-- 10 -->
      <g style="fill: #262626" transform="translate(106.975851 173.445125) scale(0.12 -0.12)">
       <defs>
        <path id="ArialMT-31" d="M 2384 0 
L 1822 0 
L 1822 3584 
Q 1619 3391 1289 3197 
Q 959 3003 697 2906 
L 697 3450 
Q 1169 3672 1522 3987 
Q 1875 4303 2022 4600 
L 2384 4600 
L 2384 0 
z
" transform="scale(0.015625)"/>
       </defs>
       <use xlink:href="#ArialMT-31"/>
       <use xlink:href="#ArialMT-30" x="55.615234"/>
      </g>
     </g>
    </g>
    <g id="xtick_3">
     <g id="line2d_3">
      <g>
       <use xlink:href="#m6d2b226daf" x="163.236201" y="157.85575" style="fill: #262626; stroke: #262626; stroke-width: 0.8"/>
      </g>
     </g>
     <g id="text_3">
      <!-- 20 -->
      <g style="fill: #262626" transform="translate(156.563076 173.445125) scale(0.12 -0.12)">
       <defs>
        <path id="ArialMT-32" d="M 3222 541 
L 3222 0 
L 194 0 
Q 188 203 259 391 
Q 375 700 629 1000 
Q 884 1300 1366 1694 
Q 2113 2306 2375 2664 
Q 2638 3022 2638 3341 
Q 2638 3675 2398 3904 
Q 2159 4134 1775 4134 
Q 1369 4134 1125 3890 
Q 881 3647 878 3216 
L 300 3275 
Q 359 3922 746 4261 
Q 1134 4600 1788 4600 
Q 2447 4600 2831 4234 
Q 3216 3869 3216 3328 
Q 3216 3053 3103 2787 
Q 2991 2522 2730 2228 
Q 2469 1934 1863 1422 
Q 1356 997 1212 845 
Q 1069 694 975 541 
L 3222 541 
z
" transform="scale(0.015625)"/>
       </defs>
       <use xlink:href="#ArialMT-32"/>
       <use xlink:href="#ArialMT-30" x="55.615234"/>
      </g>
     </g>
    </g>
    <g id="text_4">
     <!-- Accumulation timescale (s) -->
     <g style="fill: #262626" transform="translate(61.864938 188.56575) scale(0.12 -0.12)">
      <defs>
       <path id="ArialMT-41" d="M -9 0 
L 1750 4581 
L 2403 4581 
L 4278 0 
L 3588 0 
L 3053 1388 
L 1138 1388 
L 634 0 
L -9 0 
z
M 1313 1881 
L 2866 1881 
L 2388 3150 
Q 2169 3728 2063 4100 
Q 1975 3659 1816 3225 
L 1313 1881 
z
" transform="scale(0.015625)"/>
       <path id="ArialMT-63" d="M 2588 1216 
L 3141 1144 
Q 3050 572 2676 248 
Q 2303 -75 1759 -75 
Q 1078 -75 664 370 
Q 250 816 250 1647 
Q 250 2184 428 2587 
Q 606 2991 970 3192 
Q 1334 3394 1763 3394 
Q 2303 3394 2647 3120 
Q 2991 2847 3088 2344 
L 2541 2259 
Q 2463 2594 2264 2762 
Q 2066 2931 1784 2931 
Q 1359 2931 1093 2626 
Q 828 2322 828 1663 
Q 828 994 1084 691 
Q 1341 388 1753 388 
Q 2084 388 2306 591 
Q 2528 794 2588 1216 
z
" transform="scale(0.015625)"/>
       <path id="ArialMT-75" d="M 2597 0 
L 2597 488 
Q 2209 -75 1544 -75 
Q 1250 -75 995 37 
Q 741 150 617 320 
Q 494 491 444 738 
Q 409 903 409 1263 
L 409 3319 
L 972 3319 
L 972 1478 
Q 972 1038 1006 884 
Q 1059 663 1231 536 
Q 1403 409 1656 409 
Q 1909 409 2131 539 
Q 2353 669 2445 892 
Q 2538 1116 2538 1541 
L 2538 3319 
L 3100 3319 
L 3100 0 
L 2597 0 
z
" transform="scale(0.015625)"/>
       <path id="ArialMT-6d" d="M 422 0 
L 422 3319 
L 925 3319 
L 925 2853 
Q 1081 3097 1340 3245 
Q 1600 3394 1931 3394 
Q 2300 3394 2536 3241 
Q 2772 3088 2869 2813 
Q 3263 3394 3894 3394 
Q 4388 3394 4653 3120 
Q 4919 2847 4919 2278 
L 4919 0 
L 4359 0 
L 4359 2091 
Q 4359 2428 4304 2576 
Q 4250 2725 4106 2815 
Q 3963 2906 3769 2906 
Q 3419 2906 3187 2673 
Q 2956 2441 2956 1928 
L 2956 0 
L 2394 0 
L 2394 2156 
Q 2394 2531 2256 2718 
Q 2119 2906 1806 2906 
Q 1569 2906 1367 2781 
Q 1166 2656 1075 2415 
Q 984 2175 984 1722 
L 984 0 
L 422 0 
z
" transform="scale(0.015625)"/>
       <path id="ArialMT-6c" d="M 409 0 
L 409 4581 
L 972 4581 
L 972 0 
L 409 0 
z
" transform="scale(0.015625)"/>
       <path id="ArialMT-61" d="M 2588 409 
Q 2275 144 1986 34 
Q 1697 -75 1366 -75 
Q 819 -75 525 192 
Q 231 459 231 875 
Q 231 1119 342 1320 
Q 453 1522 633 1644 
Q 813 1766 1038 1828 
Q 1203 1872 1538 1913 
Q 2219 1994 2541 2106 
Q 2544 2222 2544 2253 
Q 2544 2597 2384 2738 
Q 2169 2928 1744 2928 
Q 1347 2928 1158 2789 
Q 969 2650 878 2297 
L 328 2372 
Q 403 2725 575 2942 
Q 747 3159 1072 3276 
Q 1397 3394 1825 3394 
Q 2250 3394 2515 3294 
Q 2781 3194 2906 3042 
Q 3031 2891 3081 2659 
Q 3109 2516 3109 2141 
L 3109 1391 
Q 3109 606 3145 398 
Q 3181 191 3288 0 
L 2700 0 
Q 2613 175 2588 409 
z
M 2541 1666 
Q 2234 1541 1622 1453 
Q 1275 1403 1131 1340 
Q 988 1278 909 1158 
Q 831 1038 831 891 
Q 831 666 1001 516 
Q 1172 366 1500 366 
Q 1825 366 2078 508 
Q 2331 650 2450 897 
Q 2541 1088 2541 1459 
L 2541 1666 
z
" transform="scale(0.015625)"/>
       <path id="ArialMT-74" d="M 1650 503 
L 1731 6 
Q 1494 -44 1306 -44 
Q 1000 -44 831 53 
Q 663 150 594 308 
Q 525 466 525 972 
L 525 2881 
L 113 2881 
L 113 3319 
L 525 3319 
L 525 4141 
L 1084 4478 
L 1084 3319 
L 1650 3319 
L 1650 2881 
L 1084 2881 
L 1084 941 
Q 1084 700 1114 631 
Q 1144 563 1211 522 
Q 1278 481 1403 481 
Q 1497 481 1650 503 
z
" transform="scale(0.015625)"/>
       <path id="ArialMT-69" d="M 425 3934 
L 425 4581 
L 988 4581 
L 988 3934 
L 425 3934 
z
M 425 0 
L 425 3319 
L 988 3319 
L 988 0 
L 425 0 
z
" transform="scale(0.015625)"/>
       <path id="ArialMT-6f" d="M 213 1659 
Q 213 2581 725 3025 
Q 1153 3394 1769 3394 
Q 2453 3394 2887 2945 
Q 3322 2497 3322 1706 
Q 3322 1066 3130 698 
Q 2938 331 2570 128 
Q 2203 -75 1769 -75 
Q 1072 -75 642 372 
Q 213 819 213 1659 
z
M 791 1659 
Q 791 1022 1069 705 
Q 1347 388 1769 388 
Q 2188 388 2466 706 
Q 2744 1025 2744 1678 
Q 2744 2294 2464 2611 
Q 2184 2928 1769 2928 
Q 1347 2928 1069 2612 
Q 791 2297 791 1659 
z
" transform="scale(0.015625)"/>
       <path id="ArialMT-6e" d="M 422 0 
L 422 3319 
L 928 3319 
L 928 2847 
Q 1294 3394 1984 3394 
Q 2284 3394 2536 3286 
Q 2788 3178 2913 3003 
Q 3038 2828 3088 2588 
Q 3119 2431 3119 2041 
L 3119 0 
L 2556 0 
L 2556 2019 
Q 2556 2363 2490 2533 
Q 2425 2703 2258 2804 
Q 2091 2906 1866 2906 
Q 1506 2906 1245 2678 
Q 984 2450 984 1813 
L 984 0 
L 422 0 
z
" transform="scale(0.015625)"/>
       <path id="ArialMT-20" transform="scale(0.015625)"/>
       <path id="ArialMT-65" d="M 2694 1069 
L 3275 997 
Q 3138 488 2766 206 
Q 2394 -75 1816 -75 
Q 1088 -75 661 373 
Q 234 822 234 1631 
Q 234 2469 665 2931 
Q 1097 3394 1784 3394 
Q 2450 3394 2872 2941 
Q 3294 2488 3294 1666 
Q 3294 1616 3291 1516 
L 816 1516 
Q 847 969 1125 678 
Q 1403 388 1819 388 
Q 2128 388 2347 550 
Q 2566 713 2694 1069 
z
M 847 1978 
L 2700 1978 
Q 2663 2397 2488 2606 
Q 2219 2931 1791 2931 
Q 1403 2931 1139 2672 
Q 875 2413 847 1978 
z
" transform="scale(0.015625)"/>
       <path id="ArialMT-73" d="M 197 991 
L 753 1078 
Q 800 744 1014 566 
Q 1228 388 1613 388 
Q 2000 388 2187 545 
Q 2375 703 2375 916 
Q 2375 1106 2209 1216 
Q 2094 1291 1634 1406 
Q 1016 1563 777 1677 
Q 538 1791 414 1992 
Q 291 2194 291 2438 
Q 291 2659 392 2848 
Q 494 3038 669 3163 
Q 800 3259 1026 3326 
Q 1253 3394 1513 3394 
Q 1903 3394 2198 3281 
Q 2494 3169 2634 2976 
Q 2775 2784 2828 2463 
L 2278 2388 
Q 2241 2644 2061 2787 
Q 1881 2931 1553 2931 
Q 1166 2931 1000 2803 
Q 834 2675 834 2503 
Q 834 2394 903 2306 
Q 972 2216 1119 2156 
Q 1203 2125 1616 2013 
Q 2213 1853 2448 1751 
Q 2684 1650 2818 1456 
Q 2953 1263 2953 975 
Q 2953 694 2789 445 
Q 2625 197 2315 61 
Q 2006 -75 1616 -75 
Q 969 -75 630 194 
Q 291 463 197 991 
z
" transform="scale(0.015625)"/>
       <path id="ArialMT-28" d="M 1497 -1347 
Q 1031 -759 709 28 
Q 388 816 388 1659 
Q 388 2403 628 3084 
Q 909 3875 1497 4659 
L 1900 4659 
Q 1522 4009 1400 3731 
Q 1209 3300 1100 2831 
Q 966 2247 966 1656 
Q 966 153 1900 -1347 
L 1497 -1347 
z
" transform="scale(0.015625)"/>
       <path id="ArialMT-29" d="M 791 -1347 
L 388 -1347 
Q 1322 153 1322 1656 
Q 1322 2244 1188 2822 
Q 1081 3291 891 3722 
Q 769 4003 388 4659 
L 791 4659 
Q 1378 3875 1659 3084 
Q 1900 2403 1900 1659 
Q 1900 816 1576 28 
Q 1253 -759 791 -1347 
z
" transform="scale(0.015625)"/>
      </defs>
      <use xlink:href="#ArialMT-41"/>
      <use xlink:href="#ArialMT-63" x="66.699219"/>
      <use xlink:href="#ArialMT-63" x="116.699219"/>
      <use xlink:href="#ArialMT-75" x="166.699219"/>
      <use xlink:href="#ArialMT-6d" x="222.314453"/>
      <use xlink:href="#ArialMT-75" x="305.615234"/>
      <use xlink:href="#ArialMT-6c" x="361.230469"/>
      <use xlink:href="#ArialMT-61" x="383.447266"/>
      <use xlink:href="#ArialMT-74" x="439.0625"/>
      <use xlink:href="#ArialMT-69" x="466.845703"/>
      <use xlink:href="#ArialMT-6f" x="489.0625"/>
      <use xlink:href="#ArialMT-6e" x="544.677734"/>
      <use xlink:href="#ArialMT-20" x="600.292969"/>
      <use xlink:href="#ArialMT-74" x="628.076172"/>
      <use xlink:href="#ArialMT-69" x="655.859375"/>
      <use xlink:href="#ArialMT-6d" x="678.076172"/>
      <use xlink:href="#ArialMT-65" x="761.376953"/>
      <use xlink:href="#ArialMT-73" x="816.992188"/>
      <use xlink:href="#ArialMT-63" x="866.992188"/>
      <use xlink:href="#ArialMT-61" x="916.992188"/>
      <use xlink:href="#ArialMT-6c" x="972.607422"/>
      <use xlink:href="#ArialMT-65" x="994.824219"/>
      <use xlink:href="#ArialMT-20" x="1050.439453"/>
      <use xlink:href="#ArialMT-28" x="1078.222656"/>
      <use xlink:href="#ArialMT-73" x="1111.523438"/>
      <use xlink:href="#ArialMT-29" x="1161.523438"/>
     </g>
     <!--   -->
     <g style="fill: #262626" transform="translate(131.884 201.398625) scale(0.12 -0.12)">
      <use xlink:href="#ArialMT-20"/>
     </g>
    </g>
   </g>
   <g id="matplotlib.axis_2">
    <g id="ytick_1">
     <g id="line2d_4">
      <defs>
       <path id="m83b7c1784c" d="M 0 0 
L -3.5 0 
" style="stroke: #262626; stroke-width: 0.8"/>
      </defs>
      <g>
       <use xlink:href="#m83b7c1784c" x="64.06175" y="157.85575" style="fill: #262626; stroke: #262626; stroke-width: 0.8"/>
      </g>
     </g>
     <g id="text_5">
      <!-- 0.0 -->
      <g style="fill: #262626" transform="translate(40.38175 162.150437) scale(0.12 -0.12)">
       <defs>
        <path id="ArialMT-2e" d="M 581 0 
L 581 641 
L 1222 641 
L 1222 0 
L 581 0 
z
" transform="scale(0.015625)"/>
       </defs>
       <use xlink:href="#ArialMT-30"/>
       <use xlink:href="#ArialMT-2e" x="55.615234"/>
       <use xlink:href="#ArialMT-30" x="83.398438"/>
      </g>
     </g>
    </g>
    <g id="ytick_2">
     <g id="line2d_5">
      <g>
       <use xlink:href="#m83b7c1784c" x="64.06175" y="122.711813" style="fill: #262626; stroke: #262626; stroke-width: 0.8"/>
      </g>
     </g>
     <g id="text_6">
      <!-- 0.1 -->
      <g style="fill: #262626" transform="translate(40.38175 127.0065) scale(0.12 -0.12)">
       <use xlink:href="#ArialMT-30"/>
       <use xlink:href="#ArialMT-2e" x="55.615234"/>
       <use xlink:href="#ArialMT-31" x="83.398438"/>
      </g>
     </g>
    </g>
    <g id="ytick_3">
     <g id="line2d_6">
      <g>
       <use xlink:href="#m83b7c1784c" x="64.06175" y="87.567875" style="fill: #262626; stroke: #262626; stroke-width: 0.8"/>
      </g>
     </g>
     <g id="text_7">
      <!-- 0.2 -->
      <g style="fill: #262626" transform="translate(40.38175 91.862563) scale(0.12 -0.12)">
       <use xlink:href="#ArialMT-30"/>
       <use xlink:href="#ArialMT-2e" x="55.615234"/>
       <use xlink:href="#ArialMT-32" x="83.398438"/>
      </g>
     </g>
    </g>
    <g id="ytick_4">
     <g id="line2d_7">
      <g>
       <use xlink:href="#m83b7c1784c" x="64.06175" y="52.423938" style="fill: #262626; stroke: #262626; stroke-width: 0.8"/>
      </g>
     </g>
     <g id="text_8">
      <!-- 0.3 -->
      <g style="fill: #262626" transform="translate(40.38175 56.718625) scale(0.12 -0.12)">
       <defs>
        <path id="ArialMT-33" d="M 269 1209 
L 831 1284 
Q 928 806 1161 595 
Q 1394 384 1728 384 
Q 2125 384 2398 659 
Q 2672 934 2672 1341 
Q 2672 1728 2419 1979 
Q 2166 2231 1775 2231 
Q 1616 2231 1378 2169 
L 1441 2663 
Q 1497 2656 1531 2656 
Q 1891 2656 2178 2843 
Q 2466 3031 2466 3422 
Q 2466 3731 2256 3934 
Q 2047 4138 1716 4138 
Q 1388 4138 1169 3931 
Q 950 3725 888 3313 
L 325 3413 
Q 428 3978 793 4289 
Q 1159 4600 1703 4600 
Q 2078 4600 2393 4439 
Q 2709 4278 2876 4000 
Q 3044 3722 3044 3409 
Q 3044 3113 2884 2869 
Q 2725 2625 2413 2481 
Q 2819 2388 3044 2092 
Q 3269 1797 3269 1353 
Q 3269 753 2831 336 
Q 2394 -81 1725 -81 
Q 1122 -81 723 278 
Q 325 638 269 1209 
z
" transform="scale(0.015625)"/>
       </defs>
       <use xlink:href="#ArialMT-30"/>
       <use xlink:href="#ArialMT-2e" x="55.615234"/>
       <use xlink:href="#ArialMT-33" x="83.398438"/>
      </g>
     </g>
    </g>
    <g id="ytick_5">
     <g id="line2d_8">
      <g>
       <use xlink:href="#m83b7c1784c" x="64.06175" y="17.28" style="fill: #262626; stroke: #262626; stroke-width: 0.8"/>
      </g>
     </g>
     <g id="text_9">
      <!-- 0.4 -->
      <g style="fill: #262626" transform="translate(40.38175 21.574688) scale(0.12 -0.12)">
       <defs>
        <path id="ArialMT-34" d="M 2069 0 
L 2069 1097 
L 81 1097 
L 81 1613 
L 2172 4581 
L 2631 4581 
L 2631 1613 
L 3250 1613 
L 3250 1097 
L 2631 1097 
L 2631 0 
L 2069 0 
z
M 2069 1613 
L 2069 3678 
L 634 1613 
L 2069 1613 
z
" transform="scale(0.015625)"/>
       </defs>
       <use xlink:href="#ArialMT-30"/>
       <use xlink:href="#ArialMT-2e" x="55.615234"/>
       <use xlink:href="#ArialMT-34" x="83.398438"/>
      </g>
     </g>
    </g>
    <g id="text_10">
     <!-- depol. speed at -->
     <g style="fill: #262626" transform="translate(20.988375 128.597563) rotate(-90) scale(0.12 -0.12)">
      <defs>
       <path id="ArialMT-64" d="M 2575 0 
L 2575 419 
Q 2259 -75 1647 -75 
Q 1250 -75 917 144 
Q 584 363 401 755 
Q 219 1147 219 1656 
Q 219 2153 384 2558 
Q 550 2963 881 3178 
Q 1213 3394 1622 3394 
Q 1922 3394 2156 3267 
Q 2391 3141 2538 2938 
L 2538 4581 
L 3097 4581 
L 3097 0 
L 2575 0 
z
M 797 1656 
Q 797 1019 1065 703 
Q 1334 388 1700 388 
Q 2069 388 2326 689 
Q 2584 991 2584 1609 
Q 2584 2291 2321 2609 
Q 2059 2928 1675 2928 
Q 1300 2928 1048 2622 
Q 797 2316 797 1656 
z
" transform="scale(0.015625)"/>
       <path id="ArialMT-70" d="M 422 -1272 
L 422 3319 
L 934 3319 
L 934 2888 
Q 1116 3141 1344 3267 
Q 1572 3394 1897 3394 
Q 2322 3394 2647 3175 
Q 2972 2956 3137 2557 
Q 3303 2159 3303 1684 
Q 3303 1175 3120 767 
Q 2938 359 2589 142 
Q 2241 -75 1856 -75 
Q 1575 -75 1351 44 
Q 1128 163 984 344 
L 984 -1272 
L 422 -1272 
z
M 931 1641 
Q 931 1000 1190 694 
Q 1450 388 1819 388 
Q 2194 388 2461 705 
Q 2728 1022 2728 1688 
Q 2728 2322 2467 2637 
Q 2206 2953 1844 2953 
Q 1484 2953 1207 2617 
Q 931 2281 931 1641 
z
" transform="scale(0.015625)"/>
      </defs>
      <use xlink:href="#ArialMT-64"/>
      <use xlink:href="#ArialMT-65" x="55.615234"/>
      <use xlink:href="#ArialMT-70" x="111.230469"/>
      <use xlink:href="#ArialMT-6f" x="166.845703"/>
      <use xlink:href="#ArialMT-6c" x="222.460938"/>
      <use xlink:href="#ArialMT-2e" x="244.677734"/>
      <use xlink:href="#ArialMT-20" x="272.460938"/>
      <use xlink:href="#ArialMT-73" x="300.244141"/>
      <use xlink:href="#ArialMT-70" x="350.244141"/>
      <use xlink:href="#ArialMT-65" x="405.859375"/>
      <use xlink:href="#ArialMT-65" x="461.474609"/>
      <use xlink:href="#ArialMT-64" x="517.089844"/>
      <use xlink:href="#ArialMT-20" x="572.705078"/>
      <use xlink:href="#ArialMT-61" x="600.488281"/>
      <use xlink:href="#ArialMT-74" x="656.103516"/>
     </g>
     <!-- steady state (μm/s) -->
     <g style="fill: #262626" transform="translate(33.856125 138.702875) rotate(-90) scale(0.12 -0.12)">
      <defs>
       <path id="ArialMT-79" d="M 397 -1278 
L 334 -750 
Q 519 -800 656 -800 
Q 844 -800 956 -737 
Q 1069 -675 1141 -563 
Q 1194 -478 1313 -144 
Q 1328 -97 1363 -6 
L 103 3319 
L 709 3319 
L 1400 1397 
Q 1534 1031 1641 628 
Q 1738 1016 1872 1384 
L 2581 3319 
L 3144 3319 
L 1881 -56 
Q 1678 -603 1566 -809 
Q 1416 -1088 1222 -1217 
Q 1028 -1347 759 -1347 
Q 597 -1347 397 -1278 
z
" transform="scale(0.015625)"/>
       <path id="ArialMT-3bc" d="M 3181 3319 
L 3181 0 
L 2678 0 
L 2678 394 
Q 2516 144 2356 50 
Q 2138 -78 1847 -78 
Q 1588 -78 1388 25 
Q 1238 103 1056 334 
L 1056 -1272 
L 500 -1272 
L 500 3319 
L 1056 3319 
L 1056 1913 
Q 1056 1147 1137 920 
Q 1219 694 1401 562 
Q 1584 431 1822 431 
Q 2072 431 2269 568 
Q 2466 706 2547 923 
Q 2628 1141 2628 1903 
L 2628 3319 
L 3181 3319 
z
" transform="scale(0.015625)"/>
       <path id="ArialMT-2f" d="M 0 -78 
L 1328 4659 
L 1778 4659 
L 453 -78 
L 0 -78 
z
" transform="scale(0.015625)"/>
      </defs>
      <use xlink:href="#ArialMT-73"/>
      <use xlink:href="#ArialMT-74" x="50"/>
      <use xlink:href="#ArialMT-65" x="77.783203"/>
      <use xlink:href="#ArialMT-61" x="133.398438"/>
      <use xlink:href="#ArialMT-64" x="189.013672"/>
      <use xlink:href="#ArialMT-79" x="244.628906"/>
      <use xlink:href="#ArialMT-20" x="294.628906"/>
      <use xlink:href="#ArialMT-73" x="322.412109"/>
      <use xlink:href="#ArialMT-74" x="372.412109"/>
      <use xlink:href="#ArialMT-61" x="400.195312"/>
      <use xlink:href="#ArialMT-74" x="455.810547"/>
      <use xlink:href="#ArialMT-65" x="483.59375"/>
      <use xlink:href="#ArialMT-20" x="539.208984"/>
      <use xlink:href="#ArialMT-28" x="566.992188"/>
      <use xlink:href="#ArialMT-3bc" x="600.292969"/>
      <use xlink:href="#ArialMT-6d" x="657.910156"/>
      <use xlink:href="#ArialMT-2f" x="741.210938"/>
      <use xlink:href="#ArialMT-73" x="768.994141"/>
      <use xlink:href="#ArialMT-29" x="818.994141"/>
     </g>
    </g>
   </g>
   <g id="PathCollection_1">
    <defs>
     <path id="C0_0_0d18fa54fc" d="M 0 3 
C 0.795609 3 1.55874 2.683901 2.12132 2.12132 
C 2.683901 1.55874 3 0.795609 3 -0 
C 3 -0.795609 2.683901 -1.55874 2.12132 -2.12132 
C 1.55874 -2.683901 0.795609 -3 0 -3 
C -0.795609 -3 -1.55874 -2.683901 -2.12132 -2.12132 
C -2.683901 -1.55874 -3 -0.795609 -3 0 
C -3 0.795609 -2.683901 1.55874 -2.12132 2.12132 
C -1.55874 2.683901 -0.795609 3 0 3 
z
"/>
    </defs>
    <use xlink:href="#C0_0_0d18fa54fc" x="64.06175" y="50.420733" style="fill: #1f77b4; stroke: #ffffff; stroke-width: 0.48"/>
    <use xlink:href="#C0_0_0d18fa54fc" x="99.96786" y="117.791661" style="fill: #ff7f0e; stroke: #ffffff; stroke-width: 0.48"/>
   </g>
   <g id="PathCollection_2"/>
   <g id="PathCollection_3"/>
   <g id="PolyCollection_1"/>
   <g id="PathCollection_4">
    <defs>
     <path id="mcb5da13c82" d="M -2.236068 2.236068 
L 2.236068 2.236068 
L 2.236068 -2.236068 
L -2.236068 -2.236068 
z
" style="stroke: #000000"/>
    </defs>
    <g clip-path="url(#pb6534b7500)">
     <use xlink:href="#mcb5da13c82" x="196.421988" y="116.115693" style="stroke: #000000"/>
    </g>
   </g>
   <g id="PolyCollection_2"/>
   <g id="PathCollection_5">
    <g clip-path="url(#pb6534b7500)">
     <use xlink:href="#mcb5da13c82" x="122.007696" y="109.944746" style="stroke: #000000"/>
    </g>
   </g>
   <g id="PolyCollection_3"/>
   <g id="PathCollection_6">
    <g clip-path="url(#pb6534b7500)">
     <use xlink:href="#mcb5da13c82" x="111.92157" y="115.373843" style="stroke: #000000"/>
    </g>
   </g>
   <g id="line2d_9">
    <path d="M 64.06175 52.423938 
L 73.403709 52.749072 
L 73.716223 53.107353 
L 74.065367 53.504112 
L 74.457914 53.94589 
L 74.902443 54.440796 
L 75.409784 54.999005 
L 75.994334 55.633459 
L 76.674905 56.360879 
L 77.477171 57.203236 
L 78.436832 58.189984 
L 79.604957 59.361517 
L 81.057328 60.774726 
L 82.911169 62.512266 
L 85.35736 64.698762 
L 85.943143 65.205444 
L 86.568655 65.739586 
L 87.237991 66.303444 
L 87.955853 66.899524 
L 88.727587 67.530613 
L 89.559364 68.199821 
L 90.458274 68.910626 
L 91.432565 69.66693 
L 92.491809 70.473115 
L 93.647244 71.334126 
L 94.912062 72.255546 
L 96.301888 73.243703 
L 97.835258 74.305782 
L 99.534368 75.449961 
L 101.42588 76.68556 
L 103.542038 78.023214 
L 105.921914 79.475065 
L 108.613254 81.054945 
L 111.674293 82.778573 
L 115.176284 84.663682 
L 119.205943 86.730044 
L 123.867896 88.999261 
L 129.285524 91.494111 
L 135.598793 94.237161 
L 142.954573 97.248117 
L 151.483785 100.539397 
L 161.257707 104.109548 
L 172.221225 107.935209 
L 184.114363 111.96433 
L 196.421988 116.115693 
" clip-path="url(#pb6534b7500)" style="fill: none; stroke: #000000; stroke-width: 1.5; stroke-linecap: round"/>
   </g>
   <g id="line2d_10">
    <path d="M 64.06175 52.423938 
L 73.466475 53.598888 
L 73.850098 54.859724 
L 74.28031 56.217077 
L 74.765986 57.683432 
L 75.318353 59.273552 
L 75.951835 61.005031 
L 76.685256 62.899013 
L 77.543593 64.981148 
L 78.560831 67.282872 
L 79.783913 69.843155 
L 81.279852 72.710912 
L 83.146698 75.948389 
L 85.533252 79.635971 
L 88.673837 83.879015 
L 89.42253 84.805854 
L 90.220004 85.761676 
L 91.070788 86.74788 
L 91.979928 87.765948 
L 92.953069 88.817449 
L 93.996587 89.904047 
L 95.117448 91.027498 
L 96.323699 92.18966 
L 97.624198 93.392492 
L 99.028917 94.638049 
L 100.54907 95.928487 
L 102.197232 97.266053 
L 103.987362 98.65307 
L 105.935058 100.09192 
L 108.057584 101.585027 
L 110.373873 103.134798 
L 112.904546 104.743578 
L 115.671631 106.413578 
L 118.69822 108.146767 
L 122.007696 109.944746 
L 125.622692 111.808579 
L 129.563434 113.738589 
L 133.845418 115.734135 
L 138.476672 117.793337 
L 143.454167 119.912806 
L 148.760113 122.087438 
L 154.358394 124.310234 
L 160.191951 126.5723 
L 166.182239 128.863029 
L 172.230919 131.170476 
" clip-path="url(#pb6534b7500)" style="fill: none; stroke-dasharray: 5.55,2.4; stroke-dashoffset: 0; stroke: #000000; stroke-width: 1.5"/>
   </g>
   <g id="line2d_11">
    <path d="M 64.06175 52.423938 
L 73.561914 54.689719 
L 74.053679 57.059052 
L 74.607192 59.541132 
L 75.234245 62.146391 
L 75.949746 64.886725 
L 76.772776 67.775787 
L 77.727903 70.829341 
L 78.847583 74.06572 
L 80.175015 77.506398 
L 81.768641 81.176726 
L 83.709245 85.106851 
L 86.110362 89.332885 
L 89.133893 93.898265 
L 93.014274 98.855212 
L 93.92087 99.898871 
L 94.878255 100.961186 
L 95.89009 102.042717 
L 96.960142 103.144024 
L 98.092673 104.265698 
L 99.292162 105.408328 
L 100.563198 106.572508 
L 101.910927 107.758835 
L 103.340595 108.9679 
L 104.857845 110.200289 
L 106.468513 111.456563 
L 108.178529 112.737258 
L 109.994215 114.042871 
L 111.92157 115.373843 
L 113.966745 116.730545 
L 116.135596 118.113267 
L 118.433517 119.522172 
L 120.86507 120.957296 
L 123.433963 122.418514 
L 126.142424 123.905506 
L 128.990933 125.417725 
L 131.977717 126.954381 
L 135.0983 128.514396 
L 138.345045 130.096397 
L 141.706874 131.698683 
L 145.168737 133.319237 
L 148.711695 134.955717 
L 152.312863 136.605495 
L 155.94564 138.265684 
L 159.580406 139.933201 
" clip-path="url(#pb6534b7500)" style="fill: none; stroke-dasharray: 1.5,2.475; stroke-dashoffset: 0; stroke: #000000; stroke-width: 1.5"/>
   </g>
   <g id="patch_3">
    <path d="M 64.06175 157.85575 
L 64.06175 17.28 
" style="fill: none; stroke: #262626; stroke-width: 0.8; stroke-linejoin: miter; stroke-linecap: square"/>
   </g>
   <g id="patch_4">
    <path d="M 203.04 157.85575 
L 203.04 17.28 
" style="fill: none; stroke: #262626; stroke-width: 0.8; stroke-linejoin: miter; stroke-linecap: square"/>
   </g>
   <g id="patch_5">
    <path d="M 64.06175 157.85575 
L 203.04 157.85575 
" style="fill: none; stroke: #262626; stroke-width: 0.8; stroke-linejoin: miter; stroke-linecap: square"/>
   </g>
   <g id="patch_6">
    <path d="M 64.06175 17.28 
L 203.04 17.28 
" style="fill: none; stroke: #262626; stroke-width: 0.8; stroke-linejoin: miter; stroke-linecap: square"/>
   </g>
   <g id="legend_1">
    <g id="PathCollection_7">
     <defs>
      <path id="m6d70a9fb59" d="M 0 3 
C 0.795609 3 1.55874 2.683901 2.12132 2.12132 
C 2.683901 1.55874 3 0.795609 3 0 
C 3 -0.795609 2.683901 -1.55874 2.12132 -2.12132 
C 1.55874 -2.683901 0.795609 -3 0 -3 
C -0.795609 -3 -1.55874 -2.683901 -2.12132 -2.12132 
C -2.683901 -1.55874 -3 -0.795609 -3 0 
C -3 0.795609 -2.683901 1.55874 -2.12132 2.12132 
C -1.55874 2.683901 -0.795609 3 0 3 
z
" style="stroke: #1f77b4"/>
     </defs>
     <g>
      <use xlink:href="#m6d70a9fb59" x="131.018125" y="30.812813" style="fill: #1f77b4; stroke: #1f77b4"/>
     </g>
    </g>
    <g id="text_11">
     <!-- Ase1 1nM -->
     <g style="fill: #262626" transform="translate(149.018125 33.437813) scale(0.1 -0.1)">
      <defs>
       <path id="ArialMT-4d" d="M 475 0 
L 475 4581 
L 1388 4581 
L 2472 1338 
Q 2622 884 2691 659 
Q 2769 909 2934 1394 
L 4031 4581 
L 4847 4581 
L 4847 0 
L 4263 0 
L 4263 3834 
L 2931 0 
L 2384 0 
L 1059 3900 
L 1059 0 
L 475 0 
z
" transform="scale(0.015625)"/>
      </defs>
      <use xlink:href="#ArialMT-41"/>
      <use xlink:href="#ArialMT-73" x="66.699219"/>
      <use xlink:href="#ArialMT-65" x="116.699219"/>
      <use xlink:href="#ArialMT-31" x="172.314453"/>
      <use xlink:href="#ArialMT-20" x="227.929688"/>
      <use xlink:href="#ArialMT-31" x="255.712891"/>
      <use xlink:href="#ArialMT-6e" x="311.328125"/>
      <use xlink:href="#ArialMT-4d" x="366.943359"/>
     </g>
    </g>
    <g id="PathCollection_8">
     <defs>
      <path id="madbfb888a4" d="M 0 3 
C 0.795609 3 1.55874 2.683901 2.12132 2.12132 
C 2.683901 1.55874 3 0.795609 3 0 
C 3 -0.795609 2.683901 -1.55874 2.12132 -2.12132 
C 1.55874 -2.683901 0.795609 -3 0 -3 
C -0.795609 -3 -1.55874 -2.683901 -2.12132 -2.12132 
C -2.683901 -1.55874 -3 -0.795609 -3 0 
C -3 0.795609 -2.683901 1.55874 -2.12132 2.12132 
C -1.55874 2.683901 -0.795609 3 0 3 
z
" style="stroke: #ff7f0e"/>
     </defs>
     <g>
      <use xlink:href="#madbfb888a4" x="131.018125" y="44.958125" style="fill: #ff7f0e; stroke: #ff7f0e"/>
     </g>
    </g>
    <g id="text_12">
     <!-- Ase1 6nM -->
     <g style="fill: #262626" transform="translate(149.018125 47.583125) scale(0.1 -0.1)">
      <defs>
       <path id="ArialMT-36" d="M 3184 3459 
L 2625 3416 
Q 2550 3747 2413 3897 
Q 2184 4138 1850 4138 
Q 1581 4138 1378 3988 
Q 1113 3794 959 3422 
Q 806 3050 800 2363 
Q 1003 2672 1297 2822 
Q 1591 2972 1913 2972 
Q 2475 2972 2870 2558 
Q 3266 2144 3266 1488 
Q 3266 1056 3080 686 
Q 2894 316 2569 119 
Q 2244 -78 1831 -78 
Q 1128 -78 684 439 
Q 241 956 241 2144 
Q 241 3472 731 4075 
Q 1159 4600 1884 4600 
Q 2425 4600 2770 4297 
Q 3116 3994 3184 3459 
z
M 888 1484 
Q 888 1194 1011 928 
Q 1134 663 1356 523 
Q 1578 384 1822 384 
Q 2178 384 2434 671 
Q 2691 959 2691 1453 
Q 2691 1928 2437 2201 
Q 2184 2475 1800 2475 
Q 1419 2475 1153 2201 
Q 888 1928 888 1484 
z
" transform="scale(0.015625)"/>
      </defs>
      <use xlink:href="#ArialMT-41"/>
      <use xlink:href="#ArialMT-73" x="66.699219"/>
      <use xlink:href="#ArialMT-65" x="116.699219"/>
      <use xlink:href="#ArialMT-31" x="172.314453"/>
      <use xlink:href="#ArialMT-20" x="227.929688"/>
      <use xlink:href="#ArialMT-36" x="255.712891"/>
      <use xlink:href="#ArialMT-6e" x="311.328125"/>
      <use xlink:href="#ArialMT-4d" x="366.943359"/>
     </g>
    </g>
    <g id="line2d_12">
     <path d="M 121.018125 58.228438 
L 131.018125 58.228438 
L 141.018125 58.228438 
" style="fill: none; stroke: #000000; stroke-width: 1.5; stroke-linecap: round"/>
    </g>
    <g id="text_13">
     <!-- Model 1 -->
     <g style="fill: #262626" transform="translate(149.018125 61.728438) scale(0.1 -0.1)">
      <use xlink:href="#ArialMT-4d"/>
      <use xlink:href="#ArialMT-6f" x="83.300781"/>
      <use xlink:href="#ArialMT-64" x="138.916016"/>
      <use xlink:href="#ArialMT-65" x="194.53125"/>
      <use xlink:href="#ArialMT-6c" x="250.146484"/>
      <use xlink:href="#ArialMT-20" x="272.363281"/>
      <use xlink:href="#ArialMT-31" x="300.146484"/>
     </g>
    </g>
    <g id="line2d_13">
     <path d="M 121.018125 72.37375 
L 131.018125 72.37375 
L 141.018125 72.37375 
" style="fill: none; stroke-dasharray: 5.55,2.4; stroke-dashoffset: 0; stroke: #000000; stroke-width: 1.5"/>
    </g>
    <g id="text_14">
     <!-- Model 2 -->
     <g style="fill: #262626" transform="translate(149.018125 75.87375) scale(0.1 -0.1)">
      <use xlink:href="#ArialMT-4d"/>
      <use xlink:href="#ArialMT-6f" x="83.300781"/>
      <use xlink:href="#ArialMT-64" x="138.916016"/>
      <use xlink:href="#ArialMT-65" x="194.53125"/>
      <use xlink:href="#ArialMT-6c" x="250.146484"/>
      <use xlink:href="#ArialMT-20" x="272.363281"/>
      <use xlink:href="#ArialMT-32" x="300.146484"/>
     </g>
    </g>
    <g id="line2d_14">
     <path d="M 121.018125 86.519063 
L 131.018125 86.519063 
L 141.018125 86.519063 
" style="fill: none; stroke-dasharray: 1.5,2.475; stroke-dashoffset: 0; stroke: #000000; stroke-width: 1.5"/>
    </g>
    <g id="text_15">
     <!-- Model 3 -->
     <g style="fill: #262626" transform="translate(149.018125 90.019063) scale(0.1 -0.1)">
      <use xlink:href="#ArialMT-4d"/>
      <use xlink:href="#ArialMT-6f" x="83.300781"/>
      <use xlink:href="#ArialMT-64" x="138.916016"/>
      <use xlink:href="#ArialMT-65" x="194.53125"/>
      <use xlink:href="#ArialMT-6c" x="250.146484"/>
      <use xlink:href="#ArialMT-20" x="272.363281"/>
      <use xlink:href="#ArialMT-33" x="300.146484"/>
     </g>
    </g>
   </g>
  </g>
 </g>
 <defs>
  <clipPath id="pb6534b7500">
   <rect x="64.06175" y="17.28" width="138.97825" height="140.57575"/>
  </clipPath>
 </defs>
</svg>
